<svg width="285" height="396" viewBox="0 0 285 396" fill="none" xmlns="http://www.w3.org/2000/svg">
<g filter="url(#filter0_d_0_892)">
<path fill-rule="evenodd" clip-rule="evenodd" d="M71.7193 55.269H163.861C172.698 55.269 179.862 61.9881 179.862 70.2765V275.724C179.862 284.012 172.698 290.731 163.861 290.731H71.7193C62.8823 290.731 55.7185 284.012 55.7185 275.724V70.2765C55.7185 61.9881 62.8823 55.269 71.7193 55.269Z" fill="#213648"/>
</g>
<path opacity="0.595562" fill-rule="evenodd" clip-rule="evenodd" d="M164.218 55H71.3081C66.9704 55.2591 62.9699 57.1981 59.3066 60.8169C61.6625 58.8024 65.8645 56.1066 71.4199 56.1066C71.4199 56.1066 160.402 56.1066 164.106 56.1066C169.661 56.1066 173.863 58.8024 176.219 60.8169C172.556 57.1981 168.556 55.2591 164.218 55Z" fill="url(#paint0_linear_0_892)" fill-opacity="0.65"/>
<path opacity="0.75" fill-rule="evenodd" clip-rule="evenodd" d="M177.348 273.381V71.5116C177.348 66.0953 175.316 64.093 174.104 62.8073C172.891 61.5216 172.84 60.8658 174.582 61.8366C176.323 62.8073 179.807 65.6346 179.807 71.5116V273.381C179.807 279.258 176.323 282.085 174.582 283.056C172.84 284.027 172.891 283.371 174.104 282.085C175.316 280.799 177.348 278.797 177.348 273.381Z" fill="url(#paint1_linear_0_892)"/>
<path opacity="0.75" fill-rule="evenodd" clip-rule="evenodd" d="M58.1777 273.381V71.5116C58.1777 66.0953 60.2098 64.093 61.422 62.8073C62.6343 61.5216 62.6859 60.8658 60.9441 61.8366C59.2023 62.8073 55.7184 65.6346 55.7184 71.5116V273.381C55.7184 279.258 59.2023 282.085 60.9441 283.056C62.6859 284.027 62.6343 283.371 61.422 282.085C60.2098 280.799 58.1777 278.797 58.1777 273.381Z" fill="url(#paint2_linear_0_892)"/>
<path fill-rule="evenodd" clip-rule="evenodd" d="M54.4812 104.131C54.4812 103.471 55.0167 102.935 55.6772 102.935V102.935C56.3378 102.935 56.8733 103.471 56.8733 104.131V132.113C56.8733 132.773 56.3378 133.309 55.6772 133.309V133.309C55.0167 133.309 54.4812 132.773 54.4812 132.113V104.131Z" fill="#2E423C"/>
<path fill-rule="evenodd" clip-rule="evenodd" d="M178.57 128.905C178.57 128.244 179.106 127.708 179.766 127.708V127.708C180.427 127.708 180.962 128.244 180.962 128.905V148.673C180.962 149.333 180.427 149.869 179.766 149.869V149.869C179.106 149.869 178.57 149.333 178.57 148.673V128.905Z" fill="#2E423C"/>
<path fill-rule="evenodd" clip-rule="evenodd" d="M106.845 60.8735L70.9934 60.8735C65.6429 60.8735 61.7444 64.4434 61.7444 69.1059V268.474C61.7444 274.553 67.7684 279.94 74.58 279.94H160.988C167.55 279.94 173.824 274.511 173.824 268.474V69.6448C173.824 64.0565 169.589 60.9068 164.575 60.8735L128.155 60.8735C128.017 60.8957 125.515 61.9033 124.458 64.4434C123.401 66.9835 121.273 69.0084 118.944 69.0084H116.238C115.131 69.0084 112.216 67.956 110.74 64.4434C109.264 60.9309 106.983 60.8957 106.845 60.8735Z" fill="white"/>
<mask id="mask0_0_892" style="mask-type:luminance" maskUnits="userSpaceOnUse" x="61" y="60" width="113" height="220">
<path fill-rule="evenodd" clip-rule="evenodd" d="M106.845 60.8735L70.9934 60.8735C65.6429 60.8735 61.7444 64.4434 61.7444 69.1059V268.474C61.7444 274.553 67.7684 279.94 74.58 279.94H160.988C167.55 279.94 173.824 274.511 173.824 268.474V69.6448C173.824 64.0565 169.589 60.9068 164.575 60.8735L128.155 60.8735C128.017 60.8957 125.515 61.9033 124.458 64.4434C123.401 66.9835 121.273 69.0084 118.944 69.0084H116.238C115.131 69.0084 112.216 67.956 110.74 64.4434C109.264 60.9309 106.983 60.8957 106.845 60.8735Z" fill="white"/>
</mask>
<g mask="url(#mask0_0_892)">
<rect x="61.4548" y="60.8999" width="112.575" height="219.283" fill="url(#paint3_linear_0_892)"/>
<path fill-rule="evenodd" clip-rule="evenodd" d="M113.022 119.222V121.08H104.834V119.434C104.834 118.88 104.94 118.4 105.151 117.995C105.361 117.59 105.64 117.237 105.987 116.938C106.334 116.638 106.714 116.375 107.128 116.149C107.542 115.922 107.957 115.708 108.373 115.507C108.789 115.305 109.171 115.103 109.518 114.899C109.865 114.695 110.144 114.467 110.354 114.215C110.565 113.964 110.67 113.666 110.67 113.324C110.67 112.886 110.515 112.529 110.204 112.252C109.893 111.975 109.468 111.836 108.928 111.836C108.368 111.836 107.893 111.995 107.502 112.312C107.111 112.629 106.87 113.108 106.777 113.747H104.626C104.637 113.052 104.802 112.422 105.124 111.855C105.445 111.289 105.927 110.84 106.569 110.507C107.212 110.175 108.018 110.009 108.99 110.009C109.822 110.009 110.541 110.147 111.145 110.424C111.748 110.701 112.215 111.086 112.544 111.58C112.873 112.073 113.037 112.649 113.037 113.309C113.037 113.858 112.934 114.331 112.729 114.729C112.523 115.127 112.251 115.466 111.912 115.748C111.572 116.03 111.2 116.277 110.794 116.488C110.388 116.7 109.983 116.896 109.58 117.077C109.176 117.259 108.805 117.444 108.466 117.633C108.126 117.821 107.854 118.034 107.648 118.271C107.443 118.507 107.34 118.792 107.34 119.124V119.222H113.022ZM102.298 110.16V121.08H100.016V112.901H98.0272V111.655C98.6645 111.655 99.1798 111.596 99.5729 111.478C99.9661 111.36 100.26 111.188 100.456 110.964C100.651 110.74 100.767 110.472 100.803 110.16H102.298ZM116.984 115.824V113.46H114.517V115.824H116.984ZM116.984 118.678V121.034H114.517V118.678H116.984ZM125.866 121.08V118.664H127.585V116.813H125.866V110.16H123.653L118.572 116.851V118.664H123.707L123.699 121.08H125.866ZM120.654 116.813H123.707V112.81L120.654 116.813ZM132.796 121.246C133.773 121.246 134.613 121.031 135.317 120.6C136.021 120.17 136.562 119.521 136.94 118.652C137.318 117.784 137.507 116.697 137.507 115.393C137.507 114.301 137.323 113.351 136.955 112.542C136.588 111.734 136.061 111.11 135.375 110.67C134.689 110.229 133.873 110.009 132.927 110.009C132.084 110.009 131.349 110.167 130.722 110.485C130.095 110.802 129.607 111.24 129.258 111.799C128.908 112.357 128.733 112.994 128.733 113.709C128.733 114.419 128.899 115.032 129.231 115.548C129.562 116.064 130.02 116.462 130.603 116.741C131.186 117.021 131.856 117.161 132.611 117.161C133.027 117.161 133.405 117.106 133.744 116.998C134.084 116.89 134.38 116.736 134.635 116.537C134.889 116.339 135.088 116.106 135.232 115.839C135.294 116.71 135.223 117.415 135.02 117.953C134.817 118.492 134.514 118.885 134.111 119.132C133.707 119.378 133.238 119.502 132.704 119.502C132.221 119.502 131.82 119.369 131.501 119.105C131.182 118.841 130.977 118.497 130.884 118.074H128.741C128.787 118.714 129.001 119.271 129.381 119.747C129.761 120.223 130.252 120.592 130.853 120.853C131.455 121.115 132.102 121.246 132.796 121.246ZM131.663 114.936C132.002 115.251 132.447 115.408 132.997 115.408C133.31 115.408 133.615 115.339 133.91 115.201C134.206 115.062 134.449 114.887 134.639 114.676C134.829 114.464 134.924 114.245 134.924 114.019C134.929 113.531 134.851 113.111 134.689 112.761C134.527 112.412 134.301 112.143 134.01 111.957C133.72 111.771 133.382 111.678 132.997 111.678C132.642 111.678 132.326 111.758 132.048 111.919C131.771 112.081 131.552 112.307 131.393 112.599C131.234 112.891 131.154 113.228 131.154 113.611C131.154 114.18 131.324 114.622 131.663 114.936Z" fill="white"/>
</g>
<g clip-path="url(#clip0_0_892)">
<g filter="url(#filter1_d_0_892)">
<rect x="64.687" y="133.667" width="104.609" height="41.844" rx="2" fill="#FBFCFE"/>
</g>
<path d="M72.5286 149.977V149.552H75.2636V149.977H74.1611V153.167H73.6961V149.977H72.5286ZM75.7648 153.167V149.452H76.2148V150.962C76.2582 150.89 76.3165 150.823 76.3898 150.762C76.4632 150.698 76.5523 150.647 76.6573 150.609C76.7623 150.569 76.884 150.549 77.0223 150.549C77.1907 150.549 77.3432 150.581 77.4798 150.644C77.6165 150.706 77.7248 150.794 77.8048 150.909C77.8848 151.024 77.9248 151.161 77.9248 151.319V153.167H77.4623V151.412C77.4623 151.257 77.409 151.137 77.3023 151.054C77.1973 150.969 77.0598 150.927 76.8898 150.927C76.7748 150.927 76.6665 150.946 76.5648 150.984C76.4632 151.021 76.3807 151.077 76.3173 151.154C76.2557 151.229 76.2248 151.325 76.2248 151.442V153.167H75.7648ZM78.9757 151.982C78.9757 152.145 79.0024 152.293 79.0557 152.427C79.1107 152.558 79.1932 152.663 79.3032 152.742C79.4149 152.82 79.554 152.859 79.7207 152.859C79.8857 152.859 80.0274 152.821 80.1457 152.744C80.2657 152.667 80.3424 152.557 80.3757 152.412H80.8132C80.7815 152.587 80.7115 152.734 80.6032 152.854C80.4949 152.974 80.364 153.065 80.2107 153.127C80.0574 153.187 79.8974 153.217 79.7307 153.217C79.489 153.217 79.2765 153.164 79.0932 153.059C78.9099 152.954 78.7665 152.803 78.6632 152.607C78.5599 152.41 78.5082 152.174 78.5082 151.899C78.5082 151.627 78.5549 151.389 78.6482 151.184C78.7415 150.979 78.8765 150.819 79.0532 150.704C79.2315 150.589 79.4457 150.532 79.6957 150.532C79.939 150.532 80.1449 150.584 80.3132 150.689C80.4815 150.794 80.609 150.942 80.6957 151.134C80.784 151.324 80.8282 151.55 80.8282 151.812V151.982H78.9757ZM78.9782 151.669H80.3832C80.3832 151.521 80.3582 151.387 80.3082 151.269C80.2582 151.149 80.1815 151.055 80.0782 150.987C79.9765 150.917 79.8482 150.882 79.6932 150.882C79.5315 150.882 79.3974 150.921 79.2907 150.999C79.1857 151.076 79.1065 151.175 79.0532 151.297C79.0015 151.417 78.9765 151.541 78.9782 151.669ZM82.5861 153.972V150.582H83.0461L83.0511 151.032C83.0811 150.978 83.1194 150.922 83.1661 150.864C83.2144 150.806 83.2728 150.752 83.3411 150.702C83.4111 150.652 83.4919 150.611 83.5836 150.579C83.6769 150.547 83.7828 150.532 83.9011 150.532C84.1078 150.532 84.2894 150.579 84.4461 150.674C84.6044 150.767 84.7278 150.911 84.8161 151.104C84.9044 151.297 84.9486 151.542 84.9486 151.839C84.9486 152.136 84.9053 152.387 84.8186 152.592C84.7336 152.795 84.6103 152.95 84.4486 153.057C84.2869 153.163 84.0919 153.217 83.8636 153.217C83.7486 153.217 83.6461 153.2 83.5561 153.167C83.4678 153.135 83.3903 153.093 83.3236 153.042C83.2586 152.988 83.2036 152.932 83.1586 152.872C83.1153 152.812 83.0794 152.754 83.0511 152.699V153.972H82.5861ZM83.7761 152.857C83.9894 152.857 84.1636 152.776 84.2986 152.614C84.4336 152.451 84.5011 152.197 84.5011 151.854C84.5011 151.559 84.4394 151.325 84.3161 151.152C84.1928 150.978 84.0128 150.892 83.7761 150.892C83.5361 150.892 83.3544 150.981 83.2311 151.159C83.1078 151.336 83.0461 151.567 83.0461 151.854C83.0461 152.039 83.0736 152.207 83.1286 152.359C83.1836 152.511 83.2653 152.632 83.3736 152.722C83.4819 152.812 83.6161 152.857 83.7761 152.857ZM86.2406 153.217C86.0739 153.217 85.9264 153.187 85.7981 153.129C85.6697 153.069 85.5689 152.983 85.4956 152.872C85.4239 152.76 85.3881 152.625 85.3881 152.467C85.3881 152.18 85.4881 151.967 85.6881 151.827C85.8881 151.687 86.2089 151.612 86.6506 151.602L87.1131 151.589V151.387C87.1131 151.228 87.0656 151.103 86.9706 151.012C86.8756 150.918 86.7281 150.872 86.5281 150.872C86.3797 150.873 86.2489 150.908 86.1356 150.977C86.0239 151.045 85.9514 151.157 85.9181 151.312H85.5106C85.5206 151.143 85.5681 151.002 85.6531 150.887C85.7381 150.77 85.8564 150.682 86.0081 150.622C86.1614 150.562 86.3422 150.532 86.5506 150.532C86.7756 150.532 86.9622 150.563 87.1106 150.627C87.2606 150.69 87.3722 150.783 87.4456 150.907C87.5206 151.03 87.5581 151.182 87.5581 151.362V153.167H87.1631L87.1306 152.682C87.0306 152.883 86.9031 153.023 86.7481 153.102C86.5947 153.178 86.4256 153.217 86.2406 153.217ZM86.3806 152.884C86.4672 152.884 86.5531 152.868 86.6381 152.837C86.7247 152.805 86.8039 152.762 86.8756 152.709C86.9472 152.654 87.0039 152.593 87.0456 152.527C87.0889 152.458 87.1114 152.388 87.1131 152.317V151.874L86.7281 151.882C86.5314 151.885 86.3664 151.905 86.2331 151.942C86.1014 151.978 86.0022 152.036 85.9356 152.114C85.8706 152.192 85.8381 152.295 85.8381 152.422C85.8381 152.567 85.8881 152.68 85.9881 152.762C86.0897 152.843 86.2206 152.884 86.3806 152.884ZM88.5198 153.992C88.3682 153.992 88.264 153.981 88.2073 153.959C88.1507 153.937 88.1223 153.927 88.1223 153.927V153.627L88.3848 153.632C88.4815 153.635 88.5615 153.628 88.6248 153.612C88.6882 153.595 88.739 153.572 88.7773 153.544C88.8157 153.516 88.8448 153.484 88.8648 153.449C88.8865 153.414 88.904 153.381 88.9173 153.349L89.0073 153.104L87.9973 150.582H88.4648L89.2273 152.577L89.9848 150.582H90.4373L89.3473 153.362C89.2807 153.525 89.2057 153.652 89.1223 153.744C89.0407 153.836 88.949 153.9 88.8473 153.937C88.7473 153.973 88.6382 153.992 88.5198 153.992ZM90.9308 153.167V150.582H91.3758V150.957C91.4475 150.843 91.5458 150.744 91.6708 150.659C91.7958 150.574 91.9583 150.532 92.1583 150.532C92.2517 150.532 92.3467 150.547 92.4433 150.579C92.5417 150.611 92.6317 150.658 92.7133 150.722C92.795 150.785 92.8583 150.862 92.9033 150.954C92.9833 150.827 93.0917 150.726 93.2283 150.649C93.365 150.571 93.5192 150.532 93.6908 150.532C93.7808 150.532 93.875 150.546 93.9733 150.574C94.0717 150.601 94.1625 150.649 94.2458 150.719C94.3308 150.787 94.4 150.883 94.4533 151.007C94.5067 151.128 94.5333 151.285 94.5333 151.477V153.167H94.0683V151.522C94.0683 151.365 94.0433 151.244 93.9933 151.159C93.9433 151.072 93.8775 151.012 93.7958 150.977C93.7158 150.942 93.63 150.924 93.5383 150.924C93.4583 150.924 93.3733 150.94 93.2833 150.972C93.1933 151.003 93.1167 151.057 93.0533 151.132C92.99 151.207 92.9583 151.309 92.9583 151.439V153.167H92.4983V151.387C92.4983 151.285 92.4708 151.2 92.4158 151.132C92.3625 151.063 92.295 151.012 92.2133 150.977C92.1333 150.942 92.0533 150.924 91.9733 150.924C91.885 150.924 91.7958 150.942 91.7058 150.977C91.6175 151.012 91.5425 151.067 91.4808 151.144C91.4208 151.219 91.3908 151.317 91.3908 151.439V153.167H90.9308ZM95.587 151.982C95.587 152.145 95.6137 152.293 95.667 152.427C95.722 152.558 95.8045 152.663 95.9145 152.742C96.0262 152.82 96.1653 152.859 96.332 152.859C96.497 152.859 96.6387 152.821 96.757 152.744C96.877 152.667 96.9537 152.557 96.987 152.412H97.4245C97.3928 152.587 97.3228 152.734 97.2145 152.854C97.1062 152.974 96.9753 153.065 96.822 153.127C96.6687 153.187 96.5087 153.217 96.342 153.217C96.1003 153.217 95.8878 153.164 95.7045 153.059C95.5212 152.954 95.3778 152.803 95.2745 152.607C95.1712 152.41 95.1195 152.174 95.1195 151.899C95.1195 151.627 95.1662 151.389 95.2595 151.184C95.3528 150.979 95.4878 150.819 95.6645 150.704C95.8428 150.589 96.057 150.532 96.307 150.532C96.5503 150.532 96.7562 150.584 96.9245 150.689C97.0928 150.794 97.2203 150.942 97.307 151.134C97.3953 151.324 97.4395 151.55 97.4395 151.812V151.982H95.587ZM95.5895 151.669H96.9945C96.9945 151.521 96.9695 151.387 96.9195 151.269C96.8695 151.149 96.7928 151.055 96.6895 150.987C96.5878 150.917 96.4595 150.882 96.3045 150.882C96.1428 150.882 96.0087 150.921 95.902 150.999C95.797 151.076 95.7178 151.175 95.6645 151.297C95.6128 151.417 95.5878 151.541 95.5895 151.669ZM98.0744 153.167V150.582H98.5219V150.957C98.5636 150.885 98.6211 150.817 98.6944 150.754C98.7694 150.691 98.8594 150.64 98.9644 150.602C99.0711 150.563 99.1936 150.544 99.3319 150.544C99.4952 150.544 99.6452 150.577 99.7819 150.642C99.9202 150.707 100.03 150.808 100.112 150.947C100.195 151.083 100.237 151.26 100.237 151.477V153.167H99.7744V151.522C99.7744 151.32 99.7211 151.171 99.6144 151.074C99.5094 150.976 99.3727 150.927 99.2044 150.927C99.0877 150.927 98.9786 150.946 98.8769 150.984C98.7752 151.021 98.6927 151.077 98.6294 151.154C98.5661 151.229 98.5344 151.324 98.5344 151.439V153.167H98.0744ZM102.151 150.919H101.569V152.527C101.569 152.618 101.578 152.686 101.596 152.729C101.616 152.771 101.649 152.797 101.694 152.809C101.741 152.821 101.804 152.827 101.884 152.827H102.166V153.137C102.135 153.148 102.086 153.158 102.021 153.167C101.958 153.175 101.879 153.179 101.784 153.179C101.606 153.179 101.467 153.155 101.369 153.107C101.271 153.058 101.201 152.987 101.161 152.892C101.123 152.797 101.104 152.68 101.104 152.542V150.919H100.684V150.582H101.116L101.229 149.829H101.569V150.579H102.151V150.919ZM103.968 153.167V149.452H104.418V150.962C104.461 150.89 104.52 150.823 104.593 150.762C104.666 150.698 104.755 150.647 104.86 150.609C104.965 150.569 105.087 150.549 105.225 150.549C105.394 150.549 105.546 150.581 105.683 150.644C105.82 150.706 105.928 150.794 106.008 150.909C106.088 151.024 106.128 151.161 106.128 151.319V153.167H105.665V151.412C105.665 151.257 105.612 151.137 105.505 151.054C105.4 150.969 105.263 150.927 105.093 150.927C104.978 150.927 104.87 150.946 104.768 150.984C104.666 151.021 104.584 151.077 104.52 151.154C104.459 151.229 104.428 151.325 104.428 151.442V153.167H103.968ZM107.554 153.217C107.387 153.217 107.24 153.187 107.112 153.129C106.983 153.069 106.882 152.983 106.809 152.872C106.737 152.76 106.702 152.625 106.702 152.467C106.702 152.18 106.802 151.967 107.002 151.827C107.202 151.687 107.522 151.612 107.964 151.602L108.427 151.589V151.387C108.427 151.228 108.379 151.103 108.284 151.012C108.189 150.918 108.042 150.872 107.842 150.872C107.693 150.873 107.562 150.908 107.449 150.977C107.337 151.045 107.265 151.157 107.232 151.312H106.824C106.834 151.143 106.882 151.002 106.967 150.887C107.052 150.77 107.17 150.682 107.322 150.622C107.475 150.562 107.656 150.532 107.864 150.532C108.089 150.532 108.276 150.563 108.424 150.627C108.574 150.69 108.686 150.783 108.759 150.907C108.834 151.03 108.872 151.182 108.872 151.362V153.167H108.477L108.444 152.682C108.344 152.883 108.217 153.023 108.062 153.102C107.908 153.178 107.739 153.217 107.554 153.217ZM107.694 152.884C107.781 152.884 107.867 152.868 107.952 152.837C108.038 152.805 108.117 152.762 108.189 152.709C108.261 152.654 108.317 152.593 108.359 152.527C108.402 152.458 108.425 152.388 108.427 152.317V151.874L108.042 151.882C107.845 151.885 107.68 151.905 107.547 151.942C107.415 151.978 107.316 152.036 107.249 152.114C107.184 152.192 107.152 152.295 107.152 152.422C107.152 152.567 107.202 152.68 107.302 152.762C107.403 152.843 107.534 152.884 107.694 152.884ZM110.54 153.217C110.36 153.217 110.192 153.189 110.037 153.134C109.884 153.077 109.756 152.99 109.655 152.872C109.553 152.752 109.489 152.599 109.462 152.414H109.882C109.906 152.516 109.947 152.601 110.007 152.669C110.069 152.736 110.146 152.787 110.237 152.822C110.329 152.855 110.429 152.872 110.537 152.872C110.711 152.872 110.851 152.839 110.957 152.774C111.064 152.709 111.117 152.609 111.117 152.474C111.117 152.379 111.089 152.303 111.032 152.247C110.977 152.188 110.891 152.146 110.775 152.119L110.24 151.987C110.031 151.937 109.865 151.858 109.74 151.752C109.615 151.645 109.552 151.496 109.552 151.304C109.551 151.152 109.586 151.019 109.66 150.904C109.733 150.789 109.843 150.698 109.99 150.632C110.136 150.565 110.319 150.532 110.537 150.532C110.817 150.532 111.043 150.595 111.215 150.722C111.388 150.847 111.478 151.031 111.485 151.274H111.077C111.061 151.151 111.005 151.053 110.91 150.982C110.816 150.908 110.691 150.872 110.532 150.872C110.367 150.872 110.233 150.905 110.13 150.972C110.026 151.037 109.975 151.138 109.975 151.277C109.975 151.368 110.011 151.441 110.085 151.494C110.158 151.546 110.266 151.589 110.41 151.624L110.927 151.754C111.047 151.786 111.146 151.827 111.222 151.879C111.301 151.931 111.362 151.988 111.407 152.052C111.454 152.115 111.486 152.182 111.505 152.252C111.525 152.32 111.535 152.386 111.535 152.449C111.535 152.607 111.495 152.744 111.415 152.859C111.336 152.972 111.223 153.061 111.075 153.124C110.928 153.186 110.75 153.217 110.54 153.217ZM114.591 153.217C114.439 153.217 114.311 153.197 114.206 153.157C114.103 153.117 114.018 153.066 113.951 153.004C113.884 152.941 113.833 152.877 113.796 152.812C113.759 152.745 113.733 152.687 113.716 152.637L113.666 153.167H113.314V149.452H113.779V150.992C113.8 150.948 113.833 150.901 113.876 150.849C113.921 150.797 113.979 150.747 114.049 150.699C114.119 150.651 114.201 150.611 114.296 150.579C114.393 150.547 114.503 150.532 114.626 150.532C114.949 150.532 115.206 150.644 115.396 150.869C115.588 151.094 115.684 151.426 115.684 151.864C115.684 152.136 115.643 152.373 115.561 152.577C115.479 152.778 115.358 152.936 115.196 153.049C115.034 153.161 114.833 153.217 114.591 153.217ZM114.509 152.862C114.719 152.862 114.889 152.781 115.021 152.619C115.153 152.456 115.219 152.197 115.219 151.842C115.219 151.54 115.157 151.307 115.034 151.142C114.912 150.975 114.734 150.892 114.499 150.892C114.327 150.892 114.189 150.929 114.084 151.004C113.98 151.077 113.904 151.185 113.854 151.327C113.805 151.468 113.78 151.64 113.779 151.842C113.779 152.203 113.834 152.464 113.946 152.624C114.059 152.782 114.247 152.862 114.509 152.862ZM116.617 151.982C116.617 152.145 116.644 152.293 116.697 152.427C116.752 152.558 116.835 152.663 116.945 152.742C117.056 152.82 117.196 152.859 117.362 152.859C117.527 152.859 117.669 152.821 117.787 152.744C117.907 152.667 117.984 152.557 118.017 152.412H118.455C118.423 152.587 118.353 152.734 118.245 152.854C118.136 152.974 118.006 153.065 117.852 153.127C117.699 153.187 117.539 153.217 117.372 153.217C117.131 153.217 116.918 153.164 116.735 153.059C116.551 152.954 116.408 152.803 116.305 152.607C116.201 152.41 116.15 152.174 116.15 151.899C116.15 151.627 116.196 151.389 116.29 151.184C116.383 150.979 116.518 150.819 116.695 150.704C116.873 150.589 117.087 150.532 117.337 150.532C117.581 150.532 117.786 150.584 117.955 150.689C118.123 150.794 118.251 150.942 118.337 151.134C118.426 151.324 118.47 151.55 118.47 151.812V151.982H116.617ZM116.62 151.669H118.025C118.025 151.521 118 151.387 117.95 151.269C117.9 151.149 117.823 151.055 117.72 150.987C117.618 150.917 117.49 150.882 117.335 150.882C117.173 150.882 117.039 150.921 116.932 150.999C116.827 151.076 116.748 151.175 116.695 151.297C116.643 151.417 116.618 151.541 116.62 151.669ZM119.435 151.982C119.435 152.145 119.461 152.293 119.515 152.427C119.57 152.558 119.652 152.663 119.762 152.742C119.874 152.82 120.013 152.859 120.18 152.859C120.345 152.859 120.486 152.821 120.605 152.744C120.725 152.667 120.801 152.557 120.835 152.412H121.272C121.241 152.587 121.171 152.734 121.062 152.854C120.954 152.974 120.823 153.065 120.67 153.127C120.516 153.187 120.356 153.217 120.19 153.217C119.948 153.217 119.736 153.164 119.552 153.059C119.369 152.954 119.226 152.803 119.122 152.607C119.019 152.41 118.967 152.174 118.967 151.899C118.967 151.627 119.014 151.389 119.107 151.184C119.201 150.979 119.336 150.819 119.512 150.704C119.691 150.589 119.905 150.532 120.155 150.532C120.398 150.532 120.604 150.584 120.772 150.689C120.941 150.794 121.068 150.942 121.155 151.134C121.243 151.324 121.287 151.55 121.287 151.812V151.982H119.435ZM119.437 151.669H120.842C120.842 151.521 120.817 151.387 120.767 151.269C120.717 151.149 120.641 151.055 120.537 150.987C120.436 150.917 120.307 150.882 120.152 150.882C119.991 150.882 119.856 150.921 119.75 150.999C119.645 151.076 119.566 151.175 119.512 151.297C119.461 151.417 119.436 151.541 119.437 151.669ZM121.922 153.167V150.582H122.37V150.957C122.411 150.885 122.469 150.817 122.542 150.754C122.617 150.691 122.707 150.64 122.812 150.602C122.919 150.563 123.041 150.544 123.18 150.544C123.343 150.544 123.493 150.577 123.63 150.642C123.768 150.707 123.878 150.808 123.96 150.947C124.043 151.083 124.085 151.26 124.085 151.477V153.167H123.622V151.522C123.622 151.32 123.569 151.171 123.462 151.074C123.357 150.976 123.22 150.927 123.052 150.927C122.935 150.927 122.826 150.946 122.725 150.984C122.623 151.021 122.54 151.077 122.477 151.154C122.414 151.229 122.382 151.324 122.382 151.439V153.167H121.922ZM125.96 153.972V150.582H126.42L126.425 151.032C126.455 150.978 126.493 150.922 126.54 150.864C126.588 150.806 126.647 150.752 126.715 150.702C126.785 150.652 126.866 150.611 126.958 150.579C127.051 150.547 127.157 150.532 127.275 150.532C127.482 150.532 127.663 150.579 127.82 150.674C127.978 150.767 128.102 150.911 128.19 151.104C128.278 151.297 128.323 151.542 128.323 151.839C128.323 152.136 128.279 152.387 128.193 152.592C128.108 152.795 127.984 152.95 127.823 153.057C127.661 153.163 127.466 153.217 127.238 153.217C127.123 153.217 127.02 153.2 126.93 153.167C126.842 153.135 126.764 153.093 126.698 153.042C126.633 152.988 126.578 152.932 126.533 152.872C126.489 152.812 126.453 152.754 126.425 152.699V153.972H125.96ZM127.15 152.857C127.363 152.857 127.538 152.776 127.673 152.614C127.808 152.451 127.875 152.197 127.875 151.854C127.875 151.559 127.813 151.325 127.69 151.152C127.567 150.978 127.387 150.892 127.15 150.892C126.91 150.892 126.728 150.981 126.605 151.159C126.482 151.336 126.42 151.567 126.42 151.854C126.42 152.039 126.448 152.207 126.503 152.359C126.558 152.511 126.639 152.632 126.748 152.722C126.856 152.812 126.99 152.857 127.15 152.857ZM128.929 153.167V150.582H129.369V151.079C129.412 150.956 129.473 150.854 129.551 150.774C129.63 150.692 129.719 150.632 129.819 150.592C129.921 150.552 130.026 150.532 130.134 150.532C130.172 150.532 130.21 150.534 130.246 150.539C130.283 150.544 130.311 150.552 130.331 150.564V151.012C130.306 151 130.274 150.992 130.234 150.989C130.196 150.984 130.163 150.982 130.136 150.982C130.033 150.975 129.936 150.982 129.846 151.002C129.756 151.02 129.677 151.052 129.609 151.099C129.541 151.146 129.486 151.207 129.446 151.284C129.408 151.359 129.389 151.451 129.389 151.559V153.167H128.929ZM131.841 153.217C131.603 153.217 131.394 153.166 131.216 153.064C131.038 152.961 130.899 152.81 130.801 152.612C130.703 152.413 130.654 152.171 130.654 151.884C130.654 151.614 130.699 151.377 130.791 151.174C130.883 150.971 131.017 150.813 131.194 150.702C131.372 150.588 131.588 150.532 131.841 150.532C132.079 150.532 132.286 150.584 132.461 150.689C132.638 150.792 132.774 150.945 132.871 151.147C132.968 151.348 133.016 151.594 133.016 151.884C133.016 152.147 132.971 152.379 132.881 152.579C132.793 152.779 132.661 152.936 132.486 153.049C132.313 153.161 132.098 153.217 131.841 153.217ZM131.841 152.852C131.996 152.852 132.127 152.812 132.234 152.734C132.34 152.656 132.421 152.543 132.476 152.397C132.531 152.25 132.559 152.076 132.559 151.874C132.559 151.689 132.534 151.523 132.486 151.377C132.438 151.228 132.36 151.111 132.254 151.024C132.149 150.937 132.011 150.894 131.841 150.894C131.684 150.894 131.552 150.933 131.444 151.012C131.335 151.088 131.253 151.2 131.196 151.347C131.141 151.493 131.114 151.669 131.114 151.874C131.114 152.056 131.139 152.221 131.189 152.369C131.239 152.517 131.317 152.635 131.424 152.722C131.53 152.808 131.669 152.852 131.841 152.852ZM134.651 150.532C134.836 150.532 135.003 150.567 135.151 150.639C135.3 150.709 135.42 150.809 135.514 150.939C135.609 151.069 135.668 151.222 135.691 151.399H135.281C135.266 151.309 135.231 151.227 135.176 151.152C135.123 151.077 135.052 151.017 134.964 150.972C134.875 150.927 134.772 150.904 134.654 150.904C134.432 150.904 134.252 150.984 134.114 151.144C133.975 151.304 133.906 151.549 133.906 151.879C133.906 152.177 133.97 152.417 134.096 152.597C134.225 152.775 134.413 152.864 134.661 152.864C134.78 152.864 134.882 152.842 134.969 152.797C135.057 152.75 135.128 152.689 135.181 152.614C135.235 152.537 135.269 152.456 135.284 152.369H135.686C135.665 152.542 135.606 152.692 135.511 152.819C135.416 152.946 135.295 153.044 135.146 153.114C135 153.182 134.835 153.217 134.651 153.217C134.42 153.217 134.214 153.166 134.034 153.064C133.855 152.962 133.715 152.812 133.614 152.614C133.512 152.416 133.461 152.172 133.461 151.884C133.461 151.614 133.507 151.378 133.599 151.177C133.692 150.973 133.827 150.815 134.004 150.702C134.182 150.588 134.398 150.532 134.651 150.532ZM136.647 151.982C136.647 152.145 136.673 152.293 136.727 152.427C136.782 152.558 136.864 152.663 136.974 152.742C137.086 152.82 137.225 152.859 137.392 152.859C137.557 152.859 137.698 152.821 137.817 152.744C137.937 152.667 138.013 152.557 138.047 152.412H138.484C138.452 152.587 138.382 152.734 138.274 152.854C138.166 152.974 138.035 153.065 137.882 153.127C137.728 153.187 137.568 153.217 137.402 153.217C137.16 153.217 136.947 153.164 136.764 153.059C136.581 152.954 136.437 152.803 136.334 152.607C136.231 152.41 136.179 152.174 136.179 151.899C136.179 151.627 136.226 151.389 136.319 151.184C136.412 150.979 136.547 150.819 136.724 150.704C136.902 150.589 137.117 150.532 137.367 150.532C137.61 150.532 137.816 150.584 137.984 150.689C138.152 150.794 138.28 150.942 138.367 151.134C138.455 151.324 138.499 151.55 138.499 151.812V151.982H136.647ZM136.649 151.669H138.054C138.054 151.521 138.029 151.387 137.979 151.269C137.929 151.149 137.852 151.055 137.749 150.987C137.647 150.917 137.519 150.882 137.364 150.882C137.202 150.882 137.068 150.921 136.962 150.999C136.857 151.076 136.777 151.175 136.724 151.297C136.672 151.417 136.647 151.541 136.649 151.669ZM140.037 153.217C139.857 153.217 139.689 153.189 139.534 153.134C139.381 153.077 139.253 152.99 139.152 152.872C139.05 152.752 138.986 152.599 138.959 152.414H139.379C139.403 152.516 139.444 152.601 139.504 152.669C139.566 152.736 139.643 152.787 139.734 152.822C139.826 152.855 139.926 152.872 140.034 152.872C140.208 152.872 140.348 152.839 140.454 152.774C140.561 152.709 140.614 152.609 140.614 152.474C140.614 152.379 140.586 152.303 140.529 152.247C140.474 152.188 140.388 152.146 140.272 152.119L139.737 151.987C139.528 151.937 139.362 151.858 139.237 151.752C139.112 151.645 139.049 151.496 139.049 151.304C139.048 151.152 139.083 151.019 139.157 150.904C139.23 150.789 139.34 150.698 139.487 150.632C139.633 150.565 139.816 150.532 140.034 150.532C140.314 150.532 140.54 150.595 140.712 150.722C140.885 150.847 140.975 151.031 140.982 151.274H140.574C140.558 151.151 140.502 151.053 140.407 150.982C140.313 150.908 140.188 150.872 140.029 150.872C139.864 150.872 139.73 150.905 139.627 150.972C139.523 151.037 139.472 151.138 139.472 151.277C139.472 151.368 139.508 151.441 139.582 151.494C139.655 151.546 139.763 151.589 139.907 151.624L140.424 151.754C140.544 151.786 140.643 151.827 140.719 151.879C140.798 151.931 140.859 151.988 140.904 152.052C140.951 152.115 140.983 152.182 141.002 152.252C141.022 152.32 141.032 152.386 141.032 152.449C141.032 152.607 140.992 152.744 140.912 152.859C140.833 152.972 140.72 153.061 140.572 153.124C140.425 153.186 140.247 153.217 140.037 153.217ZM142.556 153.217C142.376 153.217 142.209 153.189 142.054 153.134C141.901 153.077 141.773 152.99 141.671 152.872C141.57 152.752 141.506 152.599 141.479 152.414H141.899C141.922 152.516 141.964 152.601 142.024 152.669C142.086 152.736 142.162 152.787 142.254 152.822C142.346 152.855 142.446 152.872 142.554 152.872C142.727 152.872 142.867 152.839 142.974 152.774C143.081 152.709 143.134 152.609 143.134 152.474C143.134 152.379 143.106 152.303 143.049 152.247C142.994 152.188 142.908 152.146 142.791 152.119L142.256 151.987C142.048 151.937 141.881 151.858 141.756 151.752C141.631 151.645 141.569 151.496 141.569 151.304C141.567 151.152 141.603 151.019 141.676 150.904C141.75 150.789 141.86 150.698 142.006 150.632C142.153 150.565 142.336 150.532 142.554 150.532C142.834 150.532 143.06 150.595 143.231 150.722C143.405 150.847 143.495 151.031 143.501 151.274H143.094C143.077 151.151 143.021 151.053 142.926 150.982C142.833 150.908 142.707 150.872 142.549 150.872C142.384 150.872 142.25 150.905 142.146 150.972C142.043 151.037 141.991 151.138 141.991 151.277C141.991 151.368 142.028 151.441 142.101 151.494C142.175 151.546 142.283 151.589 142.426 151.624L142.944 151.754C143.064 151.786 143.162 151.827 143.239 151.879C143.317 151.931 143.379 151.988 143.424 152.052C143.471 152.115 143.503 152.182 143.521 152.252C143.541 152.32 143.551 152.386 143.551 152.449C143.551 152.607 143.511 152.744 143.431 152.859C143.353 152.972 143.24 153.061 143.091 153.124C142.945 153.186 142.766 153.217 142.556 153.217ZM144.527 151.982C144.527 152.145 144.554 152.293 144.607 152.427C144.662 152.558 144.745 152.663 144.855 152.742C144.967 152.82 145.106 152.859 145.272 152.859C145.437 152.859 145.579 152.821 145.697 152.744C145.817 152.667 145.894 152.557 145.927 152.412H146.365C146.333 152.587 146.263 152.734 146.155 152.854C146.047 152.974 145.916 153.065 145.762 153.127C145.609 153.187 145.449 153.217 145.282 153.217C145.041 153.217 144.828 153.164 144.645 153.059C144.462 152.954 144.318 152.803 144.215 152.607C144.112 152.41 144.06 152.174 144.06 151.899C144.06 151.627 144.107 151.389 144.2 151.184C144.293 150.979 144.428 150.819 144.605 150.704C144.783 150.589 144.997 150.532 145.247 150.532C145.491 150.532 145.697 150.584 145.865 150.689C146.033 150.794 146.161 150.942 146.247 151.134C146.336 151.324 146.38 151.55 146.38 151.812V151.982H144.527ZM144.53 151.669H145.935C145.935 151.521 145.91 151.387 145.86 151.269C145.81 151.149 145.733 151.055 145.63 150.987C145.528 150.917 145.4 150.882 145.245 150.882C145.083 150.882 144.949 150.921 144.842 150.999C144.737 151.076 144.658 151.175 144.605 151.297C144.553 151.417 144.528 151.541 144.53 151.669ZM147.947 153.217C147.612 153.217 147.346 153.102 147.15 152.872C146.953 152.642 146.855 152.306 146.855 151.864C146.855 151.596 146.894 151.362 146.972 151.162C147.052 150.962 147.171 150.807 147.327 150.697C147.484 150.587 147.679 150.532 147.912 150.532C148.036 150.532 148.145 150.547 148.24 150.579C148.336 150.611 148.42 150.651 148.49 150.699C148.56 150.747 148.616 150.797 148.66 150.849C148.705 150.901 148.738 150.948 148.76 150.992V149.452H149.225V153.167H148.872L148.822 152.637C148.806 152.687 148.779 152.745 148.742 152.812C148.706 152.877 148.654 152.941 148.587 153.004C148.521 153.066 148.435 153.117 148.33 153.157C148.226 153.197 148.099 153.217 147.947 153.217ZM148.03 152.862C148.291 152.862 148.478 152.782 148.59 152.624C148.703 152.464 148.76 152.203 148.76 151.842C148.758 151.64 148.732 151.468 148.682 151.327C148.634 151.185 148.557 151.077 148.452 151.004C148.349 150.929 148.211 150.892 148.04 150.892C147.826 150.892 147.653 150.967 147.52 151.119C147.386 151.271 147.32 151.512 147.32 151.842C147.32 152.165 147.38 152.416 147.5 152.594C147.621 152.772 147.798 152.862 148.03 152.862ZM149.881 153.167V152.577H150.431V153.167H149.881ZM72.5286 156.977V156.552H75.2636V156.977H74.1611V160.167H73.6961V156.977H72.5286ZM75.7648 160.167V156.452H76.2148V157.962C76.2582 157.89 76.3165 157.823 76.3898 157.762C76.4632 157.698 76.5523 157.647 76.6573 157.609C76.7623 157.569 76.884 157.549 77.0223 157.549C77.1907 157.549 77.3432 157.581 77.4798 157.644C77.6165 157.706 77.7248 157.794 77.8048 157.909C77.8848 158.024 77.9248 158.161 77.9248 158.319V160.167H77.4623V158.412C77.4623 158.257 77.409 158.137 77.3023 158.054C77.1973 157.969 77.0598 157.927 76.8898 157.927C76.7748 157.927 76.6665 157.946 76.5648 157.984C76.4632 158.021 76.3807 158.077 76.3173 158.154C76.2557 158.229 76.2248 158.325 76.2248 158.442V160.167H75.7648ZM78.9757 158.982C78.9757 159.145 79.0024 159.293 79.0557 159.427C79.1107 159.558 79.1932 159.663 79.3032 159.742C79.4149 159.82 79.554 159.859 79.7207 159.859C79.8857 159.859 80.0274 159.821 80.1457 159.744C80.2657 159.667 80.3424 159.557 80.3757 159.412H80.8132C80.7815 159.587 80.7115 159.734 80.6032 159.854C80.4949 159.974 80.364 160.065 80.2107 160.127C80.0574 160.187 79.8974 160.217 79.7307 160.217C79.489 160.217 79.2765 160.164 79.0932 160.059C78.9099 159.954 78.7665 159.803 78.6632 159.607C78.5599 159.41 78.5082 159.174 78.5082 158.899C78.5082 158.627 78.5549 158.389 78.6482 158.184C78.7415 157.979 78.8765 157.819 79.0532 157.704C79.2315 157.589 79.4457 157.532 79.6957 157.532C79.939 157.532 80.1449 157.584 80.3132 157.689C80.4815 157.794 80.609 157.942 80.6957 158.134C80.784 158.324 80.8282 158.55 80.8282 158.812V158.982H78.9757ZM78.9782 158.669H80.3832C80.3832 158.521 80.3582 158.387 80.3082 158.269C80.2582 158.149 80.1815 158.055 80.0782 157.987C79.9765 157.917 79.8482 157.882 79.6932 157.882C79.5315 157.882 79.3974 157.921 79.2907 157.999C79.1857 158.076 79.1065 158.175 79.0532 158.297C79.0015 158.417 78.9765 158.541 78.9782 158.669ZM83.9043 157.919H83.3218V159.527C83.3218 159.618 83.331 159.686 83.3493 159.729C83.3693 159.771 83.4018 159.797 83.4468 159.809C83.4935 159.821 83.5568 159.827 83.6368 159.827H83.9193V160.137C83.8876 160.148 83.8393 160.158 83.7743 160.167C83.711 160.175 83.6318 160.179 83.5368 160.179C83.3585 160.179 83.2201 160.155 83.1218 160.107C83.0235 160.058 82.9543 159.987 82.9143 159.892C82.876 159.797 82.8568 159.68 82.8568 159.542V157.919H82.4368V157.582H82.8693L82.9818 156.829H83.3218V157.579H83.9043V157.919ZM85.5277 160.217C85.2893 160.217 85.081 160.166 84.9027 160.064C84.7243 159.961 84.586 159.81 84.4877 159.612C84.3893 159.413 84.3402 159.171 84.3402 158.884C84.3402 158.614 84.386 158.377 84.4777 158.174C84.5693 157.971 84.7035 157.813 84.8802 157.702C85.0585 157.588 85.2743 157.532 85.5277 157.532C85.766 157.532 85.9727 157.584 86.1477 157.689C86.3243 157.792 86.461 157.945 86.5577 158.147C86.6543 158.348 86.7027 158.594 86.7027 158.884C86.7027 159.147 86.6577 159.379 86.5677 159.579C86.4793 159.779 86.3477 159.936 86.1727 160.049C85.9993 160.161 85.7843 160.217 85.5277 160.217ZM85.5277 159.852C85.6827 159.852 85.8135 159.812 85.9202 159.734C86.0268 159.656 86.1077 159.543 86.1627 159.397C86.2177 159.25 86.2452 159.076 86.2452 158.874C86.2452 158.689 86.221 158.523 86.1727 158.377C86.1243 158.228 86.0468 158.111 85.9402 158.024C85.8352 157.937 85.6977 157.894 85.5277 157.894C85.371 157.894 85.2385 157.933 85.1302 158.012C85.0218 158.088 84.9393 158.2 84.8827 158.347C84.8277 158.493 84.8002 158.669 84.8002 158.874C84.8002 159.056 84.8252 159.221 84.8752 159.369C84.9252 159.517 85.0035 159.635 85.1102 159.722C85.2168 159.808 85.356 159.852 85.5277 159.852ZM88.5381 157.919H87.9556V159.527C87.9556 159.618 87.9648 159.686 87.9831 159.729C88.0031 159.771 88.0356 159.797 88.0806 159.809C88.1273 159.821 88.1906 159.827 88.2706 159.827H88.5531V160.137C88.5214 160.148 88.4731 160.158 88.4081 160.167C88.3448 160.175 88.2656 160.179 88.1706 160.179C87.9923 160.179 87.8539 160.155 87.7556 160.107C87.6573 160.058 87.5881 159.987 87.5481 159.892C87.5098 159.797 87.4906 159.68 87.4906 159.542V157.919H87.0706V157.582H87.5031L87.6156 156.829H87.9556V157.579H88.5381V157.919ZM89.9027 160.217C89.736 160.217 89.5885 160.187 89.4602 160.129C89.3318 160.069 89.231 159.983 89.1577 159.872C89.086 159.76 89.0502 159.625 89.0502 159.467C89.0502 159.18 89.1502 158.967 89.3502 158.827C89.5502 158.687 89.871 158.612 90.3127 158.602L90.7752 158.589V158.387C90.7752 158.228 90.7277 158.103 90.6327 158.012C90.5377 157.918 90.3902 157.872 90.1902 157.872C90.0418 157.873 89.911 157.908 89.7977 157.977C89.686 158.045 89.6135 158.157 89.5802 158.312H89.1727C89.1827 158.143 89.2302 158.002 89.3152 157.887C89.4002 157.77 89.5185 157.682 89.6702 157.622C89.8235 157.562 90.0043 157.532 90.2127 157.532C90.4377 157.532 90.6243 157.563 90.7727 157.627C90.9227 157.69 91.0343 157.783 91.1077 157.907C91.1827 158.03 91.2202 158.182 91.2202 158.362V160.167H90.8252L90.7927 159.682C90.6927 159.883 90.5652 160.023 90.4102 160.102C90.2568 160.178 90.0877 160.217 89.9027 160.217ZM90.0427 159.884C90.1293 159.884 90.2152 159.868 90.3002 159.837C90.3868 159.805 90.466 159.762 90.5377 159.709C90.6093 159.654 90.666 159.593 90.7077 159.527C90.751 159.458 90.7735 159.388 90.7752 159.317V158.874L90.3902 158.882C90.1935 158.885 90.0285 158.905 89.8952 158.942C89.7635 158.978 89.6643 159.036 89.5977 159.114C89.5327 159.192 89.5002 159.295 89.5002 159.422C89.5002 159.567 89.5502 159.68 89.6502 159.762C89.7518 159.843 89.8827 159.884 90.0427 159.884ZM92.6624 160.199C92.5224 160.199 92.4091 160.18 92.3224 160.142C92.2374 160.103 92.1716 160.052 92.1249 159.987C92.0799 159.922 92.0491 159.847 92.0324 159.764C92.0174 159.679 92.0099 159.592 92.0099 159.502V156.452H92.4649V159.457C92.4649 159.587 92.4899 159.684 92.5399 159.749C92.5916 159.814 92.6633 159.85 92.7549 159.857L92.8949 159.859V160.159C92.8566 160.171 92.8166 160.18 92.7749 160.187C92.7333 160.195 92.6958 160.199 92.6624 160.199ZM95.3665 160.217C95.1999 160.217 95.0524 160.187 94.924 160.129C94.7957 160.069 94.6949 159.983 94.6215 159.872C94.5499 159.76 94.514 159.625 94.514 159.467C94.514 159.18 94.614 158.967 94.814 158.827C95.014 158.687 95.3349 158.612 95.7765 158.602L96.239 158.589V158.387C96.239 158.228 96.1915 158.103 96.0965 158.012C96.0015 157.918 95.854 157.872 95.654 157.872C95.5057 157.873 95.3749 157.908 95.2615 157.977C95.1499 158.045 95.0774 158.157 95.044 158.312H94.6365C94.6465 158.143 94.694 158.002 94.779 157.887C94.864 157.77 94.9824 157.682 95.134 157.622C95.2874 157.562 95.4682 157.532 95.6765 157.532C95.9015 157.532 96.0882 157.563 96.2365 157.627C96.3865 157.69 96.4982 157.783 96.5715 157.907C96.6465 158.03 96.684 158.182 96.684 158.362V160.167H96.289L96.2565 159.682C96.1565 159.883 96.029 160.023 95.874 160.102C95.7207 160.178 95.5515 160.217 95.3665 160.217ZM95.5065 159.884C95.5932 159.884 95.679 159.868 95.764 159.837C95.8507 159.805 95.9299 159.762 96.0015 159.709C96.0732 159.654 96.1299 159.593 96.1715 159.527C96.2149 159.458 96.2374 159.388 96.239 159.317V158.874L95.854 158.882C95.6574 158.885 95.4924 158.905 95.359 158.942C95.2274 158.978 95.1282 159.036 95.0615 159.114C94.9965 159.192 94.964 159.295 94.964 159.422C94.964 159.567 95.014 159.68 95.114 159.762C95.2157 159.843 95.3465 159.884 95.5065 159.884ZM97.4738 160.167V157.582H97.9188V157.957C97.9905 157.843 98.0888 157.744 98.2138 157.659C98.3388 157.574 98.5013 157.532 98.7013 157.532C98.7946 157.532 98.8896 157.547 98.9863 157.579C99.0846 157.611 99.1746 157.658 99.2563 157.722C99.338 157.785 99.4013 157.862 99.4463 157.954C99.5263 157.827 99.6346 157.726 99.7713 157.649C99.908 157.571 100.062 157.532 100.234 157.532C100.324 157.532 100.418 157.546 100.516 157.574C100.615 157.601 100.705 157.649 100.789 157.719C100.874 157.787 100.943 157.883 100.996 158.007C101.05 158.128 101.076 158.285 101.076 158.477V160.167H100.611V158.522C100.611 158.365 100.586 158.244 100.536 158.159C100.486 158.072 100.42 158.012 100.339 157.977C100.259 157.942 100.173 157.924 100.081 157.924C100.001 157.924 99.9163 157.94 99.8263 157.972C99.7363 158.003 99.6596 158.057 99.5963 158.132C99.533 158.207 99.5013 158.309 99.5013 158.439V160.167H99.0413V158.387C99.0413 158.285 99.0138 158.2 98.9588 158.132C98.9055 158.063 98.838 158.012 98.7563 157.977C98.6763 157.942 98.5963 157.924 98.5163 157.924C98.428 157.924 98.3388 157.942 98.2488 157.977C98.1605 158.012 98.0855 158.067 98.0238 158.144C97.9638 158.219 97.9338 158.317 97.9338 158.439V160.167H97.4738ZM102.827 160.217C102.589 160.217 102.381 160.166 102.202 160.064C102.024 159.961 101.886 159.81 101.787 159.612C101.689 159.413 101.64 159.171 101.64 158.884C101.64 158.614 101.686 158.377 101.777 158.174C101.869 157.971 102.003 157.813 102.18 157.702C102.358 157.588 102.574 157.532 102.827 157.532C103.066 157.532 103.272 157.584 103.447 157.689C103.624 157.792 103.761 157.945 103.857 158.147C103.954 158.348 104.002 158.594 104.002 158.884C104.002 159.147 103.957 159.379 103.867 159.579C103.779 159.779 103.647 159.936 103.472 160.049C103.299 160.161 103.084 160.217 102.827 160.217ZM102.827 159.852C102.982 159.852 103.113 159.812 103.22 159.734C103.327 159.656 103.407 159.543 103.462 159.397C103.517 159.25 103.545 159.076 103.545 158.874C103.545 158.689 103.521 158.523 103.472 158.377C103.424 158.228 103.347 158.111 103.24 158.024C103.135 157.937 102.997 157.894 102.827 157.894C102.671 157.894 102.538 157.933 102.43 158.012C102.322 158.088 102.239 158.2 102.182 158.347C102.127 158.493 102.1 158.669 102.1 158.874C102.1 159.056 102.125 159.221 102.175 159.369C102.225 159.517 102.303 159.635 102.41 159.722C102.517 159.808 102.656 159.852 102.827 159.852ZM105.519 160.217C105.384 160.215 105.256 160.196 105.136 160.159C105.018 160.121 104.913 160.065 104.821 159.992C104.729 159.918 104.657 159.827 104.604 159.719C104.552 159.609 104.526 159.482 104.526 159.337V157.582H104.989V159.289C104.989 159.457 105.04 159.594 105.144 159.699C105.249 159.804 105.406 159.857 105.616 159.857C105.806 159.857 105.959 159.807 106.074 159.709C106.19 159.609 106.249 159.461 106.249 159.264V157.582H106.709V160.167H106.341L106.294 159.672C106.262 159.802 106.208 159.907 106.131 159.987C106.056 160.067 105.965 160.126 105.859 160.164C105.754 160.201 105.64 160.218 105.519 160.217ZM107.459 160.167V157.582H107.907V157.957C107.948 157.885 108.006 157.817 108.079 157.754C108.154 157.691 108.244 157.64 108.349 157.602C108.456 157.563 108.578 157.544 108.717 157.544C108.88 157.544 109.03 157.577 109.167 157.642C109.305 157.707 109.415 157.808 109.497 157.947C109.58 158.083 109.622 158.26 109.622 158.477V160.167H109.159V158.522C109.159 158.32 109.106 158.171 108.999 158.074C108.894 157.976 108.757 157.927 108.589 157.927C108.472 157.927 108.363 157.946 108.262 157.984C108.16 158.021 108.077 158.077 108.014 158.154C107.951 158.229 107.919 158.324 107.919 158.439V160.167H107.459ZM111.536 157.919H110.954V159.527C110.954 159.618 110.963 159.686 110.981 159.729C111.001 159.771 111.034 159.797 111.079 159.809C111.125 159.821 111.189 159.827 111.269 159.827H111.551V160.137C111.519 160.148 111.471 160.158 111.406 160.167C111.343 160.175 111.264 160.179 111.169 160.179C110.99 160.179 110.852 160.155 110.754 160.107C110.655 160.058 110.586 159.987 110.546 159.892C110.508 159.797 110.489 159.68 110.489 159.542V157.919H110.069V157.582H110.501L110.614 156.829H110.954V157.579H111.536V157.919ZM114.222 160.217C113.887 160.217 113.621 160.102 113.424 159.872C113.228 159.642 113.129 159.306 113.129 158.864C113.129 158.596 113.168 158.362 113.247 158.162C113.327 157.962 113.445 157.807 113.602 157.697C113.758 157.587 113.953 157.532 114.187 157.532C114.31 157.532 114.419 157.547 114.514 157.579C114.611 157.611 114.694 157.651 114.764 157.699C114.834 157.747 114.891 157.797 114.934 157.849C114.979 157.901 115.013 157.948 115.034 157.992V156.452H115.499V160.167H115.147L115.097 159.637C115.08 159.687 115.053 159.745 115.017 159.812C114.98 159.877 114.928 159.941 114.862 160.004C114.795 160.066 114.709 160.117 114.604 160.157C114.501 160.197 114.373 160.217 114.222 160.217ZM114.304 159.862C114.566 159.862 114.753 159.782 114.864 159.624C114.978 159.464 115.034 159.203 115.034 158.842C115.033 158.64 115.007 158.468 114.957 158.327C114.908 158.185 114.832 158.077 114.727 158.004C114.623 157.929 114.486 157.892 114.314 157.892C114.101 157.892 113.928 157.967 113.794 158.119C113.661 158.271 113.594 158.512 113.594 158.842C113.594 159.165 113.654 159.416 113.774 159.594C113.896 159.772 114.073 159.862 114.304 159.862ZM116.593 158.982C116.593 159.145 116.62 159.293 116.673 159.427C116.728 159.558 116.81 159.663 116.92 159.742C117.032 159.82 117.171 159.859 117.338 159.859C117.503 159.859 117.645 159.821 117.763 159.744C117.883 159.667 117.96 159.557 117.993 159.412H118.43C118.399 159.587 118.329 159.734 118.22 159.854C118.112 159.974 117.981 160.065 117.828 160.127C117.675 160.187 117.515 160.217 117.348 160.217C117.106 160.217 116.894 160.164 116.71 160.059C116.527 159.954 116.384 159.803 116.28 159.607C116.177 159.41 116.125 159.174 116.125 158.899C116.125 158.627 116.172 158.389 116.265 158.184C116.359 157.979 116.494 157.819 116.67 157.704C116.849 157.589 117.063 157.532 117.313 157.532C117.556 157.532 117.762 157.584 117.93 157.689C118.099 157.794 118.226 157.942 118.313 158.134C118.401 158.324 118.445 158.55 118.445 158.812V158.982H116.593ZM116.595 158.669H118C118 158.521 117.975 158.387 117.925 158.269C117.875 158.149 117.799 158.055 117.695 157.987C117.594 157.917 117.465 157.882 117.31 157.882C117.149 157.882 117.015 157.921 116.908 157.999C116.803 158.076 116.724 158.175 116.67 158.297C116.619 158.417 116.594 158.541 116.595 158.669ZM120.013 160.217C119.678 160.217 119.412 160.102 119.215 159.872C119.019 159.642 118.92 159.306 118.92 158.864C118.92 158.596 118.959 158.362 119.038 158.162C119.118 157.962 119.236 157.807 119.393 157.697C119.549 157.587 119.744 157.532 119.978 157.532C120.101 157.532 120.21 157.547 120.305 157.579C120.402 157.611 120.485 157.651 120.555 157.699C120.625 157.747 120.682 157.797 120.725 157.849C120.77 157.901 120.804 157.948 120.825 157.992V156.452H121.29V160.167H120.938L120.888 159.637C120.871 159.687 120.844 159.745 120.808 159.812C120.771 159.877 120.719 159.941 120.653 160.004C120.586 160.066 120.5 160.117 120.395 160.157C120.292 160.197 120.164 160.217 120.013 160.217ZM120.095 159.862C120.357 159.862 120.544 159.782 120.655 159.624C120.769 159.464 120.825 159.203 120.825 158.842C120.824 158.64 120.798 158.468 120.748 158.327C120.699 158.185 120.623 158.077 120.518 158.004C120.414 157.929 120.277 157.892 120.105 157.892C119.892 157.892 119.719 157.967 119.585 158.119C119.452 158.271 119.385 158.512 119.385 158.842C119.385 159.165 119.445 159.416 119.565 159.594C119.687 159.772 119.864 159.862 120.095 159.862ZM123.004 160.217C122.869 160.215 122.741 160.196 122.621 160.159C122.503 160.121 122.398 160.065 122.306 159.992C122.215 159.918 122.142 159.827 122.089 159.719C122.037 159.609 122.011 159.482 122.011 159.337V157.582H122.474V159.289C122.474 159.457 122.526 159.594 122.629 159.699C122.734 159.804 122.891 159.857 123.101 159.857C123.291 159.857 123.444 159.807 123.559 159.709C123.676 159.609 123.734 159.461 123.734 159.264V157.582H124.194V160.167H123.826L123.779 159.672C123.747 159.802 123.693 159.907 123.616 159.987C123.541 160.067 123.451 160.126 123.344 160.164C123.239 160.201 123.126 160.218 123.004 160.217ZM125.945 157.532C126.13 157.532 126.297 157.567 126.445 157.639C126.594 157.709 126.714 157.809 126.808 157.939C126.903 158.069 126.962 158.222 126.985 158.399H126.575C126.56 158.309 126.525 158.227 126.47 158.152C126.417 158.077 126.346 158.017 126.258 157.972C126.169 157.927 126.066 157.904 125.948 157.904C125.726 157.904 125.546 157.984 125.408 158.144C125.269 158.304 125.2 158.549 125.2 158.879C125.2 159.177 125.264 159.417 125.39 159.597C125.519 159.775 125.707 159.864 125.955 159.864C126.074 159.864 126.176 159.842 126.263 159.797C126.351 159.75 126.422 159.689 126.475 159.614C126.529 159.537 126.563 159.456 126.578 159.369H126.98C126.959 159.542 126.9 159.692 126.805 159.819C126.71 159.946 126.589 160.044 126.44 160.114C126.294 160.182 126.129 160.217 125.945 160.217C125.714 160.217 125.508 160.166 125.328 160.064C125.149 159.962 125.009 159.812 124.908 159.614C124.806 159.416 124.755 159.172 124.755 158.884C124.755 158.614 124.801 158.378 124.893 158.177C124.986 157.973 125.121 157.815 125.298 157.702C125.476 157.588 125.692 157.532 125.945 157.532ZM128.841 157.919H128.258V159.527C128.258 159.618 128.268 159.686 128.286 159.729C128.306 159.771 128.338 159.797 128.383 159.809C128.43 159.821 128.493 159.827 128.573 159.827H128.856V160.137C128.824 160.148 128.776 160.158 128.711 160.167C128.648 160.175 128.568 160.179 128.473 160.179C128.295 160.179 128.157 160.155 128.058 160.107C127.96 160.058 127.891 159.987 127.851 159.892C127.813 159.797 127.793 159.68 127.793 159.542V157.919H127.373V157.582H127.806L127.918 156.829H128.258V157.579H128.841V157.919ZM129.767 158.982C129.767 159.145 129.793 159.293 129.847 159.427C129.902 159.558 129.984 159.663 130.094 159.742C130.206 159.82 130.345 159.859 130.512 159.859C130.677 159.859 130.818 159.821 130.937 159.744C131.057 159.667 131.133 159.557 131.167 159.412H131.604C131.573 159.587 131.503 159.734 131.394 159.854C131.286 159.974 131.155 160.065 131.002 160.127C130.848 160.187 130.688 160.217 130.522 160.217C130.28 160.217 130.068 160.164 129.884 160.059C129.701 159.954 129.558 159.803 129.454 159.607C129.351 159.41 129.299 159.174 129.299 158.899C129.299 158.627 129.346 158.389 129.439 158.184C129.533 157.979 129.668 157.819 129.844 157.704C130.023 157.589 130.237 157.532 130.487 157.532C130.73 157.532 130.936 157.584 131.104 157.689C131.273 157.794 131.4 157.942 131.487 158.134C131.575 158.324 131.619 158.55 131.619 158.812V158.982H129.767ZM129.769 158.669H131.174C131.174 158.521 131.149 158.387 131.099 158.269C131.049 158.149 130.973 158.055 130.869 157.987C130.768 157.917 130.639 157.882 130.484 157.882C130.323 157.882 130.188 157.921 130.082 157.999C129.977 158.076 129.898 158.175 129.844 158.297C129.793 158.417 129.768 158.541 129.769 158.669ZM133.187 160.217C132.852 160.217 132.586 160.102 132.389 159.872C132.192 159.642 132.094 159.306 132.094 158.864C132.094 158.596 132.133 158.362 132.212 158.162C132.292 157.962 132.41 157.807 132.567 157.697C132.723 157.587 132.918 157.532 133.152 157.532C133.275 157.532 133.384 157.547 133.479 157.579C133.576 157.611 133.659 157.651 133.729 157.699C133.799 157.747 133.856 157.797 133.899 157.849C133.944 157.901 133.977 157.948 133.999 157.992V156.452H134.464V160.167H134.112L134.062 159.637C134.045 159.687 134.018 159.745 133.982 159.812C133.945 159.877 133.893 159.941 133.827 160.004C133.76 160.066 133.674 160.117 133.569 160.157C133.466 160.197 133.338 160.217 133.187 160.217ZM133.269 159.862C133.531 159.862 133.717 159.782 133.829 159.624C133.942 159.464 133.999 159.203 133.999 158.842C133.997 158.64 133.972 158.468 133.922 158.327C133.873 158.185 133.797 158.077 133.692 158.004C133.588 157.929 133.451 157.892 133.279 157.892C133.066 157.892 132.892 157.967 132.759 158.119C132.626 158.271 132.559 158.512 132.559 158.842C132.559 159.165 132.619 159.416 132.739 159.594C132.861 159.772 133.037 159.862 133.269 159.862ZM137.84 157.582V157.919H137.213V160.167H136.748V157.919H136.203V157.582H136.748V157.182C136.748 156.977 136.8 156.821 136.905 156.714C137.01 156.606 137.167 156.552 137.375 156.552H137.863L137.865 156.879H137.478C137.373 156.879 137.301 156.907 137.263 156.964C137.224 157.021 137.205 157.107 137.205 157.222V157.582H137.84ZM138.411 160.167V157.582H138.851V158.079C138.895 157.956 138.955 157.854 139.034 157.774C139.112 157.692 139.201 157.632 139.301 157.592C139.403 157.552 139.508 157.532 139.616 157.532C139.655 157.532 139.692 157.534 139.729 157.539C139.765 157.544 139.794 157.552 139.814 157.564V158.012C139.789 158 139.756 157.992 139.716 157.989C139.678 157.984 139.645 157.982 139.619 157.982C139.515 157.975 139.419 157.982 139.329 158.002C139.239 158.02 139.16 158.052 139.091 158.099C139.023 158.146 138.969 158.207 138.929 158.284C138.89 158.359 138.871 158.451 138.871 158.559V160.167H138.411ZM141.324 160.217C141.085 160.217 140.877 160.166 140.699 160.064C140.52 159.961 140.382 159.81 140.284 159.612C140.185 159.413 140.136 159.171 140.136 158.884C140.136 158.614 140.182 158.377 140.274 158.174C140.365 157.971 140.499 157.813 140.676 157.702C140.854 157.588 141.07 157.532 141.324 157.532C141.562 157.532 141.769 157.584 141.944 157.689C142.12 157.792 142.257 157.945 142.354 158.147C142.45 158.348 142.499 158.594 142.499 158.884C142.499 159.147 142.454 159.379 142.364 159.579C142.275 159.779 142.144 159.936 141.969 160.049C141.795 160.161 141.58 160.217 141.324 160.217ZM141.324 159.852C141.479 159.852 141.609 159.812 141.716 159.734C141.823 159.656 141.904 159.543 141.959 159.397C142.014 159.25 142.041 159.076 142.041 158.874C142.041 158.689 142.017 158.523 141.969 158.377C141.92 158.228 141.843 158.111 141.736 158.024C141.631 157.937 141.494 157.894 141.324 157.894C141.167 157.894 141.034 157.933 140.926 158.012C140.818 158.088 140.735 158.2 140.679 158.347C140.624 158.493 140.596 158.669 140.596 158.874C140.596 159.056 140.621 159.221 140.671 159.369C140.721 159.517 140.799 159.635 140.906 159.722C141.013 159.808 141.152 159.852 141.324 159.852ZM143.104 160.167V157.582H143.549V157.957C143.62 157.843 143.719 157.744 143.844 157.659C143.969 157.574 144.131 157.532 144.331 157.532C144.425 157.532 144.52 157.547 144.616 157.579C144.715 157.611 144.805 157.658 144.886 157.722C144.968 157.785 145.031 157.862 145.076 157.954C145.156 157.827 145.265 157.726 145.401 157.649C145.538 157.571 145.692 157.532 145.864 157.532C145.954 157.532 146.048 157.546 146.146 157.574C146.245 157.601 146.335 157.649 146.419 157.719C146.504 157.787 146.573 157.883 146.626 158.007C146.68 158.128 146.706 158.285 146.706 158.477V160.167H146.241V158.522C146.241 158.365 146.216 158.244 146.166 158.159C146.116 158.072 146.05 158.012 145.969 157.977C145.889 157.942 145.803 157.924 145.711 157.924C145.631 157.924 145.546 157.94 145.456 157.972C145.366 158.003 145.29 158.057 145.226 158.132C145.163 158.207 145.131 158.309 145.131 158.439V160.167H144.671V158.387C144.671 158.285 144.644 158.2 144.589 158.132C144.535 158.063 144.468 158.012 144.386 157.977C144.306 157.942 144.226 157.924 144.146 157.924C144.058 157.924 143.969 157.942 143.879 157.977C143.79 158.012 143.715 158.067 143.654 158.144C143.594 158.219 143.564 158.317 143.564 158.439V160.167H143.104ZM148.808 160.992C148.656 160.992 148.552 160.981 148.495 160.959C148.439 160.937 148.41 160.927 148.41 160.927V160.627L148.673 160.632C148.77 160.635 148.85 160.628 148.913 160.612C148.976 160.595 149.027 160.572 149.065 160.544C149.104 160.516 149.133 160.484 149.153 160.449C149.175 160.414 149.192 160.381 149.205 160.349L149.295 160.104L148.285 157.582H148.753L149.515 159.577L150.273 157.582H150.725L149.635 160.362C149.569 160.525 149.494 160.652 149.41 160.744C149.329 160.836 149.237 160.9 149.135 160.937C149.035 160.973 148.926 160.992 148.808 160.992ZM152.154 160.217C151.915 160.217 151.707 160.166 151.529 160.064C151.35 159.961 151.212 159.81 151.114 159.612C151.015 159.413 150.966 159.171 150.966 158.884C150.966 158.614 151.012 158.377 151.104 158.174C151.195 157.971 151.329 157.813 151.506 157.702C151.684 157.588 151.9 157.532 152.154 157.532C152.392 157.532 152.599 157.584 152.774 157.689C152.95 157.792 153.087 157.945 153.184 158.147C153.28 158.348 153.329 158.594 153.329 158.884C153.329 159.147 153.284 159.379 153.194 159.579C153.105 159.779 152.974 159.936 152.799 160.049C152.625 160.161 152.41 160.217 152.154 160.217ZM152.154 159.852C152.309 159.852 152.439 159.812 152.546 159.734C152.653 159.656 152.734 159.543 152.789 159.397C152.844 159.25 152.871 159.076 152.871 158.874C152.871 158.689 152.847 158.523 152.799 158.377C152.75 158.228 152.673 158.111 152.566 158.024C152.461 157.937 152.324 157.894 152.154 157.894C151.997 157.894 151.864 157.933 151.756 158.012C151.648 158.088 151.565 158.2 151.509 158.347C151.454 158.493 151.426 158.669 151.426 158.874C151.426 159.056 151.451 159.221 151.501 159.369C151.551 159.517 151.629 159.635 151.736 159.722C151.843 159.808 151.982 159.852 152.154 159.852ZM154.845 160.217C154.71 160.215 154.582 160.196 154.462 160.159C154.344 160.121 154.239 160.065 154.147 159.992C154.056 159.918 153.983 159.827 153.93 159.719C153.878 159.609 153.852 159.482 153.852 159.337V157.582H154.315V159.289C154.315 159.457 154.366 159.594 154.47 159.699C154.575 159.804 154.732 159.857 154.942 159.857C155.132 159.857 155.285 159.807 155.4 159.709C155.516 159.609 155.575 159.461 155.575 159.264V157.582H156.035V160.167H155.667L155.62 159.672C155.588 159.802 155.534 159.907 155.457 159.987C155.382 160.067 155.291 160.126 155.185 160.164C155.08 160.201 154.966 160.218 154.845 160.217ZM156.785 160.167V157.582H157.225V158.079C157.269 157.956 157.329 157.854 157.408 157.774C157.486 157.692 157.575 157.632 157.675 157.592C157.777 157.552 157.882 157.532 157.99 157.532C158.029 157.532 158.066 157.534 158.103 157.539C158.139 157.544 158.168 157.552 158.188 157.564V158.012C158.163 158 158.13 157.992 158.09 157.989C158.052 157.984 158.019 157.982 157.993 157.982C157.889 157.975 157.793 157.982 157.703 158.002C157.613 158.02 157.534 158.052 157.465 158.099C157.397 158.146 157.343 158.207 157.303 158.284C157.264 158.359 157.245 158.451 157.245 158.559V160.167H156.785ZM73.5111 167.217C73.3444 167.217 73.1969 167.187 73.0686 167.129C72.9402 167.069 72.8394 166.983 72.7661 166.872C72.6944 166.76 72.6586 166.625 72.6586 166.467C72.6586 166.18 72.7586 165.967 72.9586 165.827C73.1586 165.687 73.4794 165.612 73.9211 165.602L74.3836 165.589V165.387C74.3836 165.228 74.3361 165.103 74.2411 165.012C74.1461 164.918 73.9986 164.872 73.7986 164.872C73.6502 164.873 73.5194 164.908 73.4061 164.977C73.2944 165.045 73.2219 165.157 73.1886 165.312H72.7811C72.7911 165.143 72.8386 165.002 72.9236 164.887C73.0086 164.77 73.1269 164.682 73.2786 164.622C73.4319 164.562 73.6127 164.532 73.8211 164.532C74.0461 164.532 74.2327 164.563 74.3811 164.627C74.5311 164.69 74.6427 164.783 74.7161 164.907C74.7911 165.03 74.8286 165.182 74.8286 165.362V167.167H74.4336L74.4011 166.682C74.3011 166.883 74.1736 167.023 74.0186 167.102C73.8652 167.178 73.6961 167.217 73.5111 167.217ZM73.6511 166.884C73.7377 166.884 73.8236 166.868 73.9086 166.837C73.9952 166.805 74.0744 166.762 74.1461 166.709C74.2177 166.654 74.2744 166.593 74.3161 166.527C74.3594 166.458 74.3819 166.388 74.3836 166.317V165.874L73.9986 165.882C73.8019 165.885 73.6369 165.905 73.5036 165.942C73.3719 165.978 73.2727 166.036 73.2061 166.114C73.1411 166.192 73.1086 166.295 73.1086 166.422C73.1086 166.567 73.1586 166.68 73.2586 166.762C73.3602 166.843 73.4911 166.884 73.6511 166.884ZM76.6483 164.532C76.8333 164.532 77 164.567 77.1483 164.639C77.2967 164.709 77.4175 164.809 77.5108 164.939C77.6058 165.069 77.665 165.222 77.6883 165.399H77.2783C77.2633 165.309 77.2283 165.227 77.1733 165.152C77.12 165.077 77.0492 165.017 76.9608 164.972C76.8725 164.927 76.7692 164.904 76.6508 164.904C76.4292 164.904 76.2492 164.984 76.1108 165.144C75.9725 165.304 75.9033 165.549 75.9033 165.879C75.9033 166.177 75.9667 166.417 76.0933 166.597C76.2217 166.775 76.41 166.864 76.6583 166.864C76.7767 166.864 76.8792 166.842 76.9658 166.797C77.0542 166.75 77.125 166.689 77.1783 166.614C77.2317 166.537 77.2658 166.456 77.2808 166.369H77.6833C77.6617 166.542 77.6033 166.692 77.5083 166.819C77.4133 166.946 77.2917 167.044 77.1433 167.114C76.9967 167.182 76.8317 167.217 76.6483 167.217C76.4167 167.217 76.2108 167.166 76.0308 167.064C75.8525 166.962 75.7125 166.812 75.6108 166.614C75.5092 166.416 75.4583 166.172 75.4583 165.884C75.4583 165.614 75.5042 165.378 75.5958 165.177C75.6892 164.973 75.8242 164.815 76.0008 164.702C76.1792 164.588 76.395 164.532 76.6483 164.532ZM79.3437 164.532C79.5287 164.532 79.6953 164.567 79.8437 164.639C79.992 164.709 80.1128 164.809 80.2062 164.939C80.3012 165.069 80.3603 165.222 80.3837 165.399H79.9737C79.9587 165.309 79.9237 165.227 79.8687 165.152C79.8153 165.077 79.7445 165.017 79.6562 164.972C79.5678 164.927 79.4645 164.904 79.3462 164.904C79.1245 164.904 78.9445 164.984 78.8062 165.144C78.6678 165.304 78.5987 165.549 78.5987 165.879C78.5987 166.177 78.662 166.417 78.7887 166.597C78.917 166.775 79.1053 166.864 79.3537 166.864C79.472 166.864 79.5745 166.842 79.6612 166.797C79.7495 166.75 79.8203 166.689 79.8737 166.614C79.927 166.537 79.9612 166.456 79.9762 166.369H80.3787C80.357 166.542 80.2987 166.692 80.2037 166.819C80.1087 166.946 79.987 167.044 79.8387 167.114C79.692 167.182 79.527 167.217 79.3437 167.217C79.112 167.217 78.9062 167.166 78.7262 167.064C78.5478 166.962 78.4078 166.812 78.3062 166.614C78.2045 166.416 78.1537 166.172 78.1537 165.884C78.1537 165.614 78.1995 165.378 78.2912 165.177C78.3845 164.973 78.5195 164.815 78.6962 164.702C78.8745 164.588 79.0903 164.532 79.3437 164.532ZM82.0365 167.217C81.7981 167.217 81.5898 167.166 81.4115 167.064C81.2331 166.961 81.0948 166.81 80.9965 166.612C80.8981 166.413 80.849 166.171 80.849 165.884C80.849 165.614 80.8948 165.377 80.9865 165.174C81.0781 164.971 81.2123 164.813 81.389 164.702C81.5673 164.588 81.7831 164.532 82.0365 164.532C82.2748 164.532 82.4815 164.584 82.6565 164.689C82.8331 164.792 82.9698 164.945 83.0665 165.147C83.1631 165.348 83.2115 165.594 83.2115 165.884C83.2115 166.147 83.1665 166.379 83.0765 166.579C82.9881 166.779 82.8565 166.936 82.6815 167.049C82.5081 167.161 82.2931 167.217 82.0365 167.217ZM82.0365 166.852C82.1915 166.852 82.3223 166.812 82.429 166.734C82.5356 166.656 82.6165 166.543 82.6715 166.397C82.7265 166.25 82.754 166.076 82.754 165.874C82.754 165.689 82.7298 165.523 82.6815 165.377C82.6331 165.228 82.5556 165.111 82.449 165.024C82.344 164.937 82.2065 164.894 82.0365 164.894C81.8798 164.894 81.7473 164.933 81.639 165.012C81.5306 165.088 81.4481 165.2 81.3915 165.347C81.3365 165.493 81.309 165.669 81.309 165.874C81.309 166.056 81.334 166.221 81.384 166.369C81.434 166.517 81.5123 166.635 81.619 166.722C81.7256 166.808 81.8648 166.852 82.0365 166.852ZM84.7275 167.217C84.5925 167.215 84.465 167.196 84.345 167.159C84.2267 167.121 84.1217 167.065 84.03 166.992C83.9384 166.918 83.8659 166.827 83.8125 166.719C83.7609 166.609 83.735 166.482 83.735 166.337V164.582H84.1975V166.289C84.1975 166.457 84.2492 166.594 84.3525 166.699C84.4575 166.804 84.615 166.857 84.825 166.857C85.015 166.857 85.1675 166.807 85.2825 166.709C85.3992 166.609 85.4575 166.461 85.4575 166.264V164.582H85.9175V167.167H85.55L85.5025 166.672C85.4709 166.802 85.4167 166.907 85.34 166.987C85.265 167.067 85.1742 167.126 85.0675 167.164C84.9625 167.201 84.8492 167.218 84.7275 167.217ZM86.6681 167.167V164.582H87.1156V164.957C87.1573 164.885 87.2148 164.817 87.2881 164.754C87.3631 164.691 87.4531 164.64 87.5581 164.602C87.6648 164.563 87.7873 164.544 87.9256 164.544C88.089 164.544 88.239 164.577 88.3756 164.642C88.514 164.707 88.624 164.808 88.7056 164.947C88.789 165.083 88.8306 165.26 88.8306 165.477V167.167H88.3681V165.522C88.3681 165.32 88.3148 165.171 88.2081 165.074C88.1031 164.976 87.9665 164.927 87.7981 164.927C87.6815 164.927 87.5723 164.946 87.4706 164.984C87.369 165.021 87.2865 165.077 87.2231 165.154C87.1598 165.229 87.1281 165.324 87.1281 165.439V167.167H86.6681ZM90.7451 164.919H90.1626V166.527C90.1626 166.618 90.1718 166.686 90.1901 166.729C90.2101 166.771 90.2426 166.797 90.2876 166.809C90.3343 166.821 90.3976 166.827 90.4776 166.827H90.7601V167.137C90.7285 167.148 90.6801 167.158 90.6151 167.167C90.5518 167.175 90.4726 167.179 90.3776 167.179C90.1993 167.179 90.061 167.155 89.9626 167.107C89.8643 167.058 89.7951 166.987 89.7551 166.892C89.7168 166.797 89.6976 166.68 89.6976 166.542V164.919H89.2776V164.582H89.7101L89.8226 163.829H90.1626V164.579H90.7451V164.919ZM93.0617 164.582V167.167H92.6142V164.582H93.0617ZM93.0717 163.554V164.034H92.5992V163.554H93.0717ZM94.7927 167.217C94.6127 167.217 94.4452 167.189 94.2902 167.134C94.1368 167.077 94.0093 166.99 93.9077 166.872C93.806 166.752 93.7418 166.599 93.7152 166.414H94.1352C94.1585 166.516 94.2002 166.601 94.2602 166.669C94.3218 166.736 94.3985 166.787 94.4902 166.822C94.5818 166.855 94.6818 166.872 94.7902 166.872C94.9635 166.872 95.1035 166.839 95.2102 166.774C95.3168 166.709 95.3702 166.609 95.3702 166.474C95.3702 166.379 95.3418 166.303 95.2852 166.247C95.2302 166.188 95.1443 166.146 95.0277 166.119L94.4927 165.987C94.2843 165.937 94.1177 165.858 93.9927 165.752C93.8677 165.645 93.8052 165.496 93.8052 165.304C93.8035 165.152 93.8393 165.019 93.9127 164.904C93.986 164.789 94.096 164.698 94.2427 164.632C94.3893 164.565 94.5718 164.532 94.7902 164.532C95.0702 164.532 95.296 164.595 95.4677 164.722C95.641 164.847 95.731 165.031 95.7377 165.274H95.3302C95.3135 165.151 95.2577 165.053 95.1627 164.982C95.0693 164.908 94.9435 164.872 94.7852 164.872C94.6202 164.872 94.486 164.905 94.3827 164.972C94.2793 165.037 94.2277 165.138 94.2277 165.277C94.2277 165.368 94.2643 165.441 94.3377 165.494C94.411 165.546 94.5193 165.589 94.6627 165.624L95.1802 165.754C95.3002 165.786 95.3985 165.827 95.4752 165.879C95.5535 165.931 95.6152 165.988 95.6602 166.052C95.7068 166.115 95.7393 166.182 95.7577 166.252C95.7777 166.32 95.7877 166.386 95.7877 166.449C95.7877 166.607 95.7477 166.744 95.6677 166.859C95.5893 166.972 95.476 167.061 95.3277 167.124C95.181 167.186 95.0027 167.217 94.7927 167.217ZM100.408 165.789C100.408 166.081 100.361 166.334 100.266 166.549C100.171 166.762 100.017 166.927 99.8033 167.044C99.5917 167.159 99.3108 167.217 98.9608 167.217C98.6092 167.217 98.3275 167.158 98.1158 167.042C97.9042 166.923 97.7508 166.756 97.6558 166.539C97.5625 166.322 97.5158 166.064 97.5158 165.764V163.552H98.2583V165.819C98.2583 166.089 98.3233 166.287 98.4533 166.412C98.5833 166.535 98.7525 166.597 98.9608 166.597C99.0992 166.597 99.2217 166.57 99.3283 166.517C99.435 166.462 99.5183 166.377 99.5783 166.264C99.64 166.149 99.6708 166.001 99.6708 165.819V163.552H100.408V165.789ZM102.492 167.217C102.313 167.217 102.138 167.194 101.967 167.149C101.795 167.104 101.638 167.037 101.497 166.947C101.355 166.857 101.237 166.744 101.144 166.609C101.052 166.474 100.997 166.316 100.979 166.134H101.727C101.752 166.244 101.799 166.337 101.869 166.412C101.939 166.487 102.027 166.544 102.134 166.584C102.241 166.624 102.359 166.644 102.489 166.644C102.622 166.644 102.744 166.627 102.854 166.594C102.964 166.561 103.052 166.511 103.119 166.444C103.186 166.376 103.219 166.291 103.219 166.189C103.219 166.097 103.192 166.022 103.137 165.964C103.083 165.906 103.011 165.858 102.919 165.822C102.827 165.785 102.723 165.755 102.607 165.732L101.982 165.604C101.708 165.552 101.492 165.444 101.332 165.279C101.172 165.112 101.089 164.891 101.084 164.614C101.082 164.387 101.142 164.192 101.264 164.027C101.387 163.86 101.554 163.732 101.764 163.642C101.976 163.552 102.212 163.507 102.474 163.507C102.786 163.507 103.047 163.556 103.259 163.654C103.472 163.751 103.634 163.882 103.744 164.049C103.856 164.214 103.913 164.398 103.917 164.602H103.184C103.171 164.475 103.132 164.374 103.069 164.299C103.006 164.224 102.924 164.17 102.824 164.137C102.726 164.103 102.613 164.087 102.487 164.087C102.39 164.087 102.302 164.097 102.222 164.119C102.143 164.141 102.077 164.172 102.022 164.212C101.967 164.25 101.924 164.296 101.894 164.349C101.864 164.402 101.849 164.462 101.849 164.529C101.849 164.634 101.884 164.719 101.954 164.784C102.024 164.849 102.155 164.902 102.347 164.944L102.967 165.072C103.188 165.115 103.364 165.179 103.494 165.264C103.626 165.349 103.724 165.445 103.789 165.552C103.856 165.658 103.899 165.767 103.919 165.879C103.941 165.989 103.952 166.091 103.952 166.184C103.952 166.379 103.89 166.555 103.767 166.712C103.645 166.867 103.475 166.99 103.257 167.082C103.038 167.172 102.783 167.217 102.492 167.217ZM107.023 167.217C106.59 167.217 106.238 167.13 105.968 166.957C105.698 166.782 105.543 166.512 105.503 166.149L106.263 166.134C106.303 166.299 106.389 166.425 106.52 166.512C106.654 166.597 106.82 166.639 107.02 166.639C107.14 166.639 107.246 166.62 107.338 166.582C107.431 166.542 107.505 166.488 107.558 166.422C107.611 166.353 107.638 166.276 107.638 166.189C107.638 166.056 107.595 165.957 107.51 165.892C107.425 165.825 107.295 165.772 107.118 165.732L106.525 165.604C106.25 165.549 106.03 165.44 105.863 165.277C105.698 165.112 105.614 164.891 105.61 164.614C105.609 164.387 105.67 164.192 105.793 164.027C105.918 163.86 106.087 163.732 106.3 163.642C106.515 163.552 106.756 163.507 107.023 163.507C107.296 163.507 107.532 163.556 107.73 163.654C107.93 163.751 108.084 163.882 108.19 164.047C108.299 164.21 108.351 164.391 108.348 164.589L107.61 164.602C107.587 164.442 107.534 164.316 107.45 164.224C107.367 164.132 107.229 164.087 107.035 164.087C106.935 164.087 106.846 164.097 106.768 164.119C106.69 164.141 106.622 164.172 106.565 164.212C106.509 164.25 106.465 164.296 106.435 164.349C106.407 164.402 106.393 164.462 106.393 164.529C106.393 164.634 106.428 164.717 106.498 164.779C106.57 164.839 106.704 164.895 106.9 164.947L107.483 165.089C107.811 165.167 108.048 165.302 108.193 165.492C108.34 165.682 108.413 165.912 108.413 166.184C108.413 166.392 108.355 166.574 108.24 166.729C108.127 166.884 107.966 167.004 107.758 167.089C107.55 167.174 107.305 167.217 107.023 167.217ZM106.71 163.034H107.343V163.684H106.71V163.034ZM106.698 166.994H107.328V167.644H106.698V166.994ZM109.519 167.167V164.459H108.874V164.047C109.08 164.047 109.247 164.027 109.374 163.989C109.502 163.949 109.598 163.892 109.661 163.819C109.725 163.744 109.762 163.655 109.774 163.552H110.259V167.167H109.519ZM112.412 163.502C112.842 163.502 113.182 163.662 113.43 163.984C113.678 164.304 113.802 164.765 113.802 165.367C113.802 165.965 113.68 166.424 113.435 166.744C113.19 167.062 112.849 167.222 112.412 167.222C111.974 167.222 111.632 167.062 111.385 166.744C111.14 166.426 111.017 165.967 111.017 165.369C111.017 164.969 111.074 164.63 111.187 164.352C111.301 164.073 111.462 163.862 111.67 163.719C111.878 163.574 112.126 163.502 112.412 163.502ZM112.412 166.624C112.627 166.624 112.785 166.528 112.885 166.337C112.985 166.143 113.035 165.821 113.035 165.369C113.035 164.907 112.984 164.577 112.882 164.377C112.781 164.177 112.623 164.077 112.41 164.077C112.197 164.077 112.037 164.177 111.932 164.379C111.829 164.581 111.777 164.911 111.777 165.369C111.777 165.819 111.829 166.141 111.932 166.334C112.036 166.527 112.196 166.624 112.412 166.624ZM115.863 163.552H116.58V165.754H117.138V166.367H116.58V167.167H115.878L115.88 166.367H114.215V165.767L115.863 163.552ZM114.89 165.754H115.88V164.429L114.89 165.754ZM117.529 167.167V166.372H118.329V167.167H117.529ZM120.177 167.222C119.952 167.222 119.742 167.178 119.547 167.092C119.352 167.005 119.193 166.883 119.069 166.727C118.946 166.568 118.877 166.383 118.862 166.172H119.557C119.587 166.312 119.654 166.426 119.757 166.514C119.86 166.601 119.99 166.644 120.147 166.644C120.32 166.644 120.472 166.603 120.602 166.522C120.734 166.44 120.832 166.31 120.897 166.132C120.964 165.953 120.987 165.72 120.967 165.432C120.92 165.52 120.855 165.597 120.772 165.664C120.69 165.729 120.594 165.78 120.484 165.817C120.374 165.852 120.252 165.869 120.117 165.869C119.872 165.869 119.654 165.823 119.464 165.732C119.276 165.638 119.128 165.507 119.019 165.337C118.913 165.165 118.859 164.962 118.859 164.727C118.859 164.49 118.916 164.279 119.029 164.094C119.143 163.909 119.301 163.764 119.504 163.659C119.708 163.554 119.946 163.502 120.219 163.502C120.526 163.502 120.79 163.575 121.012 163.722C121.235 163.867 121.406 164.073 121.524 164.342C121.644 164.608 121.704 164.922 121.704 165.284C121.704 165.716 121.643 166.076 121.519 166.364C121.398 166.651 121.223 166.866 120.994 167.009C120.766 167.151 120.494 167.222 120.177 167.222ZM120.242 165.289C120.344 165.289 120.442 165.267 120.537 165.222C120.634 165.175 120.713 165.117 120.774 165.047C120.836 164.977 120.867 164.904 120.867 164.829C120.869 164.667 120.843 164.529 120.789 164.414C120.738 164.297 120.664 164.208 120.569 164.147C120.476 164.085 120.367 164.054 120.242 164.054C120.127 164.054 120.024 164.081 119.934 164.134C119.844 164.187 119.774 164.262 119.722 164.359C119.67 164.456 119.644 164.567 119.644 164.694C119.644 164.882 119.699 165.029 119.809 165.134C119.919 165.237 120.064 165.289 120.242 165.289ZM123.526 163.502C123.956 163.502 124.295 163.662 124.543 163.984C124.791 164.304 124.916 164.765 124.916 165.367C124.916 165.965 124.793 166.424 124.548 166.744C124.303 167.062 123.962 167.222 123.526 167.222C123.087 167.222 122.745 167.062 122.498 166.744C122.253 166.426 122.131 165.967 122.131 165.369C122.131 164.969 122.187 164.63 122.301 164.352C122.414 164.073 122.575 163.862 122.783 163.719C122.991 163.574 123.239 163.502 123.526 163.502ZM123.526 166.624C123.741 166.624 123.898 166.528 123.998 166.337C124.098 166.143 124.148 165.821 124.148 165.369C124.148 164.907 124.097 164.577 123.996 164.377C123.894 164.177 123.736 164.077 123.523 164.077C123.31 164.077 123.151 164.177 123.046 164.379C122.942 164.581 122.891 164.911 122.891 165.369C122.891 165.819 122.942 166.141 123.046 166.334C123.149 166.527 123.309 166.624 123.526 166.624ZM125.408 167.167V166.577H125.958V167.167H125.408Z" fill="#36536B"/>
<path fill-rule="evenodd" clip-rule="evenodd" d="M74.3154 145.691V144.229L75.5223 142.213H74.7569L73.9675 143.623L73.1686 142.213H72.4104L73.6148 144.226V145.691H74.3154ZM76.9331 145.739C77.1858 145.739 77.4013 145.684 77.5797 145.575C77.758 145.466 77.8948 145.316 77.99 145.124C78.0851 144.933 78.1327 144.712 78.1327 144.462C78.1327 144.196 78.0839 143.965 77.9864 143.769C77.8888 143.574 77.7504 143.423 77.5713 143.316C77.3921 143.209 77.1802 143.156 76.9355 143.156C76.6907 143.156 76.4784 143.211 76.2985 143.32C76.1185 143.429 75.9794 143.581 75.881 143.777C75.7826 143.972 75.7334 144.201 75.7334 144.462C75.7334 144.723 75.7826 144.949 75.881 145.14C75.9794 145.331 76.1185 145.478 76.2985 145.583C76.4784 145.687 76.6899 145.739 76.9331 145.739ZM76.626 145.104C76.7011 145.179 76.8043 145.217 76.9355 145.217C77.0586 145.217 77.1578 145.181 77.233 145.109C77.3082 145.037 77.3629 144.942 77.3973 144.824C77.4317 144.706 77.4489 144.577 77.4489 144.438C77.4489 144.306 77.4333 144.182 77.4021 144.065C77.3709 143.948 77.3178 143.853 77.2426 143.781C77.1674 143.709 77.065 143.673 76.9355 143.673C76.8123 143.673 76.7127 143.707 76.6368 143.775C76.5608 143.843 76.5052 143.936 76.47 144.052C76.4348 144.168 76.4172 144.297 76.4172 144.438C76.4172 144.568 76.4332 144.692 76.4652 144.812C76.4972 144.931 76.5508 145.029 76.626 145.104ZM79.5123 145.739C79.6099 145.739 79.7095 145.724 79.811 145.694C79.9126 145.665 80.003 145.611 80.0821 145.533C80.1613 145.455 80.2153 145.344 80.2441 145.198L80.3257 145.691H80.8535V143.204H80.1601V144.823C80.1601 144.951 80.1197 145.051 80.039 145.122C79.9582 145.193 79.849 145.229 79.7115 145.229C79.5659 145.229 79.4555 145.192 79.3804 145.118C79.3052 145.045 79.2676 144.95 79.2676 144.835V143.204H78.567V144.924C78.567 145.057 78.5946 145.174 78.6498 145.275C78.705 145.376 78.7781 145.461 78.8693 145.53C78.9605 145.599 79.0616 145.651 79.1728 145.686C79.284 145.721 79.3971 145.739 79.5123 145.739ZM82.1227 144.33V145.691H81.4222V143.204H82.0964V143.793C82.1363 143.667 82.1927 143.556 82.2655 143.46C82.3383 143.365 82.4267 143.29 82.5306 143.237C82.6346 143.183 82.7522 143.156 82.8833 143.156C82.9057 143.156 82.9269 143.157 82.9469 143.16C82.9669 143.162 82.9817 143.166 82.9913 143.17V143.839C82.9769 143.833 82.9597 143.829 82.9397 143.827C82.9197 143.825 82.9017 143.824 82.8857 143.822C82.7482 143.811 82.6306 143.815 82.533 143.834C82.4355 143.853 82.3563 143.886 82.2955 143.933C82.2347 143.979 82.1907 144.036 82.1635 144.104C82.1363 144.171 82.1227 144.246 82.1227 144.33ZM84.9251 145.691L85.2154 144.885H86.4631L86.7462 145.691H87.4444L86.2039 142.213H85.465L84.2221 145.691H84.9251ZM85.3714 144.272H86.2951L85.8369 142.892L85.3714 144.272ZM88.5769 146.465V145.318C88.612 145.377 88.6532 145.432 88.7004 145.483C88.7476 145.533 88.8012 145.578 88.8612 145.616C88.9212 145.655 88.9863 145.685 89.0567 145.706C89.1271 145.728 89.2023 145.739 89.2822 145.739C89.4774 145.739 89.6525 145.692 89.8077 145.599C89.9628 145.506 90.0848 145.363 90.1736 145.17C90.2624 144.977 90.3067 144.73 90.3067 144.428C90.3067 144.138 90.2656 143.899 90.1832 143.71C90.1008 143.522 89.9876 143.383 89.8437 143.292C89.6997 143.201 89.5358 143.156 89.3518 143.156C89.267 143.156 89.1863 143.166 89.1095 143.186C89.0327 143.206 88.9615 143.235 88.896 143.272C88.8304 143.308 88.7708 143.351 88.7172 143.4C88.6636 143.449 88.6184 143.503 88.5816 143.562L88.5793 143.204H87.8763V146.465H88.5769ZM88.8132 145.114C88.8924 145.187 88.9927 145.224 89.1143 145.224C89.2663 145.224 89.3938 145.161 89.497 145.034C89.6002 144.908 89.6517 144.707 89.6517 144.433C89.6517 144.193 89.6026 144.005 89.5042 143.869C89.4058 143.734 89.2758 143.666 89.1143 143.666C88.9335 143.666 88.7988 143.739 88.71 143.886C88.6212 144.033 88.5769 144.215 88.5769 144.433C88.5769 144.573 88.5964 144.702 88.6356 144.823C88.6748 144.943 88.734 145.04 88.8132 145.114ZM91.4728 146.465V145.318C91.508 145.377 91.5492 145.432 91.5964 145.483C91.6436 145.533 91.6971 145.578 91.7571 145.616C91.8171 145.655 91.8823 145.685 91.9527 145.706C92.023 145.728 92.0982 145.739 92.1782 145.739C92.3733 145.739 92.5485 145.692 92.7036 145.599C92.8588 145.506 92.9808 145.363 93.0695 145.17C93.1583 144.977 93.2027 144.73 93.2027 144.428C93.2027 144.138 93.1615 143.899 93.0791 143.71C92.9968 143.522 92.8836 143.383 92.7396 143.292C92.5957 143.201 92.4317 143.156 92.2478 143.156C92.163 143.156 92.0822 143.166 92.0054 143.186C91.9287 143.206 91.8575 143.235 91.7919 143.272C91.7263 143.308 91.6667 143.351 91.6132 143.4C91.5596 143.449 91.5144 143.503 91.4776 143.562L91.4752 143.204H90.7722V146.465H91.4728ZM91.7091 145.114C91.7883 145.187 91.8887 145.224 92.0102 145.224C92.1622 145.224 92.2898 145.161 92.3929 145.034C92.4961 144.908 92.5477 144.707 92.5477 144.433C92.5477 144.193 92.4985 144.005 92.4001 143.869C92.3018 143.734 92.1718 143.666 92.0102 143.666C91.8295 143.666 91.6947 143.739 91.606 143.886C91.5172 144.033 91.4728 144.215 91.4728 144.433C91.4728 144.573 91.4924 144.702 91.5316 144.823C91.5708 144.943 91.63 145.04 91.7091 145.114Z" fill="#BA4270"/>
<path opacity="0.5" fill-rule="evenodd" clip-rule="evenodd" d="M142.701 145.638C142.595 145.705 142.444 145.739 142.249 145.739C142.126 145.739 142.01 145.724 141.902 145.696C141.794 145.667 141.723 145.645 141.688 145.631L141.719 145.205C141.768 145.223 141.825 145.245 141.89 145.271C141.955 145.298 142.035 145.311 142.131 145.311C142.288 145.311 142.396 145.268 142.454 145.181C142.512 145.094 142.542 144.948 142.542 144.743V142.213H142.986V144.871C142.986 145.055 142.965 145.212 142.923 145.342C142.882 145.472 142.808 145.571 142.701 145.638ZM144.959 145.687C144.857 145.723 144.748 145.74 144.631 145.739C144.502 145.737 144.38 145.718 144.266 145.682C144.151 145.646 144.05 145.593 143.962 145.522C143.874 145.452 143.805 145.364 143.754 145.259C143.704 145.154 143.679 145.032 143.679 144.892V143.204H144.123V144.847C144.123 145.009 144.173 145.14 144.273 145.241C144.373 145.342 144.523 145.393 144.725 145.393C144.907 145.393 145.054 145.345 145.165 145.249C145.276 145.154 145.332 145.012 145.332 144.823V143.204H145.773V145.691H145.421L145.375 145.215C145.345 145.34 145.293 145.441 145.22 145.518C145.148 145.595 145.061 145.651 144.959 145.687ZM147.347 145.739C147.549 145.739 147.721 145.709 147.862 145.649C148.004 145.589 148.112 145.504 148.188 145.394C148.264 145.284 148.302 145.153 148.302 145.001C148.302 144.94 148.293 144.876 148.275 144.809C148.256 144.743 148.225 144.679 148.181 144.618C148.137 144.557 148.078 144.502 148.004 144.452C147.929 144.403 147.834 144.362 147.719 144.332L147.223 144.207C147.085 144.173 146.981 144.131 146.911 144.081C146.84 144.03 146.805 143.961 146.805 143.873C146.805 143.74 146.855 143.641 146.954 143.578C147.053 143.515 147.182 143.483 147.34 143.483C147.492 143.483 147.613 143.518 147.704 143.588C147.794 143.657 147.847 143.752 147.863 143.87H148.254C148.248 143.636 148.162 143.459 147.996 143.338C147.831 143.217 147.614 143.156 147.345 143.156C147.135 143.156 146.96 143.188 146.82 143.252C146.679 143.316 146.573 143.404 146.503 143.514C146.433 143.625 146.398 143.753 146.4 143.899C146.4 144.084 146.46 144.227 146.58 144.33C146.7 144.432 146.86 144.508 147.06 144.556L147.573 144.683C147.685 144.709 147.768 144.749 147.821 144.805C147.875 144.86 147.902 144.933 147.902 145.025C147.902 145.154 147.85 145.251 147.748 145.313C147.646 145.376 147.511 145.407 147.345 145.407C147.241 145.407 147.145 145.391 147.057 145.358C146.969 145.325 146.896 145.276 146.838 145.211C146.779 145.146 146.739 145.065 146.716 144.967H146.313C146.339 145.145 146.401 145.291 146.498 145.406C146.596 145.52 146.718 145.605 146.866 145.658C147.014 145.712 147.175 145.739 147.347 145.739ZM150.091 145.691C150.029 145.699 149.953 145.703 149.862 145.703C149.691 145.703 149.558 145.68 149.464 145.633C149.369 145.587 149.303 145.518 149.266 145.426C149.228 145.335 149.209 145.223 149.209 145.09V143.529H148.806V143.204H149.221L149.329 142.48H149.656V143.202H150.215V143.529H149.656V145.075C149.656 145.163 149.665 145.228 149.683 145.269C149.702 145.31 149.733 145.336 149.777 145.347C149.821 145.358 149.881 145.364 149.958 145.364H150.229V145.662C150.199 145.673 150.153 145.683 150.091 145.691ZM152.494 145.691V142.949L154.356 145.691H154.752V142.213H154.308V144.916L152.475 142.213H152.05V145.691H152.494ZM157.183 145.577C157.016 145.685 156.809 145.739 156.563 145.739C156.334 145.739 156.134 145.69 155.963 145.591C155.792 145.492 155.659 145.348 155.565 145.157C155.471 144.966 155.423 144.733 155.423 144.457C155.423 144.197 155.467 143.97 155.555 143.774C155.643 143.579 155.773 143.427 155.943 143.318C156.113 143.21 156.32 143.156 156.563 143.156C156.792 143.156 156.991 143.206 157.159 143.306C157.328 143.407 157.459 143.554 157.552 143.748C157.644 143.942 157.691 144.178 157.691 144.457C157.691 144.71 157.648 144.933 157.562 145.126C157.477 145.318 157.35 145.468 157.183 145.577ZM156.563 145.388C156.398 145.388 156.265 145.346 156.162 145.263C156.06 145.179 155.985 145.066 155.937 144.924C155.889 144.781 155.865 144.622 155.865 144.447C155.865 144.25 155.892 144.081 155.945 143.94C155.999 143.799 156.078 143.691 156.182 143.617C156.286 143.542 156.413 143.505 156.563 143.505C156.726 143.505 156.859 143.546 156.96 143.63C157.062 143.713 157.136 143.826 157.182 143.968C157.229 144.11 157.252 144.27 157.252 144.447C157.252 144.641 157.225 144.809 157.173 144.95C157.12 145.091 157.042 145.199 156.94 145.275C156.837 145.35 156.712 145.388 156.563 145.388ZM159.783 143.856L159.246 145.691H158.811L158.046 143.204H158.456L159.025 145.116H159.063L159.622 143.204H159.958L160.539 145.111H160.577L161.122 143.204H161.537L160.786 145.691H160.349L159.783 143.856Z" fill="#36536B"/>
</g>
<defs>
<filter id="filter0_d_0_892" x="0.718506" y="0.269043" width="284.144" height="395.462" filterUnits="userSpaceOnUse" color-interpolation-filters="sRGB">
<feFlood flood-opacity="0" result="BackgroundImageFix"/>
<feColorMatrix in="SourceAlpha" type="matrix" values="0 0 0 0 0 0 0 0 0 0 0 0 0 0 0 0 0 0 127 0" result="hardAlpha"/>
<feOffset dx="25" dy="25"/>
<feGaussianBlur stdDeviation="40"/>
<feColorMatrix type="matrix" values="0 0 0 0 0.212302 0 0 0 0 0.32521 0 0 0 0 0.419299 0 0 0 0.300727 0"/>
<feBlend mode="normal" in2="BackgroundImageFix" result="effect1_dropShadow_0_892"/>
<feBlend mode="normal" in="SourceGraphic" in2="effect1_dropShadow_0_892" result="shape"/>
</filter>
<filter id="filter1_d_0_892" x="59.687" y="128.667" width="134.609" height="71.8438" filterUnits="userSpaceOnUse" color-interpolation-filters="sRGB">
<feFlood flood-opacity="0" result="BackgroundImageFix"/>
<feColorMatrix in="SourceAlpha" type="matrix" values="0 0 0 0 0 0 0 0 0 0 0 0 0 0 0 0 0 0 127 0" result="hardAlpha"/>
<feMorphology radius="10" operator="erode" in="SourceAlpha" result="effect1_dropShadow_0_892"/>
<feOffset dx="10" dy="10"/>
<feGaussianBlur stdDeviation="12.5"/>
<feColorMatrix type="matrix" values="0 0 0 0 0.212302 0 0 0 0 0.32521 0 0 0 0 0.419299 0 0 0 0.25 0"/>
<feBlend mode="normal" in2="BackgroundImageFix" result="effect1_dropShadow_0_892"/>
<feBlend mode="normal" in="SourceGraphic" in2="effect1_dropShadow_0_892" result="shape"/>
</filter>
<linearGradient id="paint0_linear_0_892" x1="59.3066" y1="55" x2="59.3066" y2="60.8169" gradientUnits="userSpaceOnUse">
<stop stop-color="#454545"/>
<stop offset="0.226279" stop-color="#999999"/>
<stop offset="1" stop-color="white"/>
</linearGradient>
<linearGradient id="paint1_linear_0_892" x1="179.807" y1="95.473" x2="175.249" y2="95.473" gradientUnits="userSpaceOnUse">
<stop stop-color="white" stop-opacity="0.01"/>
<stop offset="0.222178" stop-color="#BABABA"/>
<stop offset="0.54678" stop-color="white" stop-opacity="0.01"/>
<stop offset="1" stop-color="white" stop-opacity="0.01"/>
</linearGradient>
<linearGradient id="paint2_linear_0_892" x1="55.7184" y1="95.3499" x2="60.2843" y2="95.3499" gradientUnits="userSpaceOnUse">
<stop stop-color="white" stop-opacity="0.01"/>
<stop offset="0.222178" stop-color="#BABABA"/>
<stop offset="0.54678" stop-color="white" stop-opacity="0.01"/>
<stop offset="1" stop-color="white" stop-opacity="0.01"/>
</linearGradient>
<linearGradient id="paint3_linear_0_892" x1="61.893" y1="60.8999" x2="61.893" y2="278.476" gradientUnits="userSpaceOnUse">
<stop stop-color="#9CB6CD"/>
<stop offset="0.420564" stop-color="#9AB3CA"/>
<stop offset="0.716592" stop-color="#557496"/>
<stop offset="1" stop-color="#475178"/>
</linearGradient>
<clipPath id="clip0_0_892">
<rect width="104.605" height="42.2833" fill="white" transform="translate(64.687 133.667)"/>
</clipPath>
</defs>
</svg>
