<svg width="280" height="450" viewBox="0 0 280 450" fill="none" xmlns="http://www.w3.org/2000/svg">
    <g filter="url(#fm1b8jeela)">
        <path fill-rule="evenodd" clip-rule="evenodd" d="M44.677 55.33h110.522c10.6 0 19.193 8.257 19.193 18.442v252.456c0 10.185-8.593 18.441-19.193 18.441H44.677c-10.6 0-19.193-8.256-19.193-18.441V73.771c0-10.184 8.593-18.44 19.193-18.44z" fill="#213648"/>
    </g>
    <path opacity=".596" fill-rule="evenodd" clip-rule="evenodd" d="M155.627 55H44.183c-5.203.318-10.001 2.701-14.395 7.148 2.826-2.476 7.866-5.788 14.53-5.788h111.174c6.664 0 11.704 3.312 14.53 5.788-4.394-4.447-9.192-6.83-14.395-7.148z" fill="url(#y5zd91zy1b)" fill-opacity=".65"/>
    <path opacity=".75" fill-rule="evenodd" clip-rule="evenodd" d="M171.376 323.35V75.29c0-6.656-2.437-9.116-3.891-10.696-1.454-1.58-1.516-2.386.573-1.193s6.268 4.667 6.268 11.889v248.06c0 7.221-4.179 10.696-6.268 11.888-2.089 1.193-2.027.387-.573-1.193 1.454-1.579 3.891-4.04 3.891-10.695z" fill="url(#lomauy7xec)"/>
    <path opacity=".75" fill-rule="evenodd" clip-rule="evenodd" d="M28.434 323.35V75.29c0-6.656 2.437-9.116 3.891-10.696 1.454-1.58 1.516-2.386-.573-1.193-2.09 1.193-6.268 4.667-6.268 11.889v248.06c0 7.221 4.179 10.696 6.268 11.888 2.09 1.193 2.027.387.573-1.193-1.454-1.579-3.891-4.04-3.891-10.695z" fill="url(#f6h2zzt9pd)"/>
    <path fill-rule="evenodd" clip-rule="evenodd" d="M24 115.338a1.435 1.435 0 0 1 2.87 0v34.454a1.435 1.435 0 0 1-2.87 0v-34.454zM172.842 145.78a1.434 1.434 0 1 1 2.869 0v24.362a1.435 1.435 0 0 1-2.869 0V145.78z" fill="#2E423C"/>
    <path fill-rule="evenodd" clip-rule="evenodd" d="M86.81 62.218H43.805c-6.418 0-11.094 4.386-11.094 10.116V317.32c0 7.47 7.226 14.089 15.396 14.089h103.645c7.87 0 15.396-6.67 15.396-14.089V72.996c0-6.867-5.08-10.737-11.094-10.778H112.37c-.165.027-3.166 1.265-4.434 4.386-1.268 3.122-3.82 5.61-6.614 5.61h-3.246c-1.328 0-4.824-1.293-6.595-5.61-1.77-4.316-4.506-4.359-4.672-4.386z" fill="#EDF3F8"/>
    <mask id="zpsg32x56e" style="mask-type:luminance" maskUnits="userSpaceOnUse" x="32" y="62" width="136" height="270">
        <path fill-rule="evenodd" clip-rule="evenodd" d="M86.81 62.218H43.805c-6.418 0-11.094 4.386-11.094 10.116V317.32c0 7.47 7.226 14.089 15.396 14.089h103.645c7.87 0 15.396-6.67 15.396-14.089V72.996c0-6.867-5.08-10.737-11.094-10.778H112.37c-.165.027-3.166 1.265-4.434 4.386-1.268 3.122-3.82 5.61-6.614 5.61h-3.246c-1.328 0-4.824-1.293-6.595-5.61-1.77-4.316-4.506-4.359-4.672-4.386z" fill="#fff"/>
    </mask>
    <g mask="url(#zpsg32x56e)">
        <g filter="url(#9shd75s25f)">
            <rect x="41.339" y="155.34" width="117.901" height="23.2" rx="2" fill="#FBFCFE"/>
        </g>
        <path opacity=".7" fill-rule="evenodd" clip-rule="evenodd" d="M70.257 168.777c-.273.365-.645.547-1.115.547-.471 0-.843-.181-1.115-.544-.272-.362-.407-.896-.407-1.602 0-.474.062-.871.187-1.193.126-.322.302-.565.53-.73.229-.164.498-.246.808-.246.465 0 .834.183 1.109.549.274.367.411.905.411 1.614 0 .706-.136 1.241-.409 1.605zm-3.94-.862-.203 1.357-.36-.052.195-1.305h-.831l-.203 1.357-.358-.052.196-1.305h-.67v-.357h.724l.125-.832h-.664v-.357h.718l.198-1.311.355.041-.19 1.27h.833l.198-1.311.359.041-.191 1.27h.621v.357h-.674l-.124.832h.613v.357h-.667zm-14.584-2.848v4.193h-.618v-4.193h.618zm2.34 4.196a1.965 1.965 0 0 1-.293.017c-.222 0-.394-.029-.516-.089a.502.502 0 0 1-.254-.26 1.064 1.064 0 0 1-.071-.41v-1.813h-.486v-.446h.503l.153-.882h.448v.879h.67v.449h-.67l.003 1.789c0 .099.01.171.03.217a.15.15 0 0 0 .104.087c.05.012.116.018.201.018h.35v.403a.812.812 0 0 1-.172.041zm2.034.055c.198 0 .388-.036.569-.109.181-.072.336-.18.464-.323.128-.143.21-.317.244-.522h-.572a.575.575 0 0 1-.256.363.854.854 0 0 1-.46.121.768.768 0 0 1-.446-.123.74.74 0 0 1-.267-.336 1.253 1.253 0 0 1-.088-.483h2.103v-.206c0-.304-.05-.567-.153-.79a1.173 1.173 0 0 0-.45-.521c-.197-.124-.44-.185-.729-.185-.293 0-.543.067-.751.203a1.297 1.297 0 0 0-.477.561c-.11.239-.165.514-.165.825 0 .315.06.587.18.815.121.228.29.403.505.526.216.123.465.184.749.184zm-.812-1.815h1.514c0-.157-.027-.299-.081-.428a.664.664 0 0 0-.247-.304.729.729 0 0 0-.418-.112.7.7 0 0 0-.427.125.77.77 0 0 0-.256.319.984.984 0 0 0-.085.4zm3.368 1.757v-1.981c0-.129.032-.235.096-.317a.569.569 0 0 1 .242-.181.764.764 0 0 1 .289-.058.67.67 0 0 1 .261.056c.088.038.161.094.22.17a.437.437 0 0 1 .088.278v2.033h.618v-1.981a.5.5 0 0 1 .102-.33.567.567 0 0 1 .245-.174.81.81 0 0 1 .278-.052.71.71 0 0 1 .278.056.459.459 0 0 1 .214.196.76.76 0 0 1 .083.386v1.899h.62v-1.966c0-.217-.03-.395-.09-.537a.867.867 0 0 0-.237-.332.903.903 0 0 0-.316-.171 1.181 1.181 0 0 0-.33-.05c-.197 0-.374.045-.532.136a1.106 1.106 0 0 0-.378.351.774.774 0 0 0-.221-.268 1.03 1.03 0 0 0-.634-.219c-.232 0-.42.048-.567.146a1.19 1.19 0 0 0-.347.344v-.432h-.6v2.998h.618zm7.34-1.702h-.832l.125-.832h.832l-.125.832zm3.142 1.238a.707.707 0 0 1-.648-.38c-.148-.253-.221-.667-.221-1.241 0-.584.074-1.006.222-1.266.148-.26.363-.39.644-.39.284 0 .498.129.642.387.144.258.217.681.217 1.269 0 .576-.072.99-.214 1.243a.693.693 0 0 1-.642.378zm4.623-.019c-.273.365-.644.547-1.114.547-.472 0-.844-.181-1.115-.544-.272-.362-.408-.896-.408-1.602 0-.474.063-.871.188-1.193.125-.322.302-.565.53-.73.228-.164.498-.246.808-.246.464 0 .834.183 1.108.549.275.367.412.905.412 1.614 0 .706-.136 1.241-.409 1.605zm-1.111.019a.706.706 0 0 1-.649-.38c-.147-.253-.22-.667-.22-1.241 0-.584.073-1.006.222-1.266.148-.26.363-.39.644-.39.283 0 .497.129.642.387.144.258.216.681.216 1.269 0 .576-.071.99-.214 1.243a.693.693 0 0 1-.641.378zm3.433-3.729v4.193h-.632v-3.283h-.792v-.385c.246 0 .44-.02.582-.06a.57.57 0 0 0 .306-.177.502.502 0 0 0 .106-.288h.43z" fill="#36536B"/>
        <path fill-rule="evenodd" clip-rule="evenodd" d="M138.445 169.307v.673h-.947v-.672l-.017-.002c-.424-.052-.784-.173-1.08-.364-.405-.263-.638-.668-.698-1.216l1.142-.023c.06.249.189.438.389.568.199.129.449.194.749.194.18 0 .34-.03.479-.089a.809.809 0 0 0 .329-.241.55.55 0 0 0 .12-.349c0-.201-.064-.351-.192-.45-.127-.1-.324-.18-.589-.24l-.891-.192c-.413-.083-.744-.248-.993-.496-.25-.247-.377-.58-.382-.997-.002-.342.09-.638.276-.888.187-.25.441-.443.763-.579l.14-.054c.143-.049.293-.087.45-.112l.024-.002v-.748h.951v.752l.093.016c.178.037.341.092.491.165.299.147.53.345.691.592.162.248.24.521.235.82l-1.108.019c-.035-.241-.116-.431-.241-.569-.125-.138-.333-.208-.623-.208-.151 0-.285.017-.402.05a.982.982 0 0 0-.305.137.559.559 0 0 0-.259.481c0 .158.053.283.16.375.106.092.307.176.603.254l.875.215c.493.118.85.321 1.069.607.219.287.329.635.329 1.045 0 .314-.086.588-.258.821a1.645 1.645 0 0 1-.727.543l-.137.051a2.588 2.588 0 0 1-.453.106l-.056.007zm6.355-.974v.927h-3.99v-.822c0-.276.052-.516.154-.718.103-.202.239-.378.408-.528.169-.149.354-.281.556-.394.202-.113.404-.22.607-.32a8.07 8.07 0 0 0 .558-.304c.169-.101.304-.215.407-.341a.679.679 0 0 0 .154-.445.693.693 0 0 0-.227-.535c-.152-.138-.359-.207-.622-.207-.273 0-.504.079-.695.237-.19.159-.308.397-.353.716h-1.048c.005-.346.086-.661.242-.944.157-.283.392-.507.705-.673.313-.166.706-.249 1.179-.249.406 0 .756.069 1.05.208.294.138.522.33.682.576.16.247.24.535.24.864 0 .274-.05.51-.15.709-.1.198-.233.368-.398.509-.165.14-.347.263-.545.369-.198.106-.395.204-.591.294a7.19 7.19 0 0 0-.543.277 1.452 1.452 0 0 0-.398.319.633.633 0 0 0-.151.426v.049h2.769zm2.624 1.01c.476 0 .886-.107 1.229-.322.343-.215.607-.539.791-.973.184-.433.276-.976.276-1.627 0-.545-.09-1.019-.269-1.423a2.115 2.115 0 0 0-.77-.935c-.334-.22-.732-.33-1.193-.33-.41 0-.769.079-1.074.238a1.764 1.764 0 0 0-.714.656c-.17.279-.255.597-.255.954 0 .354.08.66.242.918.161.257.384.456.669.595.284.14.61.21.978.21.203 0 .387-.028.552-.082.166-.054.31-.13.434-.23.124-.099.221-.215.291-.348.031.435-.004.786-.103 1.055-.099.269-.247.465-.443.588a1.258 1.258 0 0 1-.686.185.875.875 0 0 1-.586-.198.9.9 0 0 1-.3-.514h-1.045c.023.319.127.597.312.835.186.237.425.421.718.552.293.131.608.196.946.196zm-.552-3.15c.165.157.382.236.65.236.153 0 .301-.035.445-.104a1.08 1.08 0 0 0 .355-.262.492.492 0 0 0 .139-.328 1.472 1.472 0 0 0-.114-.628.918.918 0 0 0-.331-.401.878.878 0 0 0-.494-.14.855.855 0 0 0-.781.46 1.059 1.059 0 0 0-.117.506c0 .284.083.504.248.661z" fill="#36536B"/>
        <g filter="url(#inqa4ub3bg)">
            <rect x="41.339" y="183.18" width="117.901" height="23.2" rx="2" fill="#FBFCFE"/>
        </g>
        <path opacity=".7" fill-rule="evenodd" clip-rule="evenodd" d="M70.257 196.617c-.273.365-.645.547-1.115.547-.471 0-.843-.181-1.115-.544-.272-.362-.407-.897-.407-1.602 0-.474.062-.872.187-1.194.126-.321.302-.565.53-.729.229-.164.498-.246.808-.246.465 0 .834.183 1.109.549.274.367.411.904.411 1.614 0 .706-.136 1.241-.409 1.605zm-3.94-.863-.203 1.358-.36-.053.195-1.305h-.831l-.203 1.358-.358-.053.196-1.305h-.67v-.356h.724l.125-.833h-.664v-.356h.718l.198-1.311.355.041-.19 1.27h.833l.198-1.311.359.041-.191 1.27h.621v.356h-.674l-.124.833h.613v.356h-.667zm-14.584-2.847v4.193h-.618v-4.193h.618zm2.34 4.196a1.965 1.965 0 0 1-.293.017c-.222 0-.394-.03-.516-.09a.5.5 0 0 1-.254-.259 1.064 1.064 0 0 1-.071-.41v-1.813h-.486v-.447h.503l.153-.881h.448v.879h.67v.449h-.67l.003 1.789c0 .099.01.171.03.216.02.046.055.075.104.087.05.013.116.019.201.019h.35v.403a.812.812 0 0 1-.172.041zm2.034.055c.198 0 .388-.036.569-.109.181-.072.336-.18.464-.323.128-.143.21-.317.244-.522h-.572a.573.573 0 0 1-.256.362.845.845 0 0 1-.46.122.768.768 0 0 1-.446-.123.74.74 0 0 1-.267-.336 1.256 1.256 0 0 1-.088-.483h2.103v-.206c0-.304-.05-.567-.153-.79a1.173 1.173 0 0 0-.45-.521c-.197-.124-.44-.186-.729-.186a1.35 1.35 0 0 0-.751.203 1.306 1.306 0 0 0-.477.562 1.95 1.95 0 0 0-.165.825c0 .315.06.586.18.815.121.228.29.403.505.526.216.123.465.184.749.184zm-.812-1.815h1.514c0-.157-.027-.3-.081-.428a.672.672 0 0 0-.247-.305.736.736 0 0 0-.418-.111.706.706 0 0 0-.427.124.782.782 0 0 0-.256.319.988.988 0 0 0-.085.401zm3.368 1.757v-1.981c0-.129.032-.235.096-.317a.569.569 0 0 1 .242-.181.764.764 0 0 1 .289-.058c.086 0 .174.018.261.056.088.038.161.094.22.17a.437.437 0 0 1 .088.278v2.033h.618v-1.981a.5.5 0 0 1 .102-.33.567.567 0 0 1 .245-.174.81.81 0 0 1 .278-.052c.098 0 .19.018.278.056a.459.459 0 0 1 .214.196.76.76 0 0 1 .083.386v1.899h.62v-1.966c0-.217-.03-.396-.09-.537a.867.867 0 0 0-.237-.332.903.903 0 0 0-.316-.171 1.148 1.148 0 0 0-.33-.051c-.197 0-.374.046-.532.137a1.106 1.106 0 0 0-.378.351.787.787 0 0 0-.221-.269 1.012 1.012 0 0 0-.307-.163 1.032 1.032 0 0 0-.328-.056c-.23 0-.42.049-.566.147a1.19 1.19 0 0 0-.347.344v-.433h-.6v2.999h.618zm7.34-1.702h-.832l.125-.833h.832l-.125.833zm3.142 1.238a.708.708 0 0 1-.648-.38c-.148-.253-.221-.667-.221-1.241 0-.584.074-1.006.222-1.266.148-.26.363-.39.644-.39.284 0 .498.129.642.387.144.258.217.681.217 1.269 0 .576-.072.99-.214 1.243a.693.693 0 0 1-.642.378zm4.623-.019c-.273.365-.644.547-1.114.547-.472 0-.844-.181-1.115-.544-.272-.362-.408-.897-.408-1.602 0-.474.063-.872.188-1.194.125-.321.302-.565.53-.729.228-.164.498-.246.808-.246.464 0 .834.183 1.108.549.275.367.412.904.412 1.614 0 .706-.136 1.241-.409 1.605zm-1.111.019a.708.708 0 0 1-.649-.38c-.147-.253-.22-.667-.22-1.241 0-.584.073-1.006.222-1.266.148-.26.363-.39.644-.39.283 0 .497.129.642.387.144.258.216.681.216 1.269 0 .576-.071.99-.214 1.243a.693.693 0 0 1-.641.378zm4.968-.075v.539h-2.873v-.536c0-.213.04-.398.12-.554.08-.157.186-.294.317-.411.13-.117.275-.221.432-.311.157-.091.313-.178.47-.261.156-.084.299-.17.43-.26a1.23 1.23 0 0 0 .316-.305.672.672 0 0 0 .12-.398.626.626 0 0 0-.21-.49c-.141-.126-.332-.189-.573-.189-.256 0-.464.073-.624.218-.16.145-.252.345-.277.6h-.607c.006-.249.066-.477.182-.682.115-.205.286-.368.511-.49.226-.121.505-.182.838-.182.29 0 .54.05.75.152.211.101.374.243.49.425.116.181.173.393.173.635 0 .214-.04.399-.118.554a1.337 1.337 0 0 1-.31.4c-.129.112-.27.211-.424.297-.154.086-.308.168-.462.247a4.13 4.13 0 0 0-.425.246c-.13.086-.233.183-.312.292a.643.643 0 0 0-.119.391v.073h2.185z" fill="#36536B"/>
        <path fill-rule="evenodd" clip-rule="evenodd" d="m135.096 197.82-.001-.673.056-.007c.161-.023.312-.059.453-.106l.138-.051a1.65 1.65 0 0 0 .727-.543c.171-.234.257-.507.257-.822 0-.409-.11-.757-.329-1.044-.219-.286-.575-.489-1.068-.607l-.876-.215c-.295-.078-.496-.163-.603-.254a.47.47 0 0 1-.159-.375.57.57 0 0 1 .065-.272.619.619 0 0 1 .194-.209 1 1 0 0 1 .304-.138c.118-.032.252-.049.402-.049.291 0 .498.069.624.208.125.138.205.328.24.569l1.108-.019a1.429 1.429 0 0 0-.234-.82 1.698 1.698 0 0 0-.692-.592 2.077 2.077 0 0 0-.49-.165l-.094-.016v-.752h-.95v.747l-.024.003a2.598 2.598 0 0 0-.45.112l-.14.054a1.804 1.804 0 0 0-.763.579 1.42 1.42 0 0 0-.276.888c.005.417.132.749.381.997s.581.413.994.496l.89.192c.266.06.462.14.59.239.128.1.191.25.191.451a.55.55 0 0 1-.12.349.814.814 0 0 1-.328.241 1.218 1.218 0 0 1-.479.089c-.301 0-.551-.065-.75-.195a.897.897 0 0 1-.389-.567l-1.142.023c.06.547.293.953.699 1.215.295.191.655.313 1.08.365l.017.002v.672h.947zm4.345-.72v-5.451h-.729a.736.736 0 0 1-.169.401.894.894 0 0 1-.43.256 2.63 2.63 0 0 1-.754.089v.622h.97v4.083h1.112zm4.717-.639c-.369.481-.881.722-1.537.722-.659 0-1.173-.24-1.542-.72s-.554-1.171-.554-2.074c0-.603.085-1.114.255-1.534.171-.42.412-.738.725-.956.313-.217.685-.326 1.116-.326.646 0 1.156.242 1.529.726s.56 1.179.56 2.087c0 .902-.184 1.594-.552 2.075zm-1.537-.179a.765.765 0 0 1-.721-.437c-.155-.292-.233-.777-.233-1.456 0-.691.078-1.188.235-1.493.156-.304.395-.456.715-.456.321 0 .558.151.71.453.153.301.229.8.229 1.496 0 .681-.075 1.167-.225 1.457a.747.747 0 0 1-.71.436zm6.105.675c-.317.151-.692.226-1.125.226-.356 0-.686-.055-.992-.166a2.51 2.51 0 0 1-.792-.454 1.972 1.972 0 0 1-.508-.662l.857-.509c.098.171.208.325.33.462a1.27 1.27 0 0 0 .992.443c.326 0 .588-.087.785-.26a.86.86 0 0 0 .297-.679.861.861 0 0 0-.133-.473.944.944 0 0 0-.366-.33 1.177 1.177 0 0 0-.545-.12c-.11 0-.215.009-.314.028a1.144 1.144 0 0 0-.3.105 2.134 2.134 0 0 0-.337.221.232.232 0 0 1-.073.023.23.23 0 0 1-.077-.027l-.796-.369.248-2.767h3.49l-.042.901h-2.581l-.105 1.315c.201-.113.392-.194.573-.245.182-.05.381-.075.599-.075.363 0 .688.068.975.205.287.137.514.338.682.602.168.264.252.585.252.965 0 .384-.087.716-.26.995a1.694 1.694 0 0 1-.734.645z" fill="#36536B"/>
        <g filter="url(#ew2fim5rhh)">
            <rect x="41.339" y="211.02" width="117.901" height="23.2" rx="2" fill="#FBFCFE"/>
        </g>
        <path opacity=".7" fill-rule="evenodd" clip-rule="evenodd" d="M70.257 224.457c-.273.364-.645.547-1.115.547-.471 0-.843-.182-1.115-.544-.272-.363-.407-.897-.407-1.602 0-.474.062-.872.187-1.194.126-.322.302-.565.53-.729.229-.164.498-.247.808-.247.465 0 .834.184 1.109.55.274.366.411.904.411 1.614 0 .706-.136 1.241-.409 1.605zm-3.94-.863-.203 1.357-.36-.052.195-1.305h-.831l-.203 1.357-.358-.052.196-1.305h-.67v-.356h.724l.125-.833h-.664v-.356h.718l.198-1.311.355.04-.19 1.271h.833l.198-1.311.359.04-.191 1.271h.621v.356h-.674l-.124.833h.613v.356h-.667zm-14.584-2.848v4.194h-.618v-4.194h.618zm2.34 4.197a2.11 2.11 0 0 1-.293.017c-.222 0-.394-.03-.516-.09a.5.5 0 0 1-.254-.259 1.066 1.066 0 0 1-.071-.411v-1.812h-.486v-.447h.503l.153-.881h.448v.878h.67v.45h-.67l.003 1.789c0 .099.01.171.03.216.02.046.055.075.104.087.05.013.116.019.201.019h.35v.403a.812.812 0 0 1-.172.041zm2.034.055c.198 0 .388-.036.569-.109.181-.072.336-.18.464-.323.128-.143.21-.317.244-.522h-.572a.573.573 0 0 1-.256.362.854.854 0 0 1-.46.122.768.768 0 0 1-.446-.123.737.737 0 0 1-.267-.337 1.251 1.251 0 0 1-.088-.482h2.103v-.206a1.89 1.89 0 0 0-.153-.791 1.175 1.175 0 0 0-.45-.52c-.197-.124-.44-.186-.729-.186a1.35 1.35 0 0 0-.751.203 1.309 1.309 0 0 0-.477.561c-.11.239-.165.514-.165.825 0 .316.06.587.18.815.121.229.29.404.505.527.216.122.465.184.749.184zm-.812-1.816h1.514a1.09 1.09 0 0 0-.081-.427.672.672 0 0 0-.247-.305.736.736 0 0 0-.418-.111.706.706 0 0 0-.683.443.987.987 0 0 0-.085.4zm3.368 1.758v-1.981c0-.129.032-.235.096-.317a.571.571 0 0 1 .242-.182.784.784 0 0 1 .289-.058c.086 0 .174.019.261.057.088.038.161.094.22.17a.437.437 0 0 1 .088.278v2.033h.618v-1.981a.5.5 0 0 1 .347-.504.812.812 0 0 1 .278-.053c.098 0 .19.019.278.057a.459.459 0 0 1 .214.196.755.755 0 0 1 .083.385v1.9h.62v-1.966c0-.217-.03-.396-.09-.537a.86.86 0 0 0-.553-.503 1.148 1.148 0 0 0-.33-.051 1.094 1.094 0 0 0-.91.487.793.793 0 0 0-.221-.268 1.037 1.037 0 0 0-.635-.219c-.23 0-.42.049-.566.147a1.187 1.187 0 0 0-.347.343v-.432h-.6v2.999h.618zm7.34-1.702h-.832l.125-.833h.832l-.125.833zm3.142 1.238a.708.708 0 0 1-.648-.38c-.148-.253-.221-.667-.221-1.241 0-.584.074-1.006.222-1.266.148-.26.363-.39.644-.39.284 0 .498.129.642.387.144.258.217.681.217 1.269 0 .576-.072.99-.214 1.242a.692.692 0 0 1-.642.379zm4.623-.019c-.273.364-.644.547-1.114.547-.472 0-.844-.182-1.115-.544-.272-.363-.408-.897-.408-1.602 0-.474.063-.872.188-1.194.125-.322.302-.565.53-.729.228-.164.498-.247.808-.247.464 0 .834.184 1.108.55.275.366.412.904.412 1.614 0 .706-.136 1.241-.409 1.605zm-1.111.019a.708.708 0 0 1-.649-.38c-.147-.253-.22-.667-.22-1.241 0-.584.073-1.006.222-1.266.148-.26.363-.39.644-.39.283 0 .497.129.642.387.144.258.216.681.216 1.269 0 .576-.071.99-.214 1.242a.692.692 0 0 1-.641.379zm4.144.449c-.2.055-.417.081-.65.079a1.861 1.861 0 0 1-.786-.161 1.24 1.24 0 0 1-.523-.448 1.307 1.307 0 0 1-.2-.685h.61c.04.254.143.445.308.576.165.13.368.196.608.196.197 0 .367-.031.51-.092a.784.784 0 0 0 .334-.252.616.616 0 0 0 .119-.376.615.615 0 0 0-.129-.394.804.804 0 0 0-.352-.248 1.488 1.488 0 0 0-.502-.091l-.384-.009v-.516l.358-.012c.175-.004.331-.037.467-.1a.817.817 0 0 0 .32-.248.549.549 0 0 0 .115-.339.504.504 0 0 0-.103-.307.695.695 0 0 0-.295-.222 1.164 1.164 0 0 0-.46-.083c-.145 0-.282.027-.412.081a.736.736 0 0 0-.321.257.827.827 0 0 0-.137.457h-.607c0-.281.067-.517.2-.709.135-.193.314-.339.538-.44.225-.1.474-.151.747-.151.295 0 .556.042.783.125.228.083.406.206.536.368.13.163.196.363.196.601a.887.887 0 0 1-.193.558c-.128.165-.327.294-.596.387.175.049.33.12.465.213.135.094.24.211.316.35.076.139.114.3.114.484a1.078 1.078 0 0 1-.47.911 1.611 1.611 0 0 1-.524.24z" fill="#36536B"/>
        <path fill-rule="evenodd" clip-rule="evenodd" d="m135.126 225.66-.001-.673.056-.007a2.68 2.68 0 0 0 .453-.106l.138-.051a1.65 1.65 0 0 0 .727-.543c.171-.234.257-.508.257-.822 0-.409-.109-.758-.329-1.044-.219-.287-.575-.489-1.068-.607l-.876-.215c-.295-.078-.496-.163-.603-.254a.472.472 0 0 1-.159-.376.555.555 0 0 1 .259-.48c.085-.059.187-.105.304-.138.118-.032.252-.049.402-.049.291 0 .499.069.624.208.125.138.205.328.24.569l1.108-.019a1.421 1.421 0 0 0-.234-.82 1.69 1.69 0 0 0-.692-.592 2.032 2.032 0 0 0-.49-.165l-.094-.017v-.751h-.95v.747l-.024.003a2.598 2.598 0 0 0-.45.112l-.14.054a1.804 1.804 0 0 0-.763.579 1.42 1.42 0 0 0-.276.888c.005.417.132.749.381.997.249.247.581.413.994.496l.89.192c.266.06.462.14.59.239.128.1.192.25.192.451 0 .13-.04.247-.121.348a.807.807 0 0 1-.328.242 1.218 1.218 0 0 1-.479.088c-.301 0-.551-.064-.75-.194a.901.901 0 0 1-.389-.567l-1.142.022c.061.548.293.954.699 1.216.295.191.655.313 1.08.365l.017.002v.672h.947zm4.457-.641c.441 0 .826-.065 1.156-.194.329-.13.584-.314.766-.552.182-.239.272-.521.272-.845 0-.209-.051-.406-.154-.594a1.59 1.59 0 0 0-.392-.475 1.168 1.168 0 0 0-.487-.247c.223-.105.411-.256.564-.452.153-.196.229-.434.229-.713 0-.331-.085-.611-.256-.838a1.577 1.577 0 0 0-.696-.519 2.676 2.676 0 0 0-1.002-.177c-.368 0-.7.059-.995.177a1.593 1.593 0 0 0-.701.519c-.171.227-.257.507-.257.838 0 .279.078.517.233.713.155.196.344.347.567.452-.168.036-.33.118-.488.247-.158.13-.288.288-.391.475a1.215 1.215 0 0 0-.154.594c0 .324.092.606.274.845.183.238.439.422.767.552.328.129.71.194 1.145.194zm-.612-3.534a.932.932 0 0 0 .612.201c.251 0 .457-.067.618-.201.162-.135.243-.321.243-.56a.701.701 0 0 0-.244-.562.922.922 0 0 0-.617-.207.914.914 0 0 0-.612.207.698.698 0 0 0-.244.562c0 .239.081.425.244.56zm.612 2.705c-.313 0-.561-.073-.743-.217a.697.697 0 0 1-.275-.575c0-.161.042-.302.124-.424a.846.846 0 0 1 .354-.289c.152-.07.333-.105.54-.105.213 0 .396.035.549.105.153.071.27.167.353.289a.735.735 0 0 1 .124.424.7.7 0 0 1-.272.575c-.182.144-.433.217-.754.217zm4.871-4.702v5.452h-1.112v-4.083h-.969v-.622c.311 0 .562-.03.753-.089a.897.897 0 0 0 .431-.256.736.736 0 0 0 .169-.402h.728zm3.181 5.535c.656 0 1.168-.241 1.536-.722.368-.482.553-1.173.553-2.076 0-.907-.187-1.602-.56-2.086-.373-.484-.883-.726-1.529-.726-.431 0-.803.109-1.116.326-.313.218-.555.536-.725.956-.17.42-.255.931-.255 1.534 0 .902.184 1.594.554 2.074.369.48.883.72 1.542.72zm-.721-1.339a.765.765 0 0 0 .721.438c.323 0 .56-.145.71-.436.15-.29.225-.776.225-1.457 0-.696-.076-1.195-.229-1.497-.153-.301-.389-.452-.71-.452-.32 0-.559.152-.716.456-.156.304-.234.802-.234 1.493 0 .679.077 1.164.233 1.455z" fill="#36536B"/>
        <g filter="url(#pp1a0t6hni)">
            <rect x="41.339" y="238.859" width="117.901" height="23.2" rx="2" fill="#FBFCFE"/>
        </g>
        <path opacity=".7" fill-rule="evenodd" clip-rule="evenodd" d="M69.142 252.844c.47 0 .842-.183 1.115-.547.272-.365.408-.9.408-1.605 0-.71-.137-1.248-.411-1.614a1.315 1.315 0 0 0-1.109-.55c-.31 0-.579.082-.807.247-.229.164-.405.407-.53.729-.126.322-.188.72-.188 1.194 0 .705.135 1.239.407 1.602.272.362.644.544 1.115.544zm-3.028-.053.203-1.357h.667v-.357h-.613l.124-.832h.674v-.357h-.621l.19-1.27-.358-.04-.198 1.31h-.833l.19-1.27-.355-.04-.198 1.31h-.718v.357h.664l-.125.832h-.724v.357h.67l-.196 1.305.358.052.203-1.357h.831l-.196 1.305.361.052zm-14.381-.011v-4.194h-.618v4.194h.618zm2.047.02c.12 0 .217-.006.293-.017a.879.879 0 0 0 .172-.041v-.403h-.35a.821.821 0 0 1-.2-.019.146.146 0 0 1-.105-.087.565.565 0 0 1-.03-.216l-.003-1.789h.67v-.45h-.67v-.878h-.448l-.153.881h-.503v.447h.486v1.812c0 .161.023.297.07.411a.5.5 0 0 0 .255.259c.122.06.294.09.516.09zm2.896-.071c-.181.072-.37.109-.57.109-.283 0-.532-.062-.748-.184a1.28 1.28 0 0 1-.504-.527c-.12-.228-.18-.5-.18-.815 0-.311.054-.586.164-.825.11-.238.269-.426.477-.561a1.35 1.35 0 0 1 .751-.203c.29 0 .532.062.73.186.197.123.347.297.45.52.101.224.152.487.152.791v.205h-2.103c0 .18.029.341.088.483a.742.742 0 0 0 .267.337c.12.082.268.123.445.123s.331-.041.461-.122a.573.573 0 0 0 .256-.362h.572a1.019 1.019 0 0 1-.244.522 1.23 1.23 0 0 1-.464.323zm.133-1.707h-1.514c0-.137.028-.27.085-.4a.706.706 0 0 1 .683-.444c.168 0 .307.038.418.112.11.075.193.176.247.305.054.128.08.271.08.427zm1.854-.223v1.981h-.619v-2.999h.601v.432c.085-.131.2-.246.347-.343.146-.098.335-.147.566-.147a1.03 1.03 0 0 1 .635.219.793.793 0 0 1 .22.268c.095-.143.221-.26.38-.351.157-.09.334-.136.531-.136.106 0 .216.017.33.051a.86.86 0 0 1 .553.503c.06.141.09.32.09.537v1.966h-.62v-1.9a.755.755 0 0 0-.083-.385.454.454 0 0 0-.214-.196.694.694 0 0 0-.279-.057.835.835 0 0 0-.277.052.567.567 0 0 0-.245.174.505.505 0 0 0-.102.331v1.981h-.618v-2.033c0-.11-.03-.203-.088-.279a.546.546 0 0 0-.22-.169.654.654 0 0 0-.261-.057.784.784 0 0 0-.29.058.577.577 0 0 0-.24.181.501.501 0 0 0-.097.318zm6.508.278h.832l.125-.832h-.832l-.125.832zm3.326.859c.147.253.363.38.648.38a.692.692 0 0 0 .642-.379c.142-.252.214-.666.214-1.242 0-.588-.073-1.011-.217-1.269-.145-.258-.358-.387-.642-.387-.28 0-.496.13-.644.39-.148.26-.222.682-.222 1.266 0 .574.073.988.22 1.241zm4.157.908c.47 0 .841-.183 1.114-.547.273-.365.409-.9.409-1.605 0-.71-.137-1.248-.412-1.614a1.315 1.315 0 0 0-1.108-.55c-.31 0-.58.082-.808.247-.228.164-.405.407-.53.729s-.188.72-.188 1.194c0 .705.136 1.239.408 1.602.271.362.643.544 1.115.544zm-.646-.908c.148.253.364.38.649.38a.692.692 0 0 0 .641-.379c.143-.252.214-.666.214-1.242 0-.588-.072-1.011-.216-1.269-.145-.258-.359-.387-.642-.387-.281 0-.496.13-.644.39-.149.26-.223.682-.223 1.266 0 .574.074.988.221 1.241zm5.204.844v-1.033h.679v-.536h-.68v-2.625h-.62l-1.937 2.616v.545h1.957v1.033h.6zm-1.974-1.569h1.364v-1.836l-1.364 1.836z" fill="#36536B"/>
        <path fill-rule="evenodd" clip-rule="evenodd" d="M130.394 252.827v.673h-.947v-.672l-.017-.002c-.425-.052-.785-.174-1.08-.365-.406-.263-.639-.668-.699-1.216l1.142-.022a.9.9 0 0 0 .389.567c.199.129.449.194.75.194.18 0 .34-.029.479-.088a.807.807 0 0 0 .328-.242.548.548 0 0 0 .121-.348c0-.201-.064-.352-.192-.451-.128-.099-.324-.179-.59-.239l-.89-.193c-.413-.083-.745-.248-.994-.495-.249-.248-.376-.58-.381-.998a1.418 1.418 0 0 1 .276-.887c.187-.25.441-.443.763-.579l.14-.054c.143-.05.293-.087.45-.112l.024-.003v-.747h.95v.751l.094.017c.177.036.341.091.49.165.3.147.53.344.692.592.161.247.239.521.234.82l-1.108.019c-.035-.242-.115-.431-.24-.57-.125-.138-.333-.207-.624-.207-.15 0-.284.016-.402.049a1.012 1.012 0 0 0-.304.138.61.61 0 0 0-.194.209.565.565 0 0 0-.065.271c0 .159.053.284.159.375.107.092.308.177.603.255l.876.215c.493.118.849.32 1.068.607.22.286.329.634.329 1.044 0 .314-.086.588-.257.822a1.65 1.65 0 0 1-.727.543l-.138.051a2.68 2.68 0 0 1-.453.106l-.055.007zm4.345-5.499v5.452h-1.112v-4.083h-.969v-.622c.31 0 .561-.03.753-.089a.894.894 0 0 0 .43-.256.736.736 0 0 0 .169-.402h.729zm3.18 5.535c.656 0 1.168-.241 1.537-.722.368-.482.552-1.173.552-2.076 0-.907-.187-1.603-.56-2.086-.373-.484-.883-.726-1.529-.726-.431 0-.803.109-1.116.326-.313.217-.554.536-.725.956-.17.419-.255.931-.255 1.534 0 .902.185 1.593.554 2.074.369.48.884.72 1.542.72zm-.721-1.339a.766.766 0 0 0 .721.438c.323 0 .56-.146.71-.436.15-.29.226-.776.226-1.457 0-.696-.077-1.195-.23-1.497-.152-.301-.389-.452-.71-.452-.32 0-.559.152-.715.456-.157.304-.235.802-.235 1.493 0 .679.078 1.164.233 1.455zm6.929 1.256v-1.207h.838v-.923h-.838v-3.322h-1.078l-2.475 3.34v.905h2.502l-.004 1.207h1.055zm-2.539-2.13h1.488v-1.998l-1.488 1.998zm7.41 2.13v-1.207h.838v-.923h-.838v-3.322h-1.078l-2.475 3.34v.905h2.502l-.004 1.207h1.055zm-2.539-2.13h1.488v-1.998l-1.488 1.998z" fill="#36536B"/>
        <g filter="url(#3pq5tqr0gj)">
            <rect x="41.339" y="266.7" width="117.901" height="23.2" rx="2" fill="#FBFCFE"/>
        </g>
        <path opacity=".7" fill-rule="evenodd" clip-rule="evenodd" d="M70.257 280.138c-.273.364-.645.546-1.115.546-.471 0-.843-.181-1.115-.543-.272-.363-.407-.897-.407-1.603 0-.473.062-.871.187-1.193.126-.322.302-.565.53-.729.229-.165.498-.247.808-.247.465 0 .834.183 1.109.55.274.366.411.904.411 1.614 0 .705-.136 1.24-.409 1.605zm-3.94-.863-.203 1.357-.36-.052.195-1.305h-.831l-.203 1.357-.358-.052.196-1.305h-.67v-.357h.724l.125-.832h-.664v-.357h.718l.198-1.311.355.041-.19 1.27h.833l.198-1.311.359.041-.191 1.27h.621v.357h-.674l-.124.832h.613v.357h-.667zm-14.584-2.848v4.194h-.618v-4.194h.618zm2.34 4.196a1.946 1.946 0 0 1-.293.018c-.222 0-.394-.03-.516-.09a.502.502 0 0 1-.254-.26 1.06 1.06 0 0 1-.071-.41v-1.812h-.486v-.447h.503l.153-.882h.448v.879h.67v.45h-.67l.003 1.789c0 .098.01.17.03.216a.15.15 0 0 0 .104.087c.05.012.116.019.201.019h.35v.403a.822.822 0 0 1-.172.04zm2.034.056c.198 0 .388-.037.569-.109.181-.073.336-.18.464-.324.128-.143.21-.317.244-.522h-.572a.573.573 0 0 1-.256.363.854.854 0 0 1-.46.122.76.76 0 0 1-.446-.124.74.74 0 0 1-.267-.336 1.253 1.253 0 0 1-.088-.483h2.103v-.206c0-.303-.05-.567-.153-.79a1.17 1.17 0 0 0-.45-.52c-.197-.124-.44-.186-.729-.186a1.35 1.35 0 0 0-.751.203 1.297 1.297 0 0 0-.477.561c-.11.239-.165.514-.165.825 0 .315.06.587.18.815.121.228.29.404.505.526.216.123.465.185.749.185zm-.812-1.816h1.514c0-.156-.027-.299-.081-.428a.67.67 0 0 0-.247-.304.729.729 0 0 0-.418-.112.706.706 0 0 0-.683.444.984.984 0 0 0-.085.4zm3.368 1.758v-1.981a.5.5 0 0 1 .096-.318.577.577 0 0 1 .242-.181.764.764 0 0 1 .289-.058c.086 0 .174.019.261.057.088.037.161.094.22.169a.44.44 0 0 1 .088.279v2.033h.618v-1.981c0-.139.034-.25.102-.331a.567.567 0 0 1 .245-.174.81.81 0 0 1 .278-.052c.098 0 .19.019.278.057a.457.457 0 0 1 .214.195.762.762 0 0 1 .083.386v1.9h.62v-1.967c0-.216-.03-.395-.09-.536a.86.86 0 0 0-.553-.503 1.148 1.148 0 0 0-.33-.051c-.197 0-.374.045-.532.136a1.106 1.106 0 0 0-.378.351.783.783 0 0 0-.221-.268 1.03 1.03 0 0 0-.634-.219c-.232 0-.42.049-.567.146a1.202 1.202 0 0 0-.347.344v-.432h-.6v2.999h.618zm7.34-1.703h-.832l.125-.832h.832l-.125.832zm3.142 1.239a.708.708 0 0 1-.648-.38c-.148-.254-.221-.667-.221-1.242 0-.583.074-1.005.222-1.265.148-.26.363-.39.644-.39.284 0 .498.129.642.387.144.258.217.681.217 1.268 0 .577-.072.991-.214 1.243a.694.694 0 0 1-.642.379zm4.623-.019c-.273.364-.644.546-1.114.546-.472 0-.844-.181-1.115-.543-.272-.363-.408-.897-.408-1.603 0-.473.063-.871.188-1.193.125-.322.302-.565.53-.729.228-.165.498-.247.808-.247.464 0 .834.183 1.108.55.275.366.412.904.412 1.614 0 .705-.136 1.24-.409 1.605zm-1.111.019a.708.708 0 0 1-.649-.38c-.147-.254-.22-.667-.22-1.242 0-.583.073-1.005.222-1.265.148-.26.363-.39.644-.39.283 0 .497.129.642.387.144.258.216.681.216 1.268 0 .577-.071.991-.214 1.243a.693.693 0 0 1-.641.379zm4.498.35a1.786 1.786 0 0 1-.819.177c-.262 0-.505-.045-.728-.135a1.722 1.722 0 0 1-.577-.371 1.473 1.473 0 0 1-.357-.546l.518-.247c.07.151.155.286.257.405.102.119.222.211.361.278.139.067.298.1.477.1.283 0 .511-.081.685-.242.173-.161.26-.38.26-.657a.834.834 0 0 0-.448-.755.96.96 0 0 0-.46-.109c-.105 0-.205.009-.297.027a.92.92 0 0 0-.276.108 1.416 1.416 0 0 0-.29.236.087.087 0 0 1-.034.012.113.113 0 0 1-.039-.015l-.494-.18.19-2.166h2.547l-.02.525h-2.015l-.098 1.262c.143-.116.293-.2.45-.251.159-.052.33-.077.515-.077.26 0 .498.052.713.156.214.105.386.258.515.46.13.202.194.451.194.747 0 .292-.064.545-.19.76a1.286 1.286 0 0 1-.54.498z" fill="#36536B"/>
        <path fill-rule="evenodd" clip-rule="evenodd" d="M138.396 281.341v-.674l.056-.006a2.68 2.68 0 0 0 .453-.106l.137-.051a1.66 1.66 0 0 0 .727-.543 1.35 1.35 0 0 0 .258-.822c0-.41-.11-.758-.329-1.044-.219-.287-.575-.489-1.069-.607l-.875-.215c-.296-.078-.497-.163-.603-.255a.47.47 0 0 1-.16-.375.555.555 0 0 1 .26-.481 1 1 0 0 1 .304-.137 1.49 1.49 0 0 1 .402-.049c.29 0 .498.069.623.207.126.138.206.328.241.569l1.108-.018a1.42 1.42 0 0 0-.235-.82 1.687 1.687 0 0 0-.691-.592 2.042 2.042 0 0 0-.491-.166l-.093-.016v-.751h-.951v.747l-.023.003a2.553 2.553 0 0 0-.45.112l-.141.054a1.793 1.793 0 0 0-.762.578 1.428 1.428 0 0 0-.277.888c.005.418.133.75.382.997.249.248.58.413.993.496l.891.193c.265.06.462.14.59.239.127.099.191.249.191.45a.55.55 0 0 1-.12.349.809.809 0 0 1-.329.241 1.214 1.214 0 0 1-.479.089c-.3 0-.55-.065-.749-.194a.902.902 0 0 1-.389-.568l-1.142.023c.06.548.293.953.699 1.216.295.191.655.312 1.08.365l.016.002.001.672h.946zm5.818-.721v-1.206h.838v-.924h-.838v-3.321h-1.078l-2.476 3.34v.905h2.502l-.004 1.206h1.056zm-2.54-2.13h1.488v-1.998l-1.488 1.998zm5.961 2.213c.656 0 1.168-.24 1.536-.722.368-.481.552-1.173.552-2.075 0-.907-.186-1.603-.559-2.087-.373-.483-.883-.725-1.529-.725-.431 0-.803.108-1.116.326-.313.217-.555.536-.725.955-.17.42-.255.932-.255 1.535 0 .902.184 1.593.554 2.073.369.48.883.72 1.542.72zm-.722-1.338a.766.766 0 0 0 .722.437c.323 0 .56-.145.71-.435.15-.29.225-.776.225-1.457 0-.696-.076-1.195-.229-1.497-.153-.301-.389-.452-.71-.452-.321 0-.559.152-.716.456-.156.304-.234.802-.234 1.493 0 .678.077 1.164.232 1.455z" fill="#36536B"/>
        <g filter="url(#a55a4gx9ak)">
            <rect x="41.339" y="294.54" width="117.901" height="23.2" rx="2" fill="#FBFCFE"/>
        </g>
        <path opacity=".7" fill-rule="evenodd" clip-rule="evenodd" d="M69.142 308.524c.47 0 .842-.182 1.115-.546.272-.365.408-.9.408-1.606 0-.709-.137-1.247-.411-1.613a1.312 1.312 0 0 0-1.109-.55c-.31 0-.579.082-.807.246-.229.165-.405.408-.53.73-.126.322-.188.72-.188 1.193 0 .706.135 1.24.407 1.602.272.363.644.544 1.115.544zm-3.028-.052.203-1.357h.667v-.357h-.613l.124-.832h.674v-.357h-.621l.19-1.27-.358-.041-.198 1.311h-.833l.19-1.27-.355-.041-.198 1.311h-.718v.357h.664l-.125.832h-.724v.357h.67l-.196 1.305.358.052.203-1.357h.831l-.196 1.305.361.052zm-14.381-.012v-4.193h-.618v4.193h.618zm2.047.021c.12 0 .217-.006.293-.018a.822.822 0 0 0 .172-.04v-.403h-.35a.874.874 0 0 1-.2-.019.15.15 0 0 1-.105-.087.571.571 0 0 1-.03-.216l-.003-1.79h.67v-.449h-.67v-.879h-.448l-.153.882h-.503v.446h.486v1.813c0 .16.023.297.07.41.048.113.133.2.255.26s.294.09.516.09zm2.896-.071c-.181.072-.37.108-.57.108-.283 0-.532-.061-.748-.184a1.277 1.277 0 0 1-.504-.526c-.12-.228-.18-.5-.18-.815 0-.311.054-.586.164-.825.11-.239.269-.426.477-.561.208-.136.458-.203.751-.203.29 0 .532.062.73.185.197.124.347.298.45.521.101.223.152.487.152.79v.206h-2.103c0 .18.029.341.088.483a.74.74 0 0 0 .267.336.76.76 0 0 0 .445.124c.177 0 .331-.041.461-.122a.573.573 0 0 0 .256-.363h.572a1.019 1.019 0 0 1-.244.522 1.233 1.233 0 0 1-.464.324zm.133-1.707h-1.514c0-.137.028-.271.085-.4a.706.706 0 0 1 .683-.444c.168 0 .307.037.418.112a.67.67 0 0 1 .247.304c.054.129.08.271.08.428zm1.854-.223v1.98h-.619v-2.998h.601v.432c.085-.132.2-.246.347-.344.146-.097.335-.146.566-.146a1.03 1.03 0 0 1 .635.219.783.783 0 0 1 .22.268c.095-.143.221-.26.38-.351.157-.091.334-.136.531-.136.106 0 .216.017.33.051a.86.86 0 0 1 .553.503c.06.141.09.32.09.536v1.966h-.62v-1.899a.762.762 0 0 0-.083-.386.459.459 0 0 0-.214-.196.71.71 0 0 0-.279-.056.81.81 0 0 0-.277.052.567.567 0 0 0-.245.174.501.501 0 0 0-.102.331v1.98h-.618v-2.033c0-.11-.03-.203-.088-.278a.557.557 0 0 0-.22-.17.67.67 0 0 0-.261-.056.764.764 0 0 0-.29.058.577.577 0 0 0-.24.181.5.5 0 0 0-.097.318zm6.508.278h.832l.125-.832h-.832l-.125.832zm3.326.858c.147.254.363.38.648.38a.693.693 0 0 0 .642-.378c.142-.252.214-.667.214-1.243 0-.587-.073-1.01-.217-1.268-.145-.259-.358-.388-.642-.388-.28 0-.496.13-.644.39-.148.26-.222.682-.222 1.266 0 .574.073.988.22 1.241zm4.157.908c.47 0 .841-.182 1.114-.546.273-.365.409-.9.409-1.606 0-.709-.137-1.247-.412-1.613a1.312 1.312 0 0 0-1.108-.55c-.31 0-.58.082-.808.246-.228.165-.405.408-.53.73s-.188.72-.188 1.193c0 .706.136 1.24.408 1.602.271.363.643.544 1.115.544zm-.646-.908c.148.254.364.38.649.38a.693.693 0 0 0 .641-.378c.143-.252.214-.667.214-1.243 0-.587-.072-1.01-.216-1.268-.145-.259-.359-.388-.642-.388-.281 0-.496.13-.644.39-.149.26-.223.682-.223 1.266 0 .574.074.988.221 1.241zm4.259.908c.302 0 .565-.061.789-.184a1.31 1.31 0 0 0 .518-.507c.123-.216.184-.463.184-.741 0-.271-.058-.505-.175-.702a1.181 1.181 0 0 0-.487-.456 1.584 1.584 0 0 0-.728-.159c-.156 0-.303.026-.44.078a1.124 1.124 0 0 0-.362.222.949.949 0 0 0-.239.335 2.738 2.738 0 0 1 .068-.916c.07-.254.184-.446.341-.579a.879.879 0 0 1 .586-.199c.21 0 .384.055.524.164.14.11.237.261.29.454h.576a1.15 1.15 0 0 0-.236-.607 1.28 1.28 0 0 0-.503-.385 1.635 1.635 0 0 0-.663-.133c-.356 0-.659.091-.907.273a1.674 1.674 0 0 0-.567.772c-.129.334-.193.727-.193 1.179 0 .431.066.803.198 1.115.132.313.32.553.563.722.244.17.531.254.863.254zm-.467-.631c.13.088.282.132.455.132a.821.821 0 0 0 .432-.114.822.822 0 0 0 .3-.319.98.98 0 0 0 .11-.471.98.98 0 0 0-.102-.462.689.689 0 0 0-.29-.292.94.94 0 0 0-.453-.102.895.895 0 0 0-.413.1.921.921 0 0 0-.32.263.568.568 0 0 0-.125.353c-.004.207.03.389.103.546a.873.873 0 0 0 .303.366z" fill="#36536B"/>
        <path fill-rule="evenodd" clip-rule="evenodd" d="M128.538 309.18v-.673l.056-.007a2.5 2.5 0 0 0 .453-.106l.137-.051a1.65 1.65 0 0 0 .727-.542 1.35 1.35 0 0 0 .257-.822c0-.41-.109-.758-.328-1.045-.219-.286-.576-.488-1.069-.607l-.875-.214c-.296-.078-.497-.163-.603-.255a.469.469 0 0 1-.16-.375c0-.101.022-.191.066-.271a.61.61 0 0 1 .193-.21.982.982 0 0 1 .305-.137c.117-.033.251-.049.401-.049.291 0 .499.069.624.207.125.138.205.328.241.569l1.108-.019a1.43 1.43 0 0 0-.235-.82 1.7 1.7 0 0 0-.691-.591 2.042 2.042 0 0 0-.491-.166l-.093-.016v-.751h-.951v.747l-.024.002a2.6 2.6 0 0 0-.45.113l-.14.054a1.794 1.794 0 0 0-.763.578c-.186.25-.278.546-.276.888.005.417.132.75.381.997.25.248.581.413.994.496l.89.192c.266.061.463.14.59.24.128.099.192.249.192.45a.55.55 0 0 1-.12.349.816.816 0 0 1-.329.241 1.218 1.218 0 0 1-.479.089c-.301 0-.55-.065-.75-.194a.9.9 0 0 1-.388-.568l-1.142.023c.06.548.293.953.698 1.216.295.191.655.312 1.08.364l.017.002v.672h.947zm6.355-.72v-.927h-2.769v-.049c0-.166.05-.308.15-.426.101-.118.233-.224.399-.319.165-.094.346-.186.542-.277.197-.09.394-.188.592-.294a3.05 3.05 0 0 0 .545-.369c.165-.141.298-.311.398-.509.1-.199.15-.435.15-.709 0-.329-.08-.617-.24-.863a1.598 1.598 0 0 0-.682-.577c-.294-.138-.644-.207-1.05-.207-.473 0-.866.082-1.179.248a1.682 1.682 0 0 0-.705.673 1.986 1.986 0 0 0-.242.945h1.048c.045-.32.163-.558.353-.717.19-.158.422-.237.695-.237.263 0 .47.069.622.207a.694.694 0 0 1 .227.536c0 .17-.051.319-.154.444-.103.126-.239.24-.408.342a8.044 8.044 0 0 1-.557.303c-.203.101-.406.207-.607.321a3.199 3.199 0 0 0-.556.393c-.169.15-.305.326-.408.528a1.58 1.58 0 0 0-.154.718v.822h3.99zm4.046-.143c-.317.151-.692.226-1.125.226-.356 0-.686-.055-.992-.166a2.502 2.502 0 0 1-.792-.454 1.963 1.963 0 0 1-.508-.662l.857-.508c.098.17.208.324.331.461.122.137.264.245.426.325.162.079.35.118.565.118.326 0 .588-.086.785-.26a.857.857 0 0 0 .297-.678.864.864 0 0 0-.133-.474.934.934 0 0 0-.366-.329 1.165 1.165 0 0 0-.545-.121c-.11 0-.215.009-.314.028a1.113 1.113 0 0 0-.3.106 2.12 2.12 0 0 0-.337.22.232.232 0 0 1-.073.023.245.245 0 0 1-.077-.026l-.796-.37.248-2.767h3.49l-.042.901h-2.58l-.106 1.316c.201-.113.392-.195.573-.245.182-.051.382-.076.599-.076.364 0 .689.069.975.206.287.137.514.337.682.601.168.264.252.586.252.965 0 .385-.087.716-.259.995a1.703 1.703 0 0 1-.735.645zm3.832.226a2.3 2.3 0 0 0 1.079-.243 1.769 1.769 0 0 0 .988-1.619c0-.337-.078-.631-.233-.882a1.556 1.556 0 0 0-.647-.583 2.14 2.14 0 0 0-.965-.205c-.17 0-.334.022-.492.068-.158.045-.301.11-.428.194a1.128 1.128 0 0 0-.316.307 2.525 2.525 0 0 1 .06-.931 1.23 1.23 0 0 1 .372-.622.966.966 0 0 1 .65-.223c.238 0 .435.06.59.179.155.12.265.294.33.523h1.003a1.477 1.477 0 0 0-.298-.847 1.758 1.758 0 0 0-.705-.539 2.358 2.358 0 0 0-.943-.186c-.475 0-.884.117-1.224.352-.341.235-.602.57-.783 1.005-.182.435-.273.951-.273 1.549 0 .546.09 1.021.269 1.425.179.405.436.719.772.943.335.223.734.335 1.194.335zm-.527-.986a.857.857 0 0 0 .49.142.93.93 0 0 0 .943-.965.943.943 0 0 0-.124-.502.778.778 0 0 0-.336-.299 1.11 1.11 0 0 0-.928.003 1.052 1.052 0 0 0-.353.264.5.5 0 0 0-.138.326c-.002.244.036.453.115.628a.924.924 0 0 0 .331.403zm5.41.986a2.3 2.3 0 0 0 1.078-.243c.31-.162.553-.383.727-.663.174-.281.261-.599.261-.956 0-.337-.078-.631-.233-.882a1.554 1.554 0 0 0-.646-.583 2.147 2.147 0 0 0-.966-.205c-.17 0-.334.022-.492.068-.158.045-.3.11-.428.194a1.128 1.128 0 0 0-.316.307 2.525 2.525 0 0 1 .06-.931c.076-.267.2-.474.372-.622a.966.966 0 0 1 .65-.223c.238 0 .435.06.59.179.155.12.265.294.331.523h1.003a1.478 1.478 0 0 0-.299-.847 1.755 1.755 0 0 0-.704-.539 2.362 2.362 0 0 0-.943-.186c-.476 0-.884.117-1.225.352-.341.235-.602.57-.783 1.005-.182.435-.273.951-.273 1.549 0 .546.09 1.021.269 1.425.179.405.436.719.772.943.336.223.734.335 1.195.335zm-.528-.986a.857.857 0 0 0 .49.142.93.93 0 0 0 .943-.965.934.934 0 0 0-.124-.502.778.778 0 0 0-.336-.299 1.107 1.107 0 0 0-1.281.267.499.499 0 0 0-.137.326c-.003.244.035.453.114.628a.924.924 0 0 0 .331.403z" fill="#36536B"/>
        <g filter="url(#y7qosp1xwl)">
            <rect x="41.339" y="322.38" width="117.901" height="23.2" rx="2" fill="#FBFCFE"/>
        </g>
        <path fill-rule="evenodd" clip-rule="evenodd" d="M130.259 336.347v.673h-.947v-.672l-.017-.002c-.425-.052-.785-.173-1.08-.364-.406-.263-.639-.668-.699-1.216l1.142-.023c.06.249.19.438.389.568.199.129.449.194.75.194.18 0 .34-.03.478-.089a.809.809 0 0 0 .329-.241.55.55 0 0 0 .12-.349c0-.201-.063-.351-.191-.45-.128-.1-.324-.179-.59-.24l-.89-.192c-.414-.083-.745-.248-.994-.496-.249-.247-.376-.58-.381-.997a1.42 1.42 0 0 1 .276-.888c.186-.25.441-.443.762-.579l.141-.054c.143-.049.293-.087.45-.112l.023-.002.001-.748h.95v.752l.094.016c.177.037.341.092.49.165.3.147.53.345.692.592.161.248.239.521.234.82l-1.108.019c-.035-.241-.115-.431-.24-.569-.126-.138-.333-.207-.624-.207-.15 0-.284.016-.402.049a.976.976 0 0 0-.304.137.619.619 0 0 0-.194.209.57.57 0 0 0-.065.272.47.47 0 0 0 .159.375c.107.092.308.176.603.254l.876.215c.493.118.849.321 1.068.607.219.287.329.635.329 1.045 0 .314-.086.588-.257.821a1.65 1.65 0 0 1-.727.543l-.138.051a2.588 2.588 0 0 1-.453.106l-.055.007zm5.817-1.253v1.206h-1.055l.003-1.206h-2.502v-.905l2.476-3.34h1.078v3.321h.838v.924h-.838zm-1.052-.924h-1.487l1.487-1.998v1.998zm4.451-3.321v5.451h-1.112v-4.083h-.97v-.622c.311 0 .562-.029.754-.088a.895.895 0 0 0 .43-.257.733.733 0 0 0 .169-.401h.729zm3.079 5.534c.475 0 .885-.107 1.228-.322.343-.215.607-.539.791-.973.184-.433.276-.976.276-1.627 0-.545-.09-1.019-.269-1.423a2.115 2.115 0 0 0-.77-.935c-.334-.22-.732-.33-1.193-.33-.41 0-.768.08-1.074.238a1.77 1.77 0 0 0-.714.656c-.17.279-.255.597-.255.954 0 .354.081.66.242.918.162.257.385.456.669.595.284.14.61.21.978.21.203 0 .387-.027.553-.082.165-.054.31-.13.434-.229.123-.1.221-.216.291-.349.03.435-.005.786-.104 1.055-.099.269-.246.465-.443.589a1.266 1.266 0 0 1-.686.184.875.875 0 0 1-.586-.198.9.9 0 0 1-.3-.514h-1.044c.022.319.126.597.311.835.186.237.425.421.718.552.293.131.608.196.947.196zm-.553-3.15c.166.157.382.236.65.236.153 0 .301-.035.445-.104a1.08 1.08 0 0 0 .355-.262.492.492 0 0 0 .139-.328 1.464 1.464 0 0 0-.114-.627.915.915 0 0 0-.331-.402.877.877 0 0 0-.494-.139.889.889 0 0 0-.462.12.855.855 0 0 0-.319.339 1.059 1.059 0 0 0-.117.506c0 .284.083.504.248.661zm5.423 3.15c.476 0 .886-.107 1.229-.322.343-.215.607-.539.791-.973.184-.433.276-.976.276-1.627 0-.545-.09-1.019-.269-1.423a2.115 2.115 0 0 0-.77-.935c-.334-.22-.732-.33-1.193-.33-.41 0-.769.08-1.074.238a1.764 1.764 0 0 0-.714.656c-.17.279-.255.597-.255.954 0 .354.08.66.242.918.162.257.384.456.669.595.284.14.61.21.978.21.203 0 .387-.027.553-.082.165-.054.309-.13.433-.229.124-.1.221-.216.292-.349.03.435-.005.786-.104 1.055-.099.269-.246.465-.443.589a1.266 1.266 0 0 1-.686.184.875.875 0 0 1-.586-.198.9.9 0 0 1-.3-.514h-1.045c.023.319.127.597.312.835.186.237.425.421.718.552.293.131.608.196.946.196zm-.552-3.15c.166.157.382.236.65.236.153 0 .301-.035.445-.104a1.08 1.08 0 0 0 .355-.262.492.492 0 0 0 .139-.328 1.464 1.464 0 0 0-.114-.627.915.915 0 0 0-.331-.402.877.877 0 0 0-.494-.139.889.889 0 0 0-.462.12.855.855 0 0 0-.319.339 1.059 1.059 0 0 0-.117.506c0 .284.083.504.248.661z" fill="#36536B"/>
        <path fill="#36536B" d="M32.712 62.218h134.662v66.12H32.712z"/>
        <g filter="url(#cmwepu5yym)">
            <rect x="41.339" y="108.94" width="117.901" height="32.48" rx="2" fill="#FBFCFE"/>
        </g>
        <path opacity=".7" fill-rule="evenodd" clip-rule="evenodd" d="M63.719 127.527a1.095 1.095 0 0 1-.57-.055.575.575 0 0 1-.355-.454 1.713 1.713 0 0 1-.027-.309v-3.518h.61v3.454c0 .14.027.246.082.319.054.074.139.115.252.125l.157.006v.394a1.207 1.207 0 0 1-.15.038zm-10.925-.026v-3.628h1.263v-.566h-3.21v.566h1.323v3.628h.624zm2.566.058c.298 0 .55-.065.755-.196.206-.13.361-.312.468-.544.107-.232.16-.499.16-.803 0-.333-.056-.616-.17-.851a1.23 1.23 0 0 0-.48-.537 1.41 1.41 0 0 0-.73-.184c-.295 0-.547.065-.755.196-.208.13-.366.314-.475.55a1.951 1.951 0 0 0-.163.826c0 .327.057.605.172.835.114.23.276.406.485.527.21.12.453.181.733.181zm-.451-.627a.673.673 0 0 0 .453.148.67.67 0 0 0 .427-.135.807.807 0 0 0 .258-.379c.058-.164.087-.353.087-.567 0-.2-.025-.381-.077-.544a.811.811 0 0 0-.247-.39.666.666 0 0 0-.448-.145.694.694 0 0 0-.433.132.796.796 0 0 0-.262.374 1.674 1.674 0 0 0-.088.573c0 .195.026.375.078.539a.833.833 0 0 0 .252.394zm3.511.589c.12 0 .217-.006.294-.017a.809.809 0 0 0 .171-.041v-.403h-.35a.823.823 0 0 1-.2-.019.146.146 0 0 1-.104-.087.565.565 0 0 1-.03-.216l-.003-1.789h.67v-.45h-.67v-.878h-.448l-.153.881h-.503v.447h.485v1.812c0 .161.024.298.071.411a.5.5 0 0 0 .254.259c.123.06.295.09.516.09zm2.528-.094c-.17.088-.363.132-.577.132-.192 0-.363-.035-.513-.105a.817.817 0 0 1-.35-.301.861.861 0 0 1-.128-.476c0-.332.118-.581.353-.745.235-.164.61-.251 1.124-.261l.491-.015v-.217a.539.539 0 0 0-.153-.406c-.102-.099-.26-.147-.471-.145a.826.826 0 0 0-.426.11.536.536 0 0 0-.244.363h-.538a.903.903 0 0 1 .172-.504.94.94 0 0 1 .426-.308c.181-.07.394-.105.639-.105.272 0 .495.037.67.112a.804.804 0 0 1 .392.326.998.998 0 0 1 .129.522v2.097h-.524l-.049-.551c-.111.23-.253.389-.423.477zm-.383-.3a.65.65 0 0 1-.422-.135.455.455 0 0 1-.167-.376.49.49 0 0 1 .114-.339.672.672 0 0 1 .33-.188c.143-.041.317-.062.524-.064l.404-.009v.496a.446.446 0 0 1-.07.226.754.754 0 0 1-.181.199.916.916 0 0 1-.252.139.807.807 0 0 1-.28.051zm5.8 1.308v-1.45c.035.065.08.132.132.198.053.067.117.129.192.186a.959.959 0 0 0 .593.19c.256 0 .478-.061.664-.181.187-.121.331-.3.433-.535.1-.236.151-.528.151-.876 0-.346-.05-.632-.151-.857a1.085 1.085 0 0 0-.422-.502 1.18 1.18 0 0 0-.623-.164c-.125 0-.24.017-.343.05a1.008 1.008 0 0 0-.274.131 1.17 1.17 0 0 0-.348.376l-.006-.499h-.618v3.933h.62zm.35-1.5a.646.646 0 0 0 .437.151.7.7 0 0 0 .565-.268c.147-.179.22-.459.22-.84 0-.326-.067-.585-.203-.775a.671.671 0 0 0-.582-.286c-.26 0-.457.099-.59.297-.133.198-.2.453-.2.764 0 .203.03.388.089.556a.91.91 0 0 0 .264.401zm3.239.624c.213 0 .406-.044.576-.132.17-.088.312-.247.423-.477l.05.551h.522v-2.097a.997.997 0 0 0-.128-.522.804.804 0 0 0-.392-.326 1.717 1.717 0 0 0-.67-.112c-.245 0-.458.035-.639.105a.94.94 0 0 0-.426.308.902.902 0 0 0-.172.504h.538a.536.536 0 0 1 .244-.363.826.826 0 0 1 .426-.11c.212-.002.369.046.471.145a.539.539 0 0 1 .153.406v.217l-.491.015c-.514.01-.89.097-1.124.261-.235.164-.353.413-.353.745a.86.86 0 0 0 .127.476.817.817 0 0 0 .352.301c.149.07.32.105.513.105zm-.229-.567c.112.09.253.135.422.135a.807.807 0 0 0 .28-.051.914.914 0 0 0 .252-.139.753.753 0 0 0 .18-.199.448.448 0 0 0 .071-.226v-.496l-.404.009a2.006 2.006 0 0 0-.525.064.672.672 0 0 0-.33.188.49.49 0 0 0-.113.339c0 .161.055.286.167.376zm2.866 1.466c.143 0 .275-.022.396-.067a.826.826 0 0 0 .334-.238c.101-.114.194-.275.279-.484l1.245-3.167h-.607l-.832 2.216-.838-2.216h-.618l1.164 2.912-.092.252a.572.572 0 0 1-.052.107.399.399 0 0 1-.1.109.475.475 0 0 1-.176.08.97.97 0 0 1-.285.02l-.303-.006v.401l.105.04c.07.027.197.041.38.041zm3.363-2.938v1.981h-.618v-2.999h.6v.432c.085-.131.201-.246.347-.343.147-.098.336-.147.567-.147a1.059 1.059 0 0 1 .634.219.793.793 0 0 1 .221.268 1.095 1.095 0 0 1 .91-.487c.106 0 .216.017.33.051a.86.86 0 0 1 .553.503c.06.141.091.32.091.537v1.966h-.621v-1.9a.755.755 0 0 0-.082-.385.459.459 0 0 0-.214-.196.694.694 0 0 0-.28-.057.812.812 0 0 0-.276.053.5.5 0 0 0-.347.504v1.981h-.619v-2.033c0-.11-.029-.203-.088-.278a.547.547 0 0 0-.22-.17.653.653 0 0 0-.26-.057.784.784 0 0 0-.29.058.571.571 0 0 0-.241.182.498.498 0 0 0-.097.317zm5.664 2.039c.198 0 .388-.036.569-.109.181-.072.336-.18.464-.323.128-.143.21-.317.244-.522h-.572a.573.573 0 0 1-.256.362.854.854 0 0 1-.46.122.768.768 0 0 1-.446-.123.742.742 0 0 1-.267-.337 1.251 1.251 0 0 1-.088-.482h2.103v-.206a1.89 1.89 0 0 0-.153-.791 1.176 1.176 0 0 0-.45-.52c-.197-.124-.44-.186-.729-.186a1.35 1.35 0 0 0-.751.203 1.308 1.308 0 0 0-.477.561c-.11.239-.165.514-.165.825 0 .316.06.587.181.815.12.228.288.404.504.527.216.122.466.184.749.184zm-.812-1.816h1.514c0-.156-.027-.299-.081-.427a.672.672 0 0 0-.247-.305.736.736 0 0 0-.418-.111.706.706 0 0 0-.427.124.776.776 0 0 0-.256.319.989.989 0 0 0-.085.4zm3.368 1.758v-1.981a.47.47 0 0 1 .1-.309.614.614 0 0 1 .267-.184c.11-.04.225-.061.346-.061a.63.63 0 0 1 .444.157c.115.104.172.264.172.478v1.9h.618v-1.966c0-.25-.048-.453-.144-.611a.887.887 0 0 0-.383-.348 1.213 1.213 0 0 0-.519-.111c-.158 0-.297.022-.417.066a.96.96 0 0 0-.498.403v-.432h-.605v2.999h.619zm4.004.003a2.11 2.11 0 0 1-.293.017c-.222 0-.394-.03-.516-.09a.5.5 0 0 1-.254-.259 1.066 1.066 0 0 1-.071-.411v-1.812h-.486v-.447h.503l.153-.881h.448v.878h.67v.45h-.67l.003 1.789c0 .099.01.171.03.216.02.046.056.075.105.087.049.013.116.019.2.019h.35v.403a.812.812 0 0 1-.172.041z" fill="#36536B"/>
        <path fill-rule="evenodd" clip-rule="evenodd" d="M117.413 129.313v1.036h-1.456v-1.034l-.01-.001c-.661-.079-1.22-.267-1.678-.563-.624-.404-.982-1.028-1.075-1.871l1.757-.035c.093.383.292.674.598.873.307.199.691.299 1.153.299.278 0 .523-.046.737-.136.214-.091.383-.215.506-.372a.843.843 0 0 0 .185-.536c0-.309-.098-.54-.295-.693-.196-.153-.499-.276-.907-.368l-1.37-.296c-.636-.128-1.145-.382-1.529-.763-.383-.381-.579-.892-.586-1.534-.004-.526.137-.981.425-1.366.287-.385.678-.681 1.173-.89l.167-.066c.226-.083.464-.144.714-.186l.064-.009v-1.149h1.462v1.156l.052.008c.309.055.591.146.847.272.46.226.815.53 1.063.91.249.381.369.802.361 1.262l-1.705.029c-.054-.371-.177-.663-.37-.876-.192-.213-.512-.319-.959-.319-.231 0-.437.025-.618.076a1.53 1.53 0 0 0-.469.211.933.933 0 0 0-.297.322.853.853 0 0 0-.101.418c0 .243.082.436.245.577.164.141.473.271.928.391l1.347.331c.759.182 1.307.493 1.644.934.337.441.506.976.506 1.606 0 .484-.132.905-.396 1.265-.264.359-.637.638-1.119.835l-.163.062a3.99 3.99 0 0 1-.718.175l-.113.015zm8.453-.441c-.527.331-1.157.496-1.89.496-.52 0-1.005-.1-1.456-.301a2.841 2.841 0 0 1-1.104-.85 2.305 2.305 0 0 1-.48-1.285h1.607c.07.325.224.589.463.792.238.203.539.305.901.305.401 0 .752-.095 1.055-.285.302-.189.53-.491.682-.904.152-.414.205-.956.159-1.624a1.705 1.705 0 0 1-.448.536 2.09 2.09 0 0 1-.668.354 2.723 2.723 0 0 1-.849.125c-.567 0-1.068-.108-1.506-.322a2.475 2.475 0 0 1-1.029-.917c-.248-.396-.372-.867-.372-1.412 0-.549.131-1.038.393-1.467.262-.43.628-.766 1.098-1.01.47-.243 1.021-.365 1.653-.365.709 0 1.32.169 1.835.507.514.339.909.818 1.185 1.439.275.62.413 1.35.413 2.189 0 1.002-.142 1.836-.425 2.503-.283.667-.689 1.166-1.217 1.496zm-1.739-3.987c-.413 0-.746-.121-1-.363-.254-.241-.382-.581-.382-1.017 0-.294.06-.553.18-.778.119-.224.283-.398.491-.522a1.37 1.37 0 0 1 .711-.185c.289 0 .542.071.76.214.217.143.387.349.508.618.122.269.18.591.177.966 0 .174-.072.342-.214.504a1.68 1.68 0 0 1-.546.403 1.56 1.56 0 0 1-.685.16zm10.591 2.929v1.427h-6.138v-1.265c0-.425.079-.793.237-1.105.158-.311.367-.582.628-.812.26-.23.545-.432.855-.606.31-.174.621-.338.933-.493.312-.154.598-.31.859-.467.26-.156.469-.331.627-.524.158-.194.237-.422.237-.685 0-.336-.117-.611-.35-.823-.233-.213-.552-.319-.957-.319-.42 0-.776.121-1.069.365-.293.244-.474.611-.543 1.102h-1.613a3.043 3.043 0 0 1 .373-1.453c.241-.435.602-.78 1.084-1.035.481-.255 1.086-.383 1.815-.383.624 0 1.162.106 1.615.319.453.213.802.508 1.049.887.247.379.37.822.37 1.329 0 .421-.077.784-.231 1.09a2.503 2.503 0 0 1-.613.783 4.709 4.709 0 0 1-.838.568c-.304.163-.608.314-.91.453-.303.139-.581.281-.835.426a2.243 2.243 0 0 0-.613.49.98.98 0 0 0-.231.656v.075h4.259zm4.194 1.554c1.009 0 1.797-.37 2.364-1.11.566-.741.849-1.805.849-3.193 0-1.396-.287-2.466-.861-3.211-.574-.744-1.358-1.116-2.352-1.116-.663 0-1.235.167-1.717.502-.481.334-.853.824-1.115 1.47s-.393 1.433-.393 2.361c0 1.388.284 2.451.852 3.19.569.738 1.36 1.107 2.373 1.107zm-1.11-2.059c.239.449.609.673 1.11.673.497 0 .861-.223 1.092-.67.231-.446.347-1.194.347-2.241 0-1.072-.117-1.839-.353-2.303-.235-.464-.599-.696-1.092-.696-.493 0-.86.234-1.101.702-.241.468-.361 1.233-.361 2.297 0 1.044.119 1.79.358 2.238zm10.661 1.932v-1.856h1.289v-1.421h-1.289v-5.11h-1.659l-3.808 5.139v1.392h3.849l-.006 1.856h1.624zm-3.907-3.277h2.289v-3.074l-2.289 3.074z" fill="#BA4270"/>
        <path fill-rule="evenodd" clip-rule="evenodd" d="M124.59 84.826V83.62h-.444v1.207h.444zM93.887 94.11V91.24h.023c.203.296.462.521.777.673.315.153.66.23 1.034.23.444 0 .83-.087 1.162-.259a2.46 2.46 0 0 0 .83-.691c.221-.29.387-.622.496-.997a4.18 4.18 0 0 0 .163-1.172c0-.43-.054-.842-.163-1.237a3.025 3.025 0 0 0-.503-1.037 2.536 2.536 0 0 0-.852-.715c-.343-.18-.752-.27-1.227-.27-.374 0-.716.075-1.028.223a1.827 1.827 0 0 0-.77.715h-.024v-.774h-1.577v8.182h1.659zm1.39-3.211a1.32 1.32 0 0 1-.678-.165 1.314 1.314 0 0 1-.45-.427 1.851 1.851 0 0 1-.245-.616 3.38 3.38 0 0 1-.076-.715c0-.25.024-.492.07-.727.047-.234.127-.441.24-.62.113-.18.26-.327.444-.44.183-.114.41-.17.683-.17.265 0 .489.056.672.17a1.4 1.4 0 0 1 .45.445c.116.184.2.393.25.627.051.235.076.473.076.715s-.023.48-.07.715c-.046.235-.126.44-.239.616-.113.175-.26.318-.444.427-.183.11-.41.165-.683.165zm6.895 1.078c-.358.11-.724.164-1.098.164-.288 0-.557-.035-.806-.105a1.844 1.844 0 0 1-.654-.329 1.526 1.526 0 0 1-.438-.562 1.907 1.907 0 0 1-.158-.81c0-.343.06-.626.181-.849.12-.223.277-.4.468-.533.19-.133.408-.233.654-.3.245-.066.492-.118.741-.157.249-.04.495-.07.736-.094.242-.024.456-.059.643-.106a1.12 1.12 0 0 0 .443-.205c.109-.09.16-.22.152-.393a.89.89 0 0 0-.087-.427.654.654 0 0 0-.234-.247.912.912 0 0 0-.339-.117 2.753 2.753 0 0 0-.414-.03c-.327 0-.584.071-.771.212-.187.14-.296.375-.327.703h-1.659c.023-.39.12-.715.292-.973.171-.258.39-.465.654-.621.265-.156.563-.268.894-.334.331-.067.664-.1.998-.1.304 0 .612.022.923.065.312.043.596.127.853.252s.467.299.631.521c.163.223.245.518.245.885v3.154c0 .273.016.535.047.785s.085.438.163.563h-1.682a2.531 2.531 0 0 1-.117-.586 2.156 2.156 0 0 1-.934.574zm-.479-.938c-.132 0-.261-.011-.385-.035a.93.93 0 0 1-.327-.123.62.62 0 0 1-.222-.24.78.78 0 0 1-.082-.375c0-.157.027-.286.082-.387a.741.741 0 0 1 .216-.252c.089-.067.194-.12.315-.158.121-.04.243-.07.368-.094.132-.024.265-.043.397-.059.133-.016.259-.035.38-.059.12-.023.233-.052.338-.087a.737.737 0 0 0 .263-.147v.621c0 .094-.009.22-.029.375-.019.157-.072.311-.158.463a1.09 1.09 0 0 1-.397.393c-.179.11-.432.164-.759.164zm6.428 2.755c-.319.21-.763.316-1.332.316-.171 0-.34-.005-.508-.017a24.282 24.282 0 0 1-.508-.041V92.68l.479.047c.164.016.327.02.491.012.218-.023.379-.11.484-.258a.827.827 0 0 0 .158-.492.998.998 0 0 0-.07-.375l-2.114-5.686h1.764l1.366 4.15h.024l1.319-4.15h1.718l-2.523 6.81c-.18.493-.429.845-.748 1.056zm5.493-1.665c.289 0 .553-.035.795-.105.241-.07.457-.168.648-.293.191-.125.352-.268.485-.428.132-.16.233-.33.303-.51h.024v.317c0 .125.01.24.029.345a.681.681 0 0 0 .111.276c.054.078.134.14.239.187.106.047.248.07.427.07.124 0 .245-.015.362-.046v-.375c-.14.023-.249.035-.327.035a.372.372 0 0 1-.234-.065.36.36 0 0 1-.117-.17.847.847 0 0 1-.04-.234 5.548 5.548 0 0 1-.006-.258V87.37c0-.46-.166-.834-.497-1.12-.331-.284-.858-.427-1.582-.427-.725 0-1.283.166-1.677.498-.393.332-.605.83-.636 1.495h.444c.031-.54.212-.942.543-1.208.331-.265.765-.398 1.302-.398.304 0 .561.031.771.094.21.062.382.148.514.257a1.025 1.025 0 0 1 .385.833c0 .21-.011.386-.035.527a.596.596 0 0 1-.175.346.957.957 0 0 1-.414.211c-.183.05-.435.088-.754.111l-.689.059a6.938 6.938 0 0 0-.753.117 2.276 2.276 0 0 0-.713.276 1.596 1.596 0 0 0-.531.527c-.141.223-.211.51-.211.862 0 .578.176 1.006.526 1.283.35.278.845.416 1.483.416zm-1.144-.709c.28.215.666.323 1.156.323.506 0 .907-.092 1.203-.276.296-.184.522-.395.678-.633.155-.238.255-.469.298-.692.042-.222.064-.373.064-.45v-1.126c-.109.133-.275.223-.497.27a6.173 6.173 0 0 1-.741.105l-.748.07a7.61 7.61 0 0 0-.654.1 1.898 1.898 0 0 0-.59.217 1.21 1.21 0 0 0-.426.416c-.109.176-.164.404-.164.686 0 .445.14.775.421.99zm5.715 2.726v-3.412h.024c.179.493.463.848.852 1.067.39.219.833.328 1.332.328.459 0 .858-.078 1.197-.234.339-.156.619-.373.841-.65.222-.278.387-.608.496-.991.11-.383.164-.805.164-1.266 0-.422-.054-.825-.164-1.207a2.972 2.972 0 0 0-.496-1.009 2.427 2.427 0 0 0-.841-.691c-.339-.172-.738-.258-1.197-.258a2.32 2.32 0 0 0-1.519.533 2.057 2.057 0 0 0-.432.498c-.109.18-.187.344-.233.493h-.024v-1.383h-.444v8.182h.444zm1.151-2.632c.284.152.636.229 1.057.229.389 0 .726-.075 1.01-.223.284-.149.518-.348.701-.598.183-.25.319-.541.409-.873.089-.332.134-.686.134-1.061 0-.344-.043-.682-.128-1.014a2.813 2.813 0 0 0-.397-.891 2.057 2.057 0 0 0-.695-.633c-.285-.16-.629-.24-1.034-.24-.397 0-.736.078-1.016.234a1.971 1.971 0 0 0-.684.621 2.63 2.63 0 0 0-.379.886 4.523 4.523 0 0 0-.117 1.037c0 .36.035.705.105 1.037.07.332.189.625.356.88.168.253.393.457.678.609zm4.81-5.55h.444v6.025h-.444v-6.025z" fill="#fff"/>
        <circle cx="82.425" cy="83.511" r="1.097" transform="rotate(45 82.425 83.511)" fill="#fff"/>
        <circle cx="85.006" cy="86.101" r="1.097" transform="rotate(45 85.006 86.101)" fill="#fff"/>
        <circle cx="87.587" cy="88.692" r="1.097" transform="rotate(45 87.587 88.692)" fill="#fff"/>
        <circle cx="79.843" cy="86.101" r="1.097" transform="rotate(45 79.843 86.101)" fill="#fff"/>
        <circle opacity=".5" cx="82.425" cy="88.692" r="1.097" transform="rotate(45 82.425 88.692)" fill="#fff"/>
        <circle opacity=".5" cx="85.006" cy="91.282" r="1.097" transform="rotate(45 85.006 91.282)" fill="#fff"/>
        <circle cx="77.262" cy="88.692" r="1.097" transform="rotate(45 77.262 88.692)" fill="#fff"/>
        <circle opacity=".5" cx="79.843" cy="91.282" r="1.097" transform="rotate(45 79.843 91.282)" fill="#fff"/>
        <circle opacity=".25" cx="82.425" cy="93.873" r="1.097" transform="rotate(45 82.425 93.873)" fill="#fff"/>
    </g>
    <defs>
        <filter id="fm1b8jeela" x="-29.516" y=".33" width="308.908" height="449.34" filterUnits="userSpaceOnUse" color-interpolation-filters="sRGB">
            <feFlood flood-opacity="0" result="BackgroundImageFix"/>
            <feColorMatrix in="SourceAlpha" values="0 0 0 0 0 0 0 0 0 0 0 0 0 0 0 0 0 0 127 0" result="hardAlpha"/>
            <feOffset dx="25" dy="25"/>
            <feGaussianBlur stdDeviation="40"/>
            <feColorMatrix values="0 0 0 0 0.212302 0 0 0 0 0.32521 0 0 0 0 0.419299 0 0 0 0.300727 0"/>
            <feBlend in2="BackgroundImageFix" result="effect1_dropShadow_0_1502"/>
            <feBlend in="SourceGraphic" in2="effect1_dropShadow_0_1502" result="shape"/>
        </filter>
        <filter id="9shd75s25f" x="36.339" y="150.34" width="147.901" height="53.2" filterUnits="userSpaceOnUse" color-interpolation-filters="sRGB">
            <feFlood flood-opacity="0" result="BackgroundImageFix"/>
            <feColorMatrix in="SourceAlpha" values="0 0 0 0 0 0 0 0 0 0 0 0 0 0 0 0 0 0 127 0" result="hardAlpha"/>
            <feMorphology radius="10" in="SourceAlpha" result="effect1_dropShadow_0_1502"/>
            <feOffset dx="10" dy="10"/>
            <feGaussianBlur stdDeviation="12.5"/>
            <feColorMatrix values="0 0 0 0 0.212302 0 0 0 0 0.32521 0 0 0 0 0.419299 0 0 0 0.25 0"/>
            <feBlend in2="BackgroundImageFix" result="effect1_dropShadow_0_1502"/>
            <feBlend in="SourceGraphic" in2="effect1_dropShadow_0_1502" result="shape"/>
        </filter>
        <filter id="inqa4ub3bg" x="36.339" y="178.18" width="147.901" height="53.2" filterUnits="userSpaceOnUse" color-interpolation-filters="sRGB">
            <feFlood flood-opacity="0" result="BackgroundImageFix"/>
            <feColorMatrix in="SourceAlpha" values="0 0 0 0 0 0 0 0 0 0 0 0 0 0 0 0 0 0 127 0" result="hardAlpha"/>
            <feMorphology radius="10" in="SourceAlpha" result="effect1_dropShadow_0_1502"/>
            <feOffset dx="10" dy="10"/>
            <feGaussianBlur stdDeviation="12.5"/>
            <feColorMatrix values="0 0 0 0 0.212302 0 0 0 0 0.32521 0 0 0 0 0.419299 0 0 0 0.25 0"/>
            <feBlend in2="BackgroundImageFix" result="effect1_dropShadow_0_1502"/>
            <feBlend in="SourceGraphic" in2="effect1_dropShadow_0_1502" result="shape"/>
        </filter>
        <filter id="ew2fim5rhh" x="36.339" y="206.02" width="147.901" height="53.2" filterUnits="userSpaceOnUse" color-interpolation-filters="sRGB">
            <feFlood flood-opacity="0" result="BackgroundImageFix"/>
            <feColorMatrix in="SourceAlpha" values="0 0 0 0 0 0 0 0 0 0 0 0 0 0 0 0 0 0 127 0" result="hardAlpha"/>
            <feMorphology radius="10" in="SourceAlpha" result="effect1_dropShadow_0_1502"/>
            <feOffset dx="10" dy="10"/>
            <feGaussianBlur stdDeviation="12.5"/>
            <feColorMatrix values="0 0 0 0 0.212302 0 0 0 0 0.32521 0 0 0 0 0.419299 0 0 0 0.25 0"/>
            <feBlend in2="BackgroundImageFix" result="effect1_dropShadow_0_1502"/>
            <feBlend in="SourceGraphic" in2="effect1_dropShadow_0_1502" result="shape"/>
        </filter>
        <filter id="pp1a0t6hni" x="36.339" y="233.859" width="147.901" height="53.2" filterUnits="userSpaceOnUse" color-interpolation-filters="sRGB">
            <feFlood flood-opacity="0" result="BackgroundImageFix"/>
            <feColorMatrix in="SourceAlpha" values="0 0 0 0 0 0 0 0 0 0 0 0 0 0 0 0 0 0 127 0" result="hardAlpha"/>
            <feMorphology radius="10" in="SourceAlpha" result="effect1_dropShadow_0_1502"/>
            <feOffset dx="10" dy="10"/>
            <feGaussianBlur stdDeviation="12.5"/>
            <feColorMatrix values="0 0 0 0 0.212302 0 0 0 0 0.32521 0 0 0 0 0.419299 0 0 0 0.25 0"/>
            <feBlend in2="BackgroundImageFix" result="effect1_dropShadow_0_1502"/>
            <feBlend in="SourceGraphic" in2="effect1_dropShadow_0_1502" result="shape"/>
        </filter>
        <filter id="3pq5tqr0gj" x="36.339" y="261.7" width="147.901" height="53.2" filterUnits="userSpaceOnUse" color-interpolation-filters="sRGB">
            <feFlood flood-opacity="0" result="BackgroundImageFix"/>
            <feColorMatrix in="SourceAlpha" values="0 0 0 0 0 0 0 0 0 0 0 0 0 0 0 0 0 0 127 0" result="hardAlpha"/>
            <feMorphology radius="10" in="SourceAlpha" result="effect1_dropShadow_0_1502"/>
            <feOffset dx="10" dy="10"/>
            <feGaussianBlur stdDeviation="12.5"/>
            <feColorMatrix values="0 0 0 0 0.212302 0 0 0 0 0.32521 0 0 0 0 0.419299 0 0 0 0.25 0"/>
            <feBlend in2="BackgroundImageFix" result="effect1_dropShadow_0_1502"/>
            <feBlend in="SourceGraphic" in2="effect1_dropShadow_0_1502" result="shape"/>
        </filter>
        <filter id="a55a4gx9ak" x="36.339" y="289.54" width="147.901" height="53.2" filterUnits="userSpaceOnUse" color-interpolation-filters="sRGB">
            <feFlood flood-opacity="0" result="BackgroundImageFix"/>
            <feColorMatrix in="SourceAlpha" values="0 0 0 0 0 0 0 0 0 0 0 0 0 0 0 0 0 0 127 0" result="hardAlpha"/>
            <feMorphology radius="10" in="SourceAlpha" result="effect1_dropShadow_0_1502"/>
            <feOffset dx="10" dy="10"/>
            <feGaussianBlur stdDeviation="12.5"/>
            <feColorMatrix values="0 0 0 0 0.212302 0 0 0 0 0.32521 0 0 0 0 0.419299 0 0 0 0.25 0"/>
            <feBlend in2="BackgroundImageFix" result="effect1_dropShadow_0_1502"/>
            <feBlend in="SourceGraphic" in2="effect1_dropShadow_0_1502" result="shape"/>
        </filter>
        <filter id="y7qosp1xwl" x="36.339" y="317.38" width="147.901" height="53.2" filterUnits="userSpaceOnUse" color-interpolation-filters="sRGB">
            <feFlood flood-opacity="0" result="BackgroundImageFix"/>
            <feColorMatrix in="SourceAlpha" values="0 0 0 0 0 0 0 0 0 0 0 0 0 0 0 0 0 0 127 0" result="hardAlpha"/>
            <feMorphology radius="10" in="SourceAlpha" result="effect1_dropShadow_0_1502"/>
            <feOffset dx="10" dy="10"/>
            <feGaussianBlur stdDeviation="12.5"/>
            <feColorMatrix values="0 0 0 0 0.212302 0 0 0 0 0.32521 0 0 0 0 0.419299 0 0 0 0.25 0"/>
            <feBlend in2="BackgroundImageFix" result="effect1_dropShadow_0_1502"/>
            <feBlend in="SourceGraphic" in2="effect1_dropShadow_0_1502" result="shape"/>
        </filter>
        <filter id="cmwepu5yym" x="36.339" y="103.94" width="147.901" height="62.48" filterUnits="userSpaceOnUse" color-interpolation-filters="sRGB">
            <feFlood flood-opacity="0" result="BackgroundImageFix"/>
            <feColorMatrix in="SourceAlpha" values="0 0 0 0 0 0 0 0 0 0 0 0 0 0 0 0 0 0 127 0" result="hardAlpha"/>
            <feMorphology radius="10" in="SourceAlpha" result="effect1_dropShadow_0_1502"/>
            <feOffset dx="10" dy="10"/>
            <feGaussianBlur stdDeviation="12.5"/>
            <feColorMatrix values="0 0 0 0 0.212302 0 0 0 0 0.32521 0 0 0 0 0.419299 0 0 0 0.25 0"/>
            <feBlend in2="BackgroundImageFix" result="effect1_dropShadow_0_1502"/>
            <feBlend in="SourceGraphic" in2="effect1_dropShadow_0_1502" result="shape"/>
        </filter>
        <linearGradient id="y5zd91zy1b" x1="29.788" y1="55" x2="29.788" y2="62.148" gradientUnits="userSpaceOnUse">
            <stop stop-color="#454545"/>
            <stop offset=".226" stop-color="#999"/>
            <stop offset="1" stop-color="#fff"/>
        </linearGradient>
        <linearGradient id="lomauy7xec" x1="174.326" y1="104.734" x2="168.858" y2="104.734" gradientUnits="userSpaceOnUse">
            <stop stop-color="#fff" stop-opacity=".01"/>
            <stop offset=".222" stop-color="#BABABA"/>
            <stop offset=".547" stop-color="#fff" stop-opacity=".01"/>
            <stop offset="1" stop-color="#fff" stop-opacity=".01"/>
        </linearGradient>
        <linearGradient id="f6h2zzt9pd" x1="25.484" y1="104.583" x2="30.961" y2="104.583" gradientUnits="userSpaceOnUse">
            <stop stop-color="#fff" stop-opacity=".01"/>
            <stop offset=".222" stop-color="#BABABA"/>
            <stop offset=".547" stop-color="#fff" stop-opacity=".01"/>
            <stop offset="1" stop-color="#fff" stop-opacity=".01"/>
        </linearGradient>
    </defs>
</svg>
