<svg width="229" height="450" viewBox="0 0 229 450" fill="none" xmlns="http://www.w3.org/2000/svg">
    <g filter="url(#6x54jmilqa)">
        <path fill-rule="evenodd" clip-rule="evenodd" d="M74.677 55.33h110.522c10.6 0 19.193 8.257 19.193 18.442v252.456c0 10.185-8.593 18.441-19.193 18.441H74.677c-10.6 0-19.193-8.256-19.193-18.441V73.771c0-10.184 8.593-18.44 19.193-18.44z" fill="#213648"/>
    </g>
    <path opacity=".596" fill-rule="evenodd" clip-rule="evenodd" d="M185.627 55H74.183c-5.203.318-10.001 2.701-14.395 7.148 2.826-2.476 7.866-5.788 14.53-5.788h111.174c6.664 0 11.704 3.312 14.53 5.788-4.394-4.447-9.192-6.83-14.395-7.148z" fill="url(#t62xaqa3cb)" fill-opacity=".65"/>
    <path opacity=".75" fill-rule="evenodd" clip-rule="evenodd" d="M201.376 323.35V75.29c0-6.656-2.437-9.116-3.891-10.696-1.454-1.58-1.516-2.386.573-1.193s6.268 4.667 6.268 11.889v248.06c0 7.221-4.179 10.696-6.268 11.888-2.089 1.193-2.027.387-.573-1.193 1.454-1.579 3.891-4.04 3.891-10.695z" fill="url(#fyfze56z5c)"/>
    <path opacity=".75" fill-rule="evenodd" clip-rule="evenodd" d="M58.434 323.35V75.29c0-6.656 2.437-9.116 3.892-10.696 1.453-1.58 1.515-2.386-.574-1.193-2.09 1.193-6.268 4.667-6.268 11.889v248.06c0 7.221 4.179 10.696 6.268 11.888 2.09 1.193 2.027.387.573-1.193-1.454-1.579-3.891-4.04-3.891-10.695z" fill="url(#d3mgrhvfnd)"/>
    <path fill-rule="evenodd" clip-rule="evenodd" d="M54 115.338a1.435 1.435 0 0 1 2.87 0v34.454a1.435 1.435 0 0 1-2.87 0v-34.454zM202.842 145.78a1.434 1.434 0 1 1 2.869 0v24.362a1.435 1.435 0 0 1-2.869 0V145.78z" fill="#2E423C"/>
    <path fill-rule="evenodd" clip-rule="evenodd" d="M116.809 62.218H73.806c-6.418 0-11.094 4.386-11.094 10.116V317.32c0 7.47 7.226 14.089 15.396 14.089h103.645c7.87 0 15.396-6.67 15.396-14.089V72.996c0-6.867-5.08-10.737-11.094-10.778H142.37c-.165.027-3.166 1.265-4.434 4.386-1.268 3.122-3.82 5.61-6.614 5.61h-3.246c-1.328 0-4.824-1.293-6.595-5.61-1.77-4.316-4.506-4.359-4.672-4.386z" fill="#36536B"/>
    <mask id="16b7h4ny5e" style="mask-type:luminance" maskUnits="userSpaceOnUse" x="62" y="62" width="136" height="270">
        <path fill-rule="evenodd" clip-rule="evenodd" d="M116.809 62.218H73.806c-6.418 0-11.094 4.386-11.094 10.116V317.32c0 7.47 7.226 14.089 15.396 14.089h103.645c7.87 0 15.396-6.67 15.396-14.089V72.996c0-6.867-5.08-10.737-11.094-10.778H142.37c-.165.027-3.166 1.265-4.434 4.386-1.268 3.122-3.82 5.61-6.614 5.61h-3.246c-1.328 0-4.824-1.293-6.595-5.61-1.77-4.316-4.506-4.359-4.672-4.386z" fill="#fff"/>
    </mask>
    <g filter="url(#jx19a2idif)">
        <rect x="78.852" y="137.36" width="101.719" height="110.78" rx="2" fill="#FBFCFE"/>
    </g>
    <path fill-rule="evenodd" clip-rule="evenodd" d="M141.349 205.847v.673h-.946l-.001-.672-.016-.002c-.425-.052-.785-.173-1.08-.364-.406-.263-.639-.668-.699-1.216l1.142-.023c.06.249.19.438.389.568.199.129.449.194.749.194.18 0 .34-.03.479-.089a.809.809 0 0 0 .329-.241.55.55 0 0 0 .12-.349c0-.201-.064-.351-.192-.45-.127-.1-.324-.179-.589-.24l-.891-.192c-.413-.083-.744-.248-.993-.496-.25-.247-.377-.58-.382-.997-.002-.342.09-.638.276-.888.187-.25.441-.443.763-.579l.14-.054c.143-.049.293-.087.45-.112l.024-.002v-.748h.951v.752l.093.016c.178.037.341.092.491.165.299.147.53.345.691.592.162.248.24.521.235.82l-1.108.019c-.035-.241-.116-.431-.241-.569-.125-.138-.333-.207-.623-.207-.151 0-.285.016-.402.049a.993.993 0 0 0-.305.137.559.559 0 0 0-.259.481c0 .158.053.283.16.375.106.092.307.176.603.254l.875.215c.493.118.85.321 1.069.607.219.287.329.635.329 1.045 0 .314-.086.588-.258.821a1.645 1.645 0 0 1-.727.543l-.137.051a2.588 2.588 0 0 1-.453.106l-.056.007zm-42.368-2.045v1.998h-.82v-5.451h1.883c.388 0 .735.066 1.042.2.307.133.549.329.725.588.177.259.265.576.265.953 0 .362-.081.671-.242.926-.162.255-.387.45-.676.584-.29.135-.625.202-1.005.202h-1.172zm-.004-.66h1.153c.346 0 .628-.1.845-.299.218-.2.327-.466.327-.798 0-.337-.112-.595-.338-.774-.225-.18-.513-.27-.864-.27h-1.123v2.141zm4.81 2.734c.278 0 .527-.058.749-.172.222-.114.405-.321.55-.62l.064.716h.68v-2.726a1.3 1.3 0 0 0-.167-.678 1.041 1.041 0 0 0-.509-.424c-.228-.097-.518-.145-.872-.145-.318 0-.594.045-.83.135-.235.091-.42.225-.554.402a1.168 1.168 0 0 0-.223.654h.698c.05-.219.156-.376.318-.471.161-.096.346-.144.554-.144.275-.002.479.061.612.189s.199.304.199.528v.282l-.638.019c-.669.013-1.156.126-1.462.34-.305.213-.458.536-.458.968 0 .242.055.448.165.619.11.171.263.301.457.392.194.09.416.136.667.136zm-.297-.737a.85.85 0 0 0 .548.175c.123 0 .244-.022.365-.066.12-.044.229-.104.326-.181a.998.998 0 0 0 .235-.258.579.579 0 0 0 .092-.294v-.645l-.526.011c-.268.003-.495.03-.681.083a.886.886 0 0 0-.429.245.638.638 0 0 0-.148.441c0 .209.073.372.218.489zm3.726 1.905c.185 0 .357-.029.514-.086.158-.058.303-.161.434-.31.132-.148.253-.358.363-.629l1.619-4.117h-.789l-1.082 2.88-1.089-2.88h-.804l1.514 3.785-.121.328a.795.795 0 0 1-.067.14.532.532 0 0 1-.13.141.642.642 0 0 1-.229.104c-.096.025-.22.034-.37.026l-.394-.008v.521l.137.052c.091.036.256.053.494.053zm4.371-3.819v2.575h-.804v-3.898h.782v.562c.11-.171.26-.32.45-.447.191-.127.436-.19.737-.19a1.34 1.34 0 0 1 .824.284c.122.094.218.211.288.349.122-.186.286-.338.492-.456.205-.118.436-.177.691-.177.138 0 .281.022.428.066.148.044.285.118.412.222.126.104.229.248.308.432.079.183.118.416.118.697v2.556h-.808v-2.469c0-.214-.035-.381-.107-.502a.595.595 0 0 0-.278-.254.905.905 0 0 0-.362-.074c-.115 0-.236.023-.361.068a.74.74 0 0 0-.319.226.652.652 0 0 0-.132.43v2.575h-.804v-2.643a.574.574 0 0 0-.114-.362.718.718 0 0 0-.286-.22.855.855 0 0 0-.34-.074c-.125 0-.25.026-.375.076a.746.746 0 0 0-.314.235.65.65 0 0 0-.126.413zm7.363 2.651c.258 0 .505-.048.74-.142.235-.094.436-.234.603-.42.166-.186.272-.412.317-.679h-.743a.745.745 0 0 1-.333.471 1.105 1.105 0 0 1-.599.159c-.231 0-.423-.054-.579-.16a.964.964 0 0 1-.347-.438 1.633 1.633 0 0 1-.115-.627h2.735v-.268c0-.395-.066-.737-.199-1.027a1.523 1.523 0 0 0-.584-.677c-.257-.161-.573-.241-.949-.241-.38 0-.706.088-.976.263-.271.176-.477.42-.62.73-.143.31-.214.668-.214 1.073 0 .409.078.762.234 1.059.157.296.375.525.656.684.28.16.605.24.973.24zm-1.056-2.36h1.969c0-.204-.035-.389-.105-.557a.872.872 0 0 0-.322-.395.95.95 0 0 0-.542-.146.916.916 0 0 0-.556.163 1.006 1.006 0 0 0-.333.414 1.284 1.284 0 0 0-.111.521zm4.379 2.284v-2.575c0-.161.043-.294.131-.401a.794.794 0 0 1 .346-.24c.143-.052.293-.079.451-.079.235 0 .427.068.576.204.149.135.224.343.224.622v2.469h.804v-2.556c0-.324-.063-.589-.188-.793a1.144 1.144 0 0 0-.498-.453 1.566 1.566 0 0 0-.674-.145c-.206 0-.387.029-.543.087a1.24 1.24 0 0 0-.648.524v-.562h-.785v3.898h.804zm5.206.004a2.625 2.625 0 0 1-.382.023c-.288 0-.511-.039-.67-.117a.656.656 0 0 1-.331-.338 1.39 1.39 0 0 1-.092-.533v-2.356h-.631v-.581h.654l.199-1.146h.582v1.142h.872v.585h-.872l.004 2.326a.75.75 0 0 0 .039.281.197.197 0 0 0 .136.113c.063.016.15.024.261.024h.454v.524a1.06 1.06 0 0 1-.223.053zm4.22.072c.389 0 .716-.085.983-.255.266-.17.469-.405.608-.707.139-.301.209-.649.209-1.044 0-.432-.074-.801-.222-1.107a1.6 1.6 0 0 0-.623-.697 1.82 1.82 0 0 0-.951-.239c-.383 0-.71.084-.98.254-.271.17-.477.408-.618.714a2.537 2.537 0 0 0-.213 1.075c0 .425.075.787.224 1.086.149.299.359.527.631.684.272.157.589.236.952.236zm-.586-.815c.151.128.347.193.59.193a.868.868 0 0 0 .554-.176c.149-.117.261-.281.336-.494.076-.212.113-.458.113-.737 0-.259-.033-.494-.099-.707a1.07 1.07 0 0 0-.322-.507c-.147-.125-.341-.188-.582-.188a.904.904 0 0 0-.563.171 1.035 1.035 0 0 0-.34.487c-.077.21-.115.458-.115.744 0 .254.034.488.102.702.067.213.176.384.326.512zm4.381.739v-3.317h.909v-.581h-.924v-.498c0-.168.028-.293.085-.375.056-.081.162-.122.317-.122h.56l-.004-.558h-.774c-.32 0-.563.082-.729.247-.165.164-.248.402-.248.714v.592h-.792v.581h.792v3.317h.808zm10.121.083c.476 0 .886-.107 1.229-.322.343-.215.606-.539.791-.973.184-.433.276-.976.276-1.627 0-.545-.09-1.019-.269-1.423a2.115 2.115 0 0 0-.77-.935c-.334-.22-.732-.33-1.193-.33-.411 0-.769.08-1.074.238a1.764 1.764 0 0 0-.714.656c-.17.279-.255.597-.255.954 0 .354.08.66.242.918.161.257.384.456.669.595.284.14.61.21.978.21.203 0 .387-.027.552-.082.166-.054.31-.13.434-.229.124-.1.221-.216.291-.349.03.435-.004.786-.103 1.055-.099.269-.247.465-.443.589a1.266 1.266 0 0 1-.686.184.873.873 0 0 1-.586-.198.9.9 0 0 1-.3-.514h-1.045c.023.319.127.597.312.835.185.237.425.421.718.552.293.131.608.196.946.196zm-.552-3.15c.165.157.382.236.65.236.153 0 .301-.035.445-.104a1.09 1.09 0 0 0 .355-.262.492.492 0 0 0 .139-.328 1.48 1.48 0 0 0-.114-.627.922.922 0 0 0-.331-.402.88.88 0 0 0-.494-.139.889.889 0 0 0-.462.12.855.855 0 0 0-.319.339 1.059 1.059 0 0 0-.117.506c0 .284.083.504.248.661zm7.534 3.067v-.927h-2.768v-.049c0-.166.05-.308.15-.426.1-.118.233-.225.398-.319.166-.094.347-.186.543-.277.197-.09.394-.188.592-.294.198-.106.379-.229.545-.369.165-.141.298-.311.398-.509.1-.199.15-.435.15-.709 0-.329-.08-.617-.24-.863a1.604 1.604 0 0 0-.682-.577c-.295-.139-.645-.208-1.05-.208-.474 0-.867.083-1.18.249-.313.166-.548.39-.704.673a1.986 1.986 0 0 0-.243.944h1.049c.045-.319.162-.557.353-.716.19-.158.422-.237.695-.237.263 0 .47.069.621.207a.69.69 0 0 1 .228.535c0 .171-.052.32-.154.445a1.54 1.54 0 0 1-.408.341 7.844 7.844 0 0 1-.558.304c-.203.1-.405.207-.606.32a3.204 3.204 0 0 0-.556.394c-.17.15-.305.326-.408.528a1.564 1.564 0 0 0-.154.718v.822h3.989zm4.263-.639c-.368.481-.88.722-1.537.722-.658 0-1.172-.24-1.542-.72-.369-.48-.554-1.171-.554-2.073 0-.604.085-1.115.256-1.535.17-.42.412-.738.725-.956.313-.217.685-.326 1.115-.326.647 0 1.156.242 1.529.726s.56 1.179.56 2.087c0 .902-.184 1.594-.552 2.075zm-1.537-.179a.766.766 0 0 1-.721-.437c-.155-.292-.233-.777-.233-1.455 0-.692.078-1.189.235-1.493.157-.304.395-.457.716-.457.32 0 .557.151.71.453.152.301.229.8.229 1.497 0 .681-.075 1.166-.226 1.457a.748.748 0 0 1-.71.435zm6.209-.388v1.206h-1.056l.004-1.206h-2.502v-.905l2.476-3.34h1.078v3.321h.837v.924h-.837zm-1.052-.924h-1.488l1.488-1.998v1.998zm-58.41 7.123v.795h-.808v-.795h.808zm-.015 5.447v-3.898h-.774v3.898h.774zm3.341-.066a2.148 2.148 0 0 1-.817.142c-.271 0-.524-.043-.761-.129a1.395 1.395 0 0 1-.593-.403 1.327 1.327 0 0 1-.299-.705h.717a.771.771 0 0 0 .517.582c.129.047.267.07.415.07.246 0 .444-.044.596-.134a.445.445 0 0 0 .227-.412.433.433 0 0 0-.122-.321c-.082-.08-.21-.139-.385-.177l-.774-.185c-.321-.075-.577-.195-.77-.36-.193-.164-.291-.395-.293-.692 0-.228.057-.432.171-.61.114-.179.283-.319.509-.421.225-.102.505-.152.841-.152.438 0 .79.098 1.056.294.265.196.403.48.413.852h-.695a.609.609 0 0 0-.242-.421c-.137-.101-.317-.152-.539-.152-.231 0-.42.045-.568.137a.463.463 0 0 0-.221.421.35.35 0 0 0 .161.303c.108.074.269.135.485.183l.736.185c.19.05.347.116.47.198.122.081.219.171.289.269.07.098.12.2.148.305.029.106.044.205.044.298 0 .247-.062.457-.186.632a1.183 1.183 0 0 1-.53.403zm4.673.142c.285 0 .541-.056.768-.166a1.427 1.427 0 0 0 .806-1.154h-.684a.885.885 0 0 1-.434.615.876.876 0 0 1-.438.105c-.348 0-.613-.128-.794-.384-.182-.257-.272-.601-.272-1.033 0-.473.097-.823.293-1.052a.95.95 0 0 1 .758-.343c.171 0 .318.033.442.1a.81.81 0 0 1 .297.265c.073.111.122.23.144.359h.695a1.534 1.534 0 0 0-.255-.713 1.44 1.44 0 0 0-.551-.477 1.7 1.7 0 0 0-.775-.171c-.379 0-.703.085-.975.256-.272.171-.479.41-.622.716a2.503 2.503 0 0 0-.214 1.067c0 .43.077.795.231 1.095.154.301.368.528.64.683.273.154.587.232.94.232zm4.976-.255c-.267.17-.595.255-.983.255a1.87 1.87 0 0 1-.952-.236 1.58 1.58 0 0 1-.631-.684c-.149-.299-.224-.661-.224-1.086 0-.41.071-.768.212-1.075.142-.306.348-.544.618-.714.271-.17.598-.254.981-.254.366 0 .682.079.95.239.268.16.476.392.624.697.148.306.222.675.222 1.107 0 .395-.07.743-.209 1.044a1.623 1.623 0 0 1-.608.707zm-.979-.367c-.243 0-.44-.065-.59-.193a1.091 1.091 0 0 1-.327-.512 2.34 2.34 0 0 1-.101-.702c0-.286.038-.534.114-.744.077-.21.19-.372.34-.487a.91.91 0 0 1 .564-.171c.24 0 .434.063.582.188.148.126.255.295.321.507.067.213.1.448.1.707 0 .279-.038.525-.113.737a1.052 1.052 0 0 1-.336.494.87.87 0 0 1-.554.176zm3.4-2.029v2.575h-.804v-3.898h.782v.562c.11-.171.26-.32.45-.447.191-.127.436-.19.737-.19a1.34 1.34 0 0 1 .824.284c.122.094.218.211.288.349.122-.186.286-.338.492-.456.205-.118.436-.177.691-.177.138 0 .281.022.428.066.148.044.285.118.412.222.126.104.229.248.308.432.079.183.118.416.118.697v2.556h-.808v-2.469c0-.214-.035-.381-.107-.502a.595.595 0 0 0-.278-.254.909.909 0 0 0-.362-.074c-.115 0-.236.023-.361.068a.74.74 0 0 0-.319.226.652.652 0 0 0-.132.43v2.575h-.804v-2.643a.574.574 0 0 0-.114-.362.718.718 0 0 0-.286-.22.855.855 0 0 0-.34-.074c-.125 0-.25.026-.375.076a.746.746 0 0 0-.314.235.65.65 0 0 0-.126.413zm6.506 3.789v-1.885c.045.086.102.172.171.258a1.279 1.279 0 0 0 .588.421c.128.045.272.068.432.068.333 0 .621-.079.864-.236.243-.157.43-.389.562-.696.131-.306.197-.686.197-1.138 0-.45-.066-.821-.197-1.114-.132-.293-.314-.51-.549-.652a1.53 1.53 0 0 0-.809-.213 1.45 1.45 0 0 0-.445.064c-.134.042-.253.1-.357.171a1.513 1.513 0 0 0-.453.488l-.007-.648h-.804v5.112h.807zm.455-1.949a.841.841 0 0 0 .567.196.91.91 0 0 0 .735-.349c.191-.232.287-.596.287-1.091 0-.425-.088-.761-.265-1.009-.176-.247-.429-.371-.757-.371-.338 0-.593.129-.766.387-.173.257-.259.588-.259.993 0 .264.038.504.114.722.077.217.191.391.344.522zm4.213.788c.058 0 .12-.006.186-.019a1.53 1.53 0 0 0 .194-.049v-.513l-.203-.007c-.148-.013-.258-.067-.329-.162-.071-.096-.107-.234-.107-.415v-4.49h-.793v4.573c0 .138.012.272.036.401.024.13.072.246.145.347a.73.73 0 0 0 .317.243 1.4 1.4 0 0 0 .554.091zm3.527-.119a1.98 1.98 0 0 1-.74.142c-.368 0-.693-.08-.973-.24a1.659 1.659 0 0 1-.656-.684c-.156-.297-.235-.65-.235-1.059 0-.405.072-.763.215-1.073.142-.31.349-.554.619-.73.271-.175.596-.263.977-.263.376 0 .692.08.949.241.256.161.451.386.584.677.133.29.199.632.199 1.027v.268h-2.735c0 .233.038.443.115.627a.964.964 0 0 0 .347.438c.155.106.348.16.579.16.23 0 .43-.053.599-.159a.74.74 0 0 0 .332-.471h.744a1.327 1.327 0 0 1-.317.679 1.595 1.595 0 0 1-.603.42zm.173-2.218h-1.969c0-.179.037-.352.111-.521.074-.168.185-.306.332-.414a.918.918 0 0 1 .556-.163c.218 0 .399.049.543.146a.864.864 0 0 1 .321.395c.07.168.106.353.106.557zm3.365 2.288a2.61 2.61 0 0 1-.381.023c-.288 0-.511-.039-.67-.117a.652.652 0 0 1-.331-.338 1.39 1.39 0 0 1-.092-.533v-2.356h-.631v-.581h.654l.199-1.146h.582v1.142h.871v.585h-.871l.004 2.326a.75.75 0 0 0 .039.281.195.195 0 0 0 .135.113c.064.016.151.024.261.024h.455v.524c-.05.02-.125.038-.224.053zm2.644.072c.258 0 .505-.048.74-.142a1.58 1.58 0 0 0 .603-.42 1.32 1.32 0 0 0 .318-.679h-.744a.745.745 0 0 1-.333.471 1.102 1.102 0 0 1-.599.159c-.23 0-.423-.054-.578-.16a.966.966 0 0 1-.348-.438 1.634 1.634 0 0 1-.114-.627h2.734v-.268c0-.395-.066-.737-.199-1.027a1.517 1.517 0 0 0-.584-.677c-.257-.161-.573-.241-.948-.241-.381 0-.707.088-.977.263-.271.176-.477.42-.62.73-.143.31-.214.668-.214 1.073 0 .409.078.762.235 1.059.156.296.375.525.655.684.281.16.605.24.973.24zm-1.055-2.36h1.968c0-.204-.035-.389-.105-.557a.864.864 0 0 0-.321-.395.951.951 0 0 0-.543-.146.918.918 0 0 0-.556.163 1.006 1.006 0 0 0-.333.414 1.3 1.3 0 0 0-.11.521zm4.99 2.36c.216 0 .4-.029.552-.087a1.157 1.157 0 0 0 .613-.509c.057-.101.1-.194.128-.279l.09.799h.601v-5.602h-.808v2.296a1.227 1.227 0 0 0-.16-.219 1.212 1.212 0 0 0-.259-.218 1.42 1.42 0 0 0-.36-.166 1.563 1.563 0 0 0-.468-.064c-.346 0-.636.083-.87.248-.234.166-.41.399-.528.7-.117.3-.176.653-.176 1.057 0 .661.146 1.167.439 1.518.293.35.695.526 1.206.526zm-.588-.984c.172.251.419.377.742.377.361 0 .621-.114.782-.342.16-.227.24-.601.24-1.121a2.367 2.367 0 0 0-.109-.747.904.904 0 0 0-.325-.461c-.146-.105-.339-.157-.576-.157a.926.926 0 0 0-.729.322c-.188.215-.282.563-.282 1.043 0 .472.086.834.257 1.086zm6.331.984c.278 0 .528-.058.75-.172.221-.114.405-.321.55-.62l.064.716h.68v-2.726a1.3 1.3 0 0 0-.167-.678 1.046 1.046 0 0 0-.509-.424c-.228-.097-.519-.145-.872-.145-.318 0-.595.045-.83.135-.235.091-.42.225-.554.402a1.169 1.169 0 0 0-.224.654h.699c.05-.219.156-.376.318-.471.161-.096.346-.144.554-.144.275-.002.479.061.612.189s.199.304.199.528v.282l-.638.019c-.669.013-1.156.126-1.462.34-.305.213-.458.536-.458.968 0 .242.055.448.165.619.11.171.263.301.457.392.194.09.416.136.666.136zm-.296-.737a.85.85 0 0 0 .548.175 1.157 1.157 0 0 0 .691-.247.998.998 0 0 0 .235-.258.579.579 0 0 0 .092-.294v-.645l-.526.011c-.268.003-.495.03-.682.083a.888.888 0 0 0-.428.245.638.638 0 0 0-.148.441.59.59 0 0 0 .218.489zm4.214.661v-2.575c0-.161.044-.294.131-.401a.794.794 0 0 1 .346-.24c.143-.052.293-.079.451-.079.235 0 .427.068.576.204.149.135.224.343.224.622v2.469h.804v-2.556c0-.324-.063-.589-.188-.793a1.144 1.144 0 0 0-.498-.453 1.563 1.563 0 0 0-.674-.145c-.205 0-.386.029-.543.087a1.234 1.234 0 0 0-.648.524v-.562h-.785v3.898h.804zm5.474-.011a1.552 1.552 0 0 1-.552.087c-.511 0-.913-.176-1.206-.526-.293-.351-.439-.857-.439-1.518 0-.404.059-.757.176-1.057.118-.301.294-.534.528-.7.234-.165.524-.248.87-.248.175 0 .331.021.468.064.136.042.256.098.36.166a1.278 1.278 0 0 1 .419.437v-2.296h.808v5.602h-.601l-.091-.799c-.027.085-.07.178-.127.279a1.157 1.157 0 0 1-.613.509zm-.398-.52c-.323 0-.57-.126-.742-.377-.171-.252-.257-.614-.257-1.086 0-.48.094-.828.282-1.043a.924.924 0 0 1 .728-.322c.238 0 .431.052.577.157a.904.904 0 0 1 .325.461c.07.204.107.453.109.747 0 .52-.08.894-.24 1.121-.161.228-.421.342-.782.342zm-66.023 10.3v1.885h-.808v-5.112h.804l.007.648a1.513 1.513 0 0 1 .453-.488 1.34 1.34 0 0 1 .357-.171 1.45 1.45 0 0 1 .445-.064c.306 0 .576.071.81.213.234.142.417.359.548.652.132.293.197.664.197 1.114 0 .452-.065.832-.197 1.138a1.505 1.505 0 0 1-.561.696c-.243.157-.531.236-.864.236-.16 0-.305-.023-.432-.068a1.264 1.264 0 0 1-.588-.421 1.612 1.612 0 0 1-.171-.258zm1.022.132a.84.84 0 0 1-.568-.196 1.191 1.191 0 0 1-.343-.522 2.168 2.168 0 0 1-.115-.722c0-.405.086-.736.26-.993.172-.258.427-.387.766-.387.328 0 .58.124.757.371.176.248.264.584.264 1.009 0 .495-.095.859-.287 1.091a.908.908 0 0 1-.734.349zm3.398-1.806v2.345h-.804v-3.898h.77v.799c.065-.191.156-.351.272-.48.117-.13.252-.228.408-.295a1.245 1.245 0 0 1 .642-.09.323.323 0 0 1 .113.032v.777a.396.396 0 0 0-.126-.03c-.051-.006-.096-.009-.133-.012a1.63 1.63 0 0 0-.466.027 1 1 0 0 0-.363.15.698.698 0 0 0-.233.276.92.92 0 0 0-.08.399zm3.6 2.421c.387 0 .715-.085.982-.255.266-.17.469-.405.608-.707.139-.301.209-.649.209-1.044 0-.432-.074-.801-.222-1.107a1.603 1.603 0 0 0-.624-.697 1.82 1.82 0 0 0-.95-.239c-.383 0-.71.084-.98.254-.271.17-.477.408-.618.714a2.544 2.544 0 0 0-.213 1.075c0 .425.075.787.224 1.086.149.299.36.527.63.684.273.157.59.236.953.236zm-.587-.815c.15.128.347.193.59.193a.87.87 0 0 0 .554-.176c.15-.117.261-.281.336-.494.075-.212.113-.458.113-.737 0-.259-.033-.494-.1-.707a1.065 1.065 0 0 0-.32-.507c-.148-.125-.343-.188-.583-.188a.906.906 0 0 0-.564.171c-.15.115-.263.277-.34.487-.076.21-.114.458-.114.744 0 .254.034.488.101.702.068.213.177.384.327.512zm4.768.815c.285 0 .541-.056.768-.166a1.427 1.427 0 0 0 .806-1.154h-.684a.885.885 0 0 1-.434.615.875.875 0 0 1-.437.105c-.349 0-.613-.128-.795-.384-.182-.257-.272-.601-.272-1.033 0-.473.097-.823.293-1.052a.95.95 0 0 1 .759-.343c.17 0 .317.033.441.1a.81.81 0 0 1 .297.265c.074.111.122.23.144.359h.695a1.534 1.534 0 0 0-.255-.713 1.444 1.444 0 0 0-.55-.477 1.707 1.707 0 0 0-.776-.171c-.378 0-.703.085-.975.256-.272.171-.479.41-.622.716a2.503 2.503 0 0 0-.214 1.067c0 .43.077.795.231 1.095.154.301.368.528.641.683.273.154.586.232.939.232zm4.82-.142a1.98 1.98 0 0 1-.74.142c-.368 0-.693-.08-.973-.24a1.659 1.659 0 0 1-.656-.684c-.156-.297-.235-.65-.235-1.059 0-.405.072-.763.215-1.073.142-.31.349-.554.619-.73.271-.175.596-.263.977-.263.376 0 .692.08.949.241.256.161.451.386.584.677.133.29.199.632.199 1.027v.268h-2.735c0 .233.038.443.115.627a.964.964 0 0 0 .347.438c.155.106.348.16.579.16.23 0 .43-.053.599-.159a.74.74 0 0 0 .332-.471h.744a1.327 1.327 0 0 1-.317.679 1.595 1.595 0 0 1-.603.42zm.173-2.218h-1.969c0-.179.037-.352.111-.521.074-.168.185-.306.332-.414a.918.918 0 0 1 .556-.163c.218 0 .399.049.543.146a.864.864 0 0 1 .321.395c.071.168.106.353.106.557zm3.824 2.218a2.148 2.148 0 0 1-.817.142c-.271 0-.524-.043-.761-.129a1.398 1.398 0 0 1-.594-.403 1.326 1.326 0 0 1-.298-.705h.717a.771.771 0 0 0 .517.582c.129.047.267.07.415.07.245 0 .444-.044.595-.134a.444.444 0 0 0 .228-.412.433.433 0 0 0-.122-.321c-.082-.08-.21-.139-.385-.177l-.774-.185c-.321-.075-.578-.195-.77-.36-.193-.164-.291-.395-.293-.692 0-.228.057-.432.17-.61a1.14 1.14 0 0 1 .509-.421c.226-.102.506-.152.842-.152.438 0 .79.098 1.056.294.265.196.403.48.413.852h-.695a.609.609 0 0 0-.242-.421c-.137-.101-.317-.152-.54-.152-.23 0-.419.045-.567.137a.46.46 0 0 0-.221.421c0 .128.053.229.161.303.108.074.269.135.485.183l.736.185c.19.05.347.116.47.198.122.081.219.171.289.269.07.098.119.2.148.305.029.106.043.205.043.298 0 .247-.062.457-.186.632-.123.174-.3.309-.529.403zm2.934.142c.316 0 .588-.048.817-.142.229-.094.406-.229.53-.403.124-.175.186-.385.186-.632 0-.093-.015-.192-.044-.298a.945.945 0 0 0-.148-.305 1.076 1.076 0 0 0-.289-.269 1.553 1.553 0 0 0-.47-.198l-.736-.185a1.43 1.43 0 0 1-.485-.183.35.35 0 0 1-.161-.303c0-.189.074-.329.221-.421.148-.092.337-.137.568-.137.223 0 .402.051.539.152a.609.609 0 0 1 .242.421h.695c-.01-.372-.148-.656-.413-.852-.266-.196-.618-.294-1.056-.294-.335 0-.616.05-.841.152a1.135 1.135 0 0 0-.509.421 1.108 1.108 0 0 0-.171.61c.002.297.1.528.293.692.193.165.449.285.77.36l.774.185c.175.038.303.097.385.177a.433.433 0 0 1 .122.321.445.445 0 0 1-.227.412c-.152.09-.35.134-.596.134-.148 0-.286-.023-.415-.07a.835.835 0 0 1-.33-.214.754.754 0 0 1-.186-.368h-.718c.04.287.14.522.299.705.159.183.357.318.593.403.237.086.49.129.761.129zm4.792-.142a1.98 1.98 0 0 1-.74.142c-.368 0-.693-.08-.973-.24a1.659 1.659 0 0 1-.656-.684c-.156-.297-.235-.65-.235-1.059 0-.405.072-.763.215-1.073.142-.31.349-.554.619-.73.271-.175.596-.263.977-.263.376 0 .692.08.949.241.256.161.451.386.584.677.133.29.199.632.199 1.027v.268h-2.735c0 .233.038.443.115.627a.964.964 0 0 0 .347.438c.155.106.348.16.579.16.23 0 .43-.053.599-.159a.74.74 0 0 0 .332-.471h.744a1.327 1.327 0 0 1-.317.679 1.595 1.595 0 0 1-.603.42zm.173-2.218h-1.969c0-.179.037-.352.111-.521.074-.168.185-.306.332-.414a.918.918 0 0 1 .556-.163c.218 0 .399.049.543.146a.864.864 0 0 1 .321.395c.071.168.106.353.106.557zm3.574 2.273a1.56 1.56 0 0 1-.552.087c-.511 0-.913-.176-1.206-.526-.293-.351-.44-.857-.44-1.518 0-.404.059-.757.177-1.057.118-.301.294-.534.528-.7.234-.165.524-.248.869-.248.176 0 .332.021.468.064a1.412 1.412 0 0 1 .62.384c.069.078.122.151.16.219v-2.296h.807v5.602h-.601l-.09-.799c-.027.085-.07.178-.128.279a1.157 1.157 0 0 1-.612.509zm-.398-.52c-.323 0-.571-.126-.742-.377-.172-.252-.257-.614-.257-1.086 0-.48.093-.828.281-1.043a.926.926 0 0 1 .729-.322c.238 0 .43.052.577.157a.91.91 0 0 1 .325.461c.07.204.106.453.109.747 0 .52-.081.894-.241 1.121-.16.228-.421.342-.781.342zm6.74.465a2.144 2.144 0 0 1-.817.142c-.27 0-.524-.043-.76-.129a1.398 1.398 0 0 1-.594-.403 1.327 1.327 0 0 1-.299-.705h.718a.754.754 0 0 0 .186.368.835.835 0 0 0 .33.214c.129.047.268.07.415.07.246 0 .444-.044.596-.134a.445.445 0 0 0 .227-.412c0-.134-.04-.24-.122-.321-.081-.08-.21-.139-.385-.177l-.774-.185c-.32-.075-.577-.195-.77-.36-.193-.164-.29-.395-.293-.692 0-.228.057-.432.171-.61a1.14 1.14 0 0 1 .509-.421c.225-.102.506-.152.841-.152.439 0 .791.098 1.056.294.266.196.403.48.413.852h-.695a.605.605 0 0 0-.242-.421c-.136-.101-.316-.152-.539-.152-.23 0-.42.045-.567.137a.461.461 0 0 0-.222.421c0 .128.054.229.162.303.107.074.269.135.484.183l.737.185c.19.05.346.116.469.198.123.081.219.171.289.269.071.098.12.2.149.305.029.106.043.205.043.298 0 .247-.062.457-.186.632a1.183 1.183 0 0 1-.53.403zm2.998.142a1.51 1.51 0 0 0 .506-.078c.159-.054.296-.142.413-.264.116-.122.197-.284.242-.488l.09.754h.624v-3.898h-.8v2.537c0 .269-.08.473-.241.613-.16.139-.373.209-.638.209-.293 0-.512-.073-.658-.219a.77.77 0 0 1-.218-.569v-2.571h-.807v2.658c0 .216.04.406.122.569.081.163.191.3.33.411.139.111.298.194.476.249.177.055.364.084.559.087zm5.198-.166c-.226.11-.482.166-.768.166-.353 0-.666-.078-.939-.232a1.601 1.601 0 0 1-.641-.683c-.154-.3-.231-.665-.231-1.095 0-.404.072-.76.215-1.067.142-.306.35-.545.621-.716.272-.171.597-.256.975-.256.291 0 .549.057.776.171.226.114.41.273.55.477.14.204.226.441.256.713h-.695a.935.935 0 0 0-.145-.359.81.81 0 0 0-.297-.265.915.915 0 0 0-.441-.1.95.95 0 0 0-.759.343c-.195.229-.293.579-.293 1.052 0 .432.091.776.272 1.033.182.256.447.384.795.384a.876.876 0 0 0 .438-.105.885.885 0 0 0 .433-.615h.684a1.426 1.426 0 0 1-.253.69 1.446 1.446 0 0 1-.553.464zm3.229.166c.286 0 .542-.056.769-.166a1.45 1.45 0 0 0 .552-.464c.141-.199.226-.429.253-.69h-.683a.9.9 0 0 1-.139.343.85.85 0 0 1-.295.272.876.876 0 0 1-.438.105c-.348 0-.613-.128-.794-.384-.182-.257-.273-.601-.273-1.033 0-.473.098-.823.293-1.052a.952.952 0 0 1 .759-.343c.17 0 .318.033.442.1a.808.808 0 0 1 .296.265c.074.111.122.23.145.359h.695a1.524 1.524 0 0 0-.256-.713 1.437 1.437 0 0 0-.55-.477 1.704 1.704 0 0 0-.776-.171c-.378 0-.703.085-.974.256-.272.171-.479.41-.622.716a2.503 2.503 0 0 0-.214 1.067c0 .43.077.795.231 1.095.154.301.367.528.64.683.273.154.586.232.939.232zm4.82-.142a1.976 1.976 0 0 1-.74.142c-.368 0-.692-.08-.973-.24a1.656 1.656 0 0 1-.655-.684c-.157-.297-.235-.65-.235-1.059 0-.405.071-.763.214-1.073.143-.31.349-.554.62-.73.27-.175.596-.263.977-.263.375 0 .692.08.948.241.257.161.452.386.584.677.133.29.2.632.2 1.027v.268h-2.735c0 .233.038.443.114.627a.966.966 0 0 0 .348.438c.155.106.348.16.578.16.231 0 .43-.053.599-.159a.742.742 0 0 0 .333-.471h.744a1.32 1.32 0 0 1-.318.679 1.58 1.58 0 0 1-.603.42zm.173-2.218h-1.968a1.3 1.3 0 0 1 .11-.521c.074-.168.185-.306.333-.414a.918.918 0 0 1 .556-.163c.218 0 .399.049.543.146a.864.864 0 0 1 .321.395c.07.168.105.353.105.557zm3.824 2.218a2.144 2.144 0 0 1-.817.142c-.27 0-.524-.043-.76-.129a1.398 1.398 0 0 1-.594-.403 1.327 1.327 0 0 1-.299-.705h.718a.754.754 0 0 0 .186.368.835.835 0 0 0 .33.214c.129.047.268.07.416.07.245 0 .443-.044.595-.134a.444.444 0 0 0 .227-.412c0-.134-.04-.24-.122-.321-.081-.08-.21-.139-.385-.177l-.774-.185c-.32-.075-.577-.195-.77-.36-.193-.164-.29-.395-.293-.692 0-.228.057-.432.171-.61a1.14 1.14 0 0 1 .509-.421c.225-.102.506-.152.842-.152.438 0 .79.098 1.055.294.266.196.403.48.413.852h-.695a.605.605 0 0 0-.242-.421c-.136-.101-.316-.152-.539-.152-.23 0-.419.045-.567.137a.461.461 0 0 0-.222.421c0 .128.054.229.162.303.107.074.269.135.484.183l.737.185c.19.05.346.116.469.198.123.081.219.171.289.269.071.098.12.2.149.305.029.106.043.205.043.298 0 .247-.062.457-.186.632-.124.174-.3.309-.53.403zm2.935.142c.315 0 .587-.048.817-.142a1.18 1.18 0 0 0 .529-.403c.124-.175.186-.385.186-.632 0-.093-.014-.192-.043-.298a.966.966 0 0 0-.148-.305 1.081 1.081 0 0 0-.29-.269 1.547 1.547 0 0 0-.469-.198l-.736-.185a1.421 1.421 0 0 1-.485-.183.349.349 0 0 1-.162-.303c0-.189.074-.329.222-.421.148-.092.337-.137.567-.137.223 0 .403.051.539.152a.607.607 0 0 1 .243.421h.695c-.01-.372-.148-.656-.414-.852-.265-.196-.617-.294-1.055-.294-.336 0-.616.05-.842.152a1.14 1.14 0 0 0-.509.421 1.108 1.108 0 0 0-.171.61c.003.297.101.528.293.692.193.165.45.285.77.36l.774.185c.176.038.304.097.385.177a.429.429 0 0 1 .122.321.444.444 0 0 1-.227.412c-.151.09-.35.134-.595.134-.148 0-.286-.023-.415-.07a.771.771 0 0 1-.517-.582h-.717c.04.287.139.522.298.705.159.183.357.318.594.403.236.086.49.129.761.129zm3.721-3.393v3.317h-.808v-3.317h-.793v-.581h.793v-.592c0-.312.083-.55.248-.714.165-.165.408-.247.729-.247h.774l.003.558h-.559c-.156 0-.261.041-.318.122-.056.082-.084.207-.084.375v.498h.924v.581h-.909zm3.076 3.393c.177.002.346-.024.505-.078a1.01 1.01 0 0 0 .413-.264.996.996 0 0 0 .242-.488l.091.754h.623v-3.898h-.8v2.537c0 .269-.08.473-.24.613-.161.139-.374.209-.639.209-.293 0-.512-.073-.657-.219a.766.766 0 0 1-.218-.569v-2.571h-.808v2.658c0 .216.041.406.122.569.082.163.192.3.331.411.139.111.297.194.475.249.178.055.364.084.56.087zm4.127-.042a1.4 1.4 0 0 1-.74-.072.73.73 0 0 1-.317-.243.846.846 0 0 1-.145-.347 2.191 2.191 0 0 1-.036-.401v-4.573h.793v4.49c0 .181.036.319.107.415.071.095.181.149.329.162l.202.007v.513c-.062.02-.127.037-.193.049zm1.936.019a.978.978 0 0 0 .186-.019c.066-.012.13-.029.193-.049v-.513l-.203-.007c-.148-.013-.257-.067-.329-.162-.071-.096-.107-.234-.107-.415v-4.49h-.792v4.573c0 .138.012.272.035.401.024.13.072.246.145.347a.736.736 0 0 0 .317.243c.139.061.324.091.555.091zm1.978 1.105a1.498 1.498 0 0 1-.514.086c-.238 0-.403-.017-.494-.053l-.137-.052v-.521l.394.008c.15.008.274-.001.37-.026a.634.634 0 0 0 .229-.104.516.516 0 0 0 .13-.141.795.795 0 0 0 .067-.14l.121-.328-1.514-3.785h.804l1.089 2.88 1.082-2.88h.789l-1.619 4.117c-.11.271-.231.481-.363.629a1.071 1.071 0 0 1-.434.31z" fill="#36536B"/>
    <ellipse opacity=".25" cx="129.133" cy="174.48" rx="16.183" ry="16.24" fill="#BA4270"/>
    <path d="m123.932 175.464 2.645 2.654 7.671-7.698" stroke="#BA4270" stroke-width="3"/>
    <rect x="92.144" y="239.44" width="75.711" height="17.4" rx="8.7" fill="#BA4270"/>
    <path fill-rule="evenodd" clip-rule="evenodd" d="M121.787 250.176c-.357.19-.81.284-1.359.284h-1.341v-4.612h.573a63.22 63.22 0 0 1 .8.006c.557.013 1.012.113 1.364.3.351.187.609.449.774.785.164.336.246.733.246 1.193 0 .478-.087.891-.261 1.239a1.811 1.811 0 0 1-.796.805zm-1.766-.468h.426c.263 0 .502-.051.717-.154.215-.102.387-.269.516-.5.13-.232.194-.542.194-.929 0-.359-.057-.651-.171-.875a1.074 1.074 0 0 0-.49-.493 1.693 1.693 0 0 0-.753-.157h-.439v3.108zm4.421-3.018v-.839h-.903v.839h.903zm-.01.472v3.298h-.887v-3.298h.887zm2.094 3.362c.273 0 .513-.04.721-.121.208-.081.37-.198.486-.353a.896.896 0 0 0 .175-.559.915.915 0 0 0-.437-.78 1.383 1.383 0 0 0-.45-.184l-.534-.121a1.333 1.333 0 0 1-.394-.129c-.084-.05-.127-.119-.127-.206a.28.28 0 0 1 .156-.261.808.808 0 0 1 .397-.087c.155 0 .284.035.386.104a.438.438 0 0 1 .19.295h.775c-.004-.325-.128-.577-.37-.756-.243-.179-.566-.268-.971-.268a1.87 1.87 0 0 0-.757.137 1.054 1.054 0 0 0-.465.374.935.935 0 0 0-.158.532c.004.272.094.482.27.63.176.148.409.253.7.315l.578.121a.716.716 0 0 1 .32.121.264.264 0 0 1 .097.214c0 .117-.055.203-.164.26a.947.947 0 0 1-.431.084.895.895 0 0 1-.267-.043.64.64 0 0 1-.249-.145.534.534 0 0 1-.151-.278h-.805c.041.26.134.471.28.634.146.162.325.281.537.357.212.075.433.113.662.113zm2.91-2.175v2.111h-.928v-3.298h.909v.466c.1-.145.234-.269.402-.374.169-.104.381-.156.637-.156.113 0 .227.02.344.061.116.04.226.099.329.177a.893.893 0 0 1 .249.292c.106-.151.246-.277.418-.378.173-.101.365-.152.577-.152.123 0 .248.02.374.061a.977.977 0 0 1 .604.563c.064.152.097.34.097.563v2.175h-.929v-2.06a.585.585 0 0 0-.077-.318.454.454 0 0 0-.198-.172.616.616 0 0 0-.252-.053.684.684 0 0 0-.251.05.52.52 0 0 0-.217.158.435.435 0 0 0-.089.284v2.111h-.925v-2.143c0-.1-.026-.184-.079-.252a.506.506 0 0 0-.199-.155.595.595 0 0 0-.243-.053.661.661 0 0 0-.254.053.509.509 0 0 0-.213.163.435.435 0 0 0-.086.276zm5.66-1.659v-.839h-.903v.839h.903zm-.009.472v3.298h-.887v-3.298h.887zm2.093 3.362c.273 0 .514-.04.722-.121.207-.081.369-.198.486-.353a.896.896 0 0 0 .175-.559.97.97 0 0 0-.037-.251.87.87 0 0 0-.132-.276.992.992 0 0 0-.268-.253 1.402 1.402 0 0 0-.45-.184l-.534-.121a1.333 1.333 0 0 1-.394-.129c-.085-.05-.127-.119-.127-.206a.28.28 0 0 1 .155-.261.812.812 0 0 1 .398-.087.68.68 0 0 1 .386.104.433.433 0 0 1 .189.295h.776c-.005-.325-.128-.577-.371-.756-.242-.179-.566-.268-.971-.268a1.86 1.86 0 0 0-.756.137 1.057 1.057 0 0 0-.466.374.934.934 0 0 0-.157.532c.004.272.094.482.27.63.176.148.409.253.699.315l.579.121a.711.711 0 0 1 .319.121.26.26 0 0 1 .097.214c0 .117-.054.203-.164.26a.942.942 0 0 1-.43.084.895.895 0 0 1-.267-.043.644.644 0 0 1-.25-.145.54.54 0 0 1-.151-.278h-.804c.04.26.134.471.28.634.146.162.325.281.537.357.212.075.432.113.661.113zm3.963-.121a1.98 1.98 0 0 1-.722.121c-.229 0-.449-.038-.661-.113a1.302 1.302 0 0 1-.537-.357 1.199 1.199 0 0 1-.28-.634h.804a.54.54 0 0 0 .151.278.644.644 0 0 0 .25.145.895.895 0 0 0 .267.043.95.95 0 0 0 .431-.084.276.276 0 0 0 .163-.26.26.26 0 0 0-.097-.214.711.711 0 0 0-.319-.121l-.579-.121c-.29-.062-.523-.167-.699-.315-.176-.148-.266-.358-.27-.63 0-.198.052-.375.157-.532.105-.158.26-.282.466-.374.205-.091.458-.137.756-.137.405 0 .729.089.971.268.243.179.367.431.371.756h-.776a.433.433 0 0 0-.189-.295.677.677 0 0 0-.386-.104.812.812 0 0 0-.398.087.28.28 0 0 0-.155.261c0 .087.042.156.127.206.085.05.216.093.394.129l.534.121c.184.045.334.106.45.184a.992.992 0 0 1 .268.253.87.87 0 0 1 .132.276.97.97 0 0 1 .037.251.896.896 0 0 1-.175.559 1.08 1.08 0 0 1-.486.353z" fill="#FBFCFE"/>
    <defs>
        <linearGradient id="t62xaqa3cb" x1="59.788" y1="55" x2="59.788" y2="62.148" gradientUnits="userSpaceOnUse">
            <stop stop-color="#454545"/>
            <stop offset=".226" stop-color="#999"/>
            <stop offset="1" stop-color="#fff"/>
        </linearGradient>
        <linearGradient id="fyfze56z5c" x1="204.326" y1="104.734" x2="198.858" y2="104.734" gradientUnits="userSpaceOnUse">
            <stop stop-color="#fff" stop-opacity=".01"/>
            <stop offset=".222" stop-color="#BABABA"/>
            <stop offset=".547" stop-color="#fff" stop-opacity=".01"/>
            <stop offset="1" stop-color="#fff" stop-opacity=".01"/>
        </linearGradient>
        <linearGradient id="d3mgrhvfnd" x1="55.484" y1="104.583" x2="60.961" y2="104.583" gradientUnits="userSpaceOnUse">
            <stop stop-color="#fff" stop-opacity=".01"/>
            <stop offset=".222" stop-color="#BABABA"/>
            <stop offset=".547" stop-color="#fff" stop-opacity=".01"/>
            <stop offset="1" stop-color="#fff" stop-opacity=".01"/>
        </linearGradient>
        <filter id="6x54jmilqa" x=".484" y=".33" width="308.908" height="449.34" filterUnits="userSpaceOnUse" color-interpolation-filters="sRGB">
            <feFlood flood-opacity="0" result="BackgroundImageFix"/>
            <feColorMatrix in="SourceAlpha" values="0 0 0 0 0 0 0 0 0 0 0 0 0 0 0 0 0 0 127 0" result="hardAlpha"/>
            <feOffset dx="25" dy="25"/>
            <feGaussianBlur stdDeviation="40"/>
            <feColorMatrix values="0 0 0 0 0.212302 0 0 0 0 0.32521 0 0 0 0 0.419299 0 0 0 0.300727 0"/>
            <feBlend in2="BackgroundImageFix" result="effect1_dropShadow_0_1395"/>
            <feBlend in="SourceGraphic" in2="effect1_dropShadow_0_1395" result="shape"/>
        </filter>
        <filter id="jx19a2idif" x="73.852" y="132.36" width="131.719" height="140.78" filterUnits="userSpaceOnUse" color-interpolation-filters="sRGB">
            <feFlood flood-opacity="0" result="BackgroundImageFix"/>
            <feColorMatrix in="SourceAlpha" values="0 0 0 0 0 0 0 0 0 0 0 0 0 0 0 0 0 0 127 0" result="hardAlpha"/>
            <feMorphology radius="10" in="SourceAlpha" result="effect1_dropShadow_0_1395"/>
            <feOffset dx="10" dy="10"/>
            <feGaussianBlur stdDeviation="12.5"/>
            <feColorMatrix values="0 0 0 0 0.212302 0 0 0 0 0.32521 0 0 0 0 0.419299 0 0 0 0.25 0"/>
            <feBlend in2="BackgroundImageFix" result="effect1_dropShadow_0_1395"/>
            <feBlend in="SourceGraphic" in2="effect1_dropShadow_0_1395" result="shape"/>
        </filter>
    </defs>
</svg>
